<svg width="357" height="93" viewBox="0 0 357 93" fill="none" xmlns="http://www.w3.org/2000/svg">
<path d="M32.483 1.78845C14.566 1.78845 0 16.3797 0 34.4279C0 52.4761 14.5213 67.0673 32.483 67.0673C37.666 67.0673 42.5809 65.8551 46.9149 63.6552V5.15566C42.5809 3.00065 37.666 1.78845 32.483 1.78845ZM32.483 45.2927C26.4957 45.2927 21.6702 40.4439 21.6702 34.4279C21.6702 28.4118 26.4957 23.563 32.483 23.563C38.4702 23.563 43.2957 28.4118 43.2957 34.4279C43.2957 40.399 38.4702 45.2927 32.483 45.2927Z" fill="#212529"/>
<path d="M42.8934 64.8317C42.8934 68.2965 40.0899 71.1313 36.6634 71.1313H31.4568C19.5307 71.1313 9.82959 80.9407 9.82959 93H42.8934V71.1313V64.8317Z" fill="#212529"/>
<path d="M53.7675 7.65303C50.8347 4.52021 49.9774 0 49.9774 0H42.8936V93C53.0907 92.6867 61.2124 84.4071 61.2124 74.2031V72.0996C58.3698 72.0996 56.0236 69.8171 56.0236 66.9528C56.0236 64.1333 58.3247 61.8061 61.2124 61.8061V56.2117V51.5573V49.8566C58.3698 49.8566 56.0236 47.5741 56.0236 44.7098C56.0236 41.8455 58.3247 39.563 61.2124 39.563V17.4095V11.9495C61.2575 11.9495 56.565 10.6516 53.7675 7.65303Z" fill="#FF1D4E"/>
<path d="M117.709 70.8096C114.485 70.8096 111.506 70.2584 108.772 69.1558C106.038 68.0123 103.651 66.4401 101.61 64.4391C99.6105 62.4382 98.0598 60.1105 96.9579 57.4561C95.8561 54.7609 95.3052 51.8411 95.3052 48.6967C95.3052 45.5931 95.8561 42.7141 96.9579 40.0597C98.1006 37.3645 99.6921 35.0368 101.733 33.0767C103.773 31.0757 106.16 29.5239 108.894 28.4213C111.669 27.3187 114.648 26.7674 117.831 26.7674C120.076 26.7674 122.239 27.0737 124.32 27.6863C126.401 28.2988 128.278 29.1564 129.952 30.259C131.625 31.3616 133.012 32.6071 134.114 33.9955L129.095 39.2634C127.952 38.1608 126.769 37.242 125.544 36.507C124.361 35.7719 123.116 35.2002 121.81 34.7918C120.504 34.3835 119.158 34.1793 117.77 34.1793C115.73 34.1793 113.832 34.5468 112.077 35.2819C110.364 36.0169 108.854 37.0378 107.548 38.3446C106.283 39.6514 105.283 41.1827 104.548 42.9387C103.814 44.6947 103.446 46.614 103.446 48.6967C103.446 50.6977 103.814 52.5966 104.548 54.3934C105.324 56.1902 106.385 57.7624 107.731 59.11C109.078 60.4576 110.629 61.5193 112.384 62.2952C114.179 63.0303 116.077 63.3978 118.076 63.3978C119.586 63.3978 120.994 63.1732 122.3 62.724C123.606 62.2748 124.769 61.6623 125.789 60.8864C126.809 60.0696 127.585 59.1304 128.115 58.0686C128.687 57.0069 128.972 55.8635 128.972 54.6384V53.2908L130.074 54.5771H117.403V47.4716H136.807C136.889 47.9208 136.95 48.4312 136.991 49.0029C137.032 49.5338 137.052 50.0647 137.052 50.5956C137.093 51.0856 137.113 51.5144 137.113 51.8819C137.113 54.6996 136.624 57.2723 135.644 59.6C134.665 61.8869 133.277 63.8674 131.482 65.5417C129.727 67.216 127.666 68.5228 125.299 69.462C122.973 70.3604 120.443 70.8096 117.709 70.8096Z" fill="#212529"/>
<path d="M162.485 70.8096C159.098 70.8096 156.099 70.095 153.487 68.6657C150.916 67.2364 148.896 65.2967 147.427 62.8465C145.999 60.3555 145.284 57.5174 145.284 54.3321C145.284 51.8002 145.693 49.493 146.509 47.4103C147.325 45.3276 148.447 43.5308 149.875 42.0199C151.345 40.4681 153.079 39.2838 155.078 38.4671C157.119 37.6095 159.343 37.1808 161.751 37.1808C163.873 37.1808 165.852 37.5891 167.688 38.4059C169.525 39.2226 171.116 40.3456 172.463 41.7749C173.81 43.1633 174.83 44.8376 175.524 46.7978C176.258 48.7171 176.605 50.8202 176.564 53.107L176.503 55.741H150.365L148.957 50.5956H170.198L169.219 51.6369V50.2893C169.096 49.0234 168.688 47.9208 167.994 46.9815C167.301 46.0014 166.403 45.246 165.301 44.7151C164.24 44.1434 163.057 43.8575 161.751 43.8575C159.751 43.8575 158.058 44.2455 156.67 45.0214C155.323 45.7973 154.303 46.9203 153.609 48.3904C152.916 49.8197 152.569 51.6165 152.569 53.7808C152.569 55.8635 152.997 57.6807 153.854 59.2325C154.752 60.7843 155.997 61.989 157.588 62.8465C159.221 63.6633 161.118 64.0716 163.281 64.0716C164.791 64.0716 166.178 63.8266 167.443 63.3366C168.709 62.8465 170.076 61.9685 171.545 60.7026L175.279 65.9093C174.177 66.9302 172.912 67.8082 171.484 68.5432C170.096 69.2374 168.627 69.7887 167.076 70.1971C165.525 70.6055 163.995 70.8096 162.485 70.8096Z" fill="#212529"/>
<path d="M187.334 70.1971V37.9158H194.863V70.1971H187.334ZM191.007 31.0553C189.497 31.0553 188.313 30.6877 187.456 29.9527C186.64 29.1768 186.232 28.0946 186.232 26.7062C186.232 25.3994 186.66 24.3377 187.517 23.5209C188.374 22.7042 189.537 22.2958 191.007 22.2958C192.557 22.2958 193.741 22.6838 194.557 23.4597C195.414 24.1947 195.842 25.2769 195.842 26.7062C195.842 27.9721 195.414 29.0135 194.557 29.8302C193.7 30.6469 192.516 31.0553 191.007 31.0553Z" fill="#212529"/>
<path d="M218.428 70.8096C215.571 70.8096 213 70.34 210.715 69.4008C208.471 68.4207 206.634 67.0323 205.206 65.2355L210.103 61.0089C211.327 62.3973 212.694 63.3978 214.204 64.0104C215.714 64.6229 217.306 64.9292 218.979 64.9292C219.673 64.9292 220.285 64.8475 220.815 64.6842C221.387 64.5208 221.876 64.2758 222.284 63.9491C222.692 63.6224 222.999 63.2549 223.203 62.8465C223.447 62.3973 223.57 61.9073 223.57 61.3764C223.57 60.3963 223.203 59.6204 222.468 59.0487C222.06 58.7629 221.407 58.4566 220.509 58.1299C219.652 57.8032 218.53 57.4765 217.143 57.1498C214.939 56.5781 213.102 55.9247 211.633 55.1897C210.164 54.4138 209.022 53.5562 208.205 52.617C207.512 51.8411 206.981 50.9631 206.614 49.983C206.287 49.0029 206.124 47.9412 206.124 46.7978C206.124 45.3685 206.43 44.0821 207.042 42.9387C207.695 41.7544 208.573 40.7335 209.675 39.876C210.776 39.0184 212.062 38.365 213.531 37.9158C215 37.4666 216.53 37.242 218.122 37.242C219.754 37.242 221.325 37.4462 222.835 37.8546C224.386 38.2629 225.814 38.8551 227.12 39.631C228.467 40.366 229.609 41.2644 230.548 42.3262L226.386 46.9203C225.61 46.1852 224.753 45.5318 223.815 44.9601C222.917 44.3884 221.999 43.9392 221.06 43.6125C220.122 43.245 219.244 43.0612 218.428 43.0612C217.653 43.0612 216.959 43.1429 216.347 43.3062C215.735 43.4288 215.224 43.6329 214.816 43.9188C214.408 44.2046 214.082 44.5722 213.837 45.0214C213.633 45.4297 213.531 45.9198 213.531 46.4915C213.572 46.9815 213.694 47.4511 213.898 47.9003C214.143 48.3087 214.47 48.6558 214.878 48.9417C215.327 49.2275 216 49.5542 216.898 49.9218C217.795 50.2893 218.958 50.6364 220.387 50.9631C222.386 51.494 224.06 52.0861 225.406 52.7395C226.753 53.3929 227.814 54.1483 228.589 55.0059C229.365 55.741 229.916 56.5985 230.242 57.5786C230.568 58.5587 230.732 59.6409 230.732 60.8251C230.732 62.7444 230.181 64.4596 229.079 65.9705C228.018 67.4815 226.549 68.6657 224.672 69.5233C222.835 70.3809 220.754 70.8096 218.428 70.8096Z" fill="#212529"/>
<path d="M251.382 70.8096C248.525 70.8096 245.954 70.34 243.669 69.4008C241.425 68.4207 239.588 67.0323 238.16 65.2355L243.057 61.0089C244.281 62.3973 245.648 63.3978 247.158 64.0104C248.668 64.6229 250.26 64.9292 251.933 64.9292C252.627 64.9292 253.239 64.8475 253.769 64.6842C254.341 64.5208 254.83 64.2758 255.238 63.9491C255.646 63.6224 255.952 63.2549 256.157 62.8465C256.401 62.3973 256.524 61.9073 256.524 61.3764C256.524 60.3963 256.157 59.6204 255.422 59.0487C255.014 58.7629 254.361 58.4566 253.463 58.1299C252.606 57.8032 251.484 57.4765 250.096 57.1498C247.893 56.5781 246.056 55.9247 244.587 55.1897C243.118 54.4138 241.976 53.5562 241.159 52.617C240.466 51.8411 239.935 50.9631 239.568 49.983C239.241 49.0029 239.078 47.9412 239.078 46.7978C239.078 45.3685 239.384 44.0821 239.996 42.9387C240.649 41.7544 241.527 40.7335 242.629 39.876C243.73 39.0184 245.016 38.365 246.485 37.9158C247.954 37.4666 249.484 37.242 251.076 37.242C252.708 37.242 254.279 37.4462 255.789 37.8546C257.34 38.2629 258.768 38.8551 260.074 39.631C261.421 40.366 262.563 41.2644 263.502 42.3262L259.34 46.9203C258.564 46.1852 257.707 45.5318 256.769 44.9601C255.871 44.3884 254.953 43.9392 254.014 43.6125C253.076 43.245 252.198 43.0612 251.382 43.0612C250.607 43.0612 249.913 43.1429 249.301 43.3062C248.689 43.4288 248.178 43.6329 247.77 43.9188C247.362 44.2046 247.036 44.5722 246.791 45.0214C246.587 45.4297 246.485 45.9198 246.485 46.4915C246.526 46.9815 246.648 47.4511 246.852 47.9003C247.097 48.3087 247.424 48.6558 247.832 48.9417C248.281 49.2275 248.954 49.5542 249.852 49.9218C250.749 50.2893 251.912 50.6364 253.341 50.9631C255.34 51.494 257.014 52.0861 258.36 52.7395C259.707 53.3929 260.768 54.1483 261.543 55.0059C262.319 55.741 262.87 56.5985 263.196 57.5786C263.522 58.5587 263.686 59.6409 263.686 60.8251C263.686 62.7444 263.135 64.4596 262.033 65.9705C260.972 67.4815 259.503 68.6657 257.626 69.5233C255.789 70.3809 253.708 70.8096 251.382 70.8096Z" fill="#212529"/>
<path d="M288.682 70.8096C285.295 70.8096 282.296 70.095 279.684 68.6657C277.113 67.2364 275.093 65.2967 273.624 62.8465C272.195 60.3555 271.481 57.5174 271.481 54.3321C271.481 51.8002 271.889 49.493 272.706 47.4103C273.522 45.3276 274.644 43.5308 276.072 42.0199C277.541 40.4681 279.276 39.2838 281.275 38.4671C283.316 37.6095 285.54 37.1808 287.947 37.1808C290.07 37.1808 292.049 37.5891 293.885 38.4059C295.722 39.2226 297.313 40.3456 298.66 41.7749C300.006 43.1633 301.027 44.8376 301.72 46.7978C302.455 48.7171 302.802 50.8202 302.761 53.107L302.7 55.741H276.562L275.154 50.5956H296.395L295.415 51.6369V50.2893C295.293 49.0234 294.885 47.9208 294.191 46.9815C293.497 46.0014 292.6 45.246 291.498 44.7151C290.437 44.1434 289.253 43.8575 287.947 43.8575C285.948 43.8575 284.254 44.2455 282.867 45.0214C281.52 45.7973 280.5 46.9203 279.806 48.3904C279.112 49.8197 278.766 51.6165 278.766 53.7808C278.766 55.8635 279.194 57.6807 280.051 59.2325C280.949 60.7843 282.193 61.989 283.785 62.8465C285.417 63.6633 287.315 64.0716 289.478 64.0716C290.988 64.0716 292.375 63.8266 293.64 63.3366C294.905 62.8465 296.272 61.9685 297.742 60.7026L301.476 65.9093C300.374 66.9302 299.109 67.8082 297.68 68.5432C296.293 69.2374 294.824 69.7887 293.273 70.1971C291.722 70.6055 290.192 70.8096 288.682 70.8096Z" fill="#212529"/>
<path d="M312.674 70.1971V37.9158H320.019L320.142 44.5313L318.734 45.2664C319.142 43.7963 319.938 42.4691 321.121 41.2848C322.304 40.0597 323.712 39.0797 325.345 38.3446C326.977 37.6095 328.65 37.242 330.364 37.242C332.813 37.242 334.853 37.7321 336.485 38.7121C338.159 39.6922 339.403 41.1623 340.219 43.1225C341.076 45.0826 341.505 47.5328 341.505 50.473V70.1971H333.976V51.0243C333.976 49.3909 333.751 48.0433 333.302 46.9815C332.853 45.8789 332.16 45.0826 331.221 44.5926C330.283 44.0617 329.14 43.8167 327.793 43.8575C326.691 43.8575 325.671 44.0413 324.733 44.4088C323.835 44.7355 323.039 45.2256 322.345 45.8789C321.692 46.4915 321.162 47.2061 320.754 48.0229C320.386 48.8396 320.203 49.738 320.203 50.7181V70.1971H316.469C315.734 70.1971 315.041 70.1971 314.388 70.1971C313.775 70.1971 313.204 70.1971 312.674 70.1971Z" fill="#212529"/>
</svg>
