<svg width="255" height="66" viewBox="0 0 255 66" fill="none" xmlns="http://www.w3.org/2000/svg">
<g clip-path="url(#clip0_948_734)">
<path fill-rule="evenodd" clip-rule="evenodd" d="M35.6982 0C35.6982 0 36.3106 3.20789 38.4054 5.43118C40.2528 7.39855 43.2571 8.33433 43.6747 8.4644C43.7088 8.47502 43.7256 8.48027 43.7232 8.48027V28.077C41.6605 28.077 40.0169 29.6968 40.0169 31.7296C40.0169 33.7623 41.6928 35.3821 43.7232 35.3821V43.8624C41.6605 43.8624 40.0169 45.514 40.0169 47.5149C40.0169 49.5476 41.6928 51.1675 43.7232 51.1675V52.6603C43.7232 59.9018 37.922 65.7777 30.6383 66L7.02128 66C7.02128 57.4418 13.9506 50.4803 22.4693 50.4803H26.1882C28.5101 50.4803 30.4314 48.6699 30.6227 46.3848C28.2943 47.1741 25.7952 47.5962 23.2021 47.5962C10.3723 47.5962 0 37.2411 0 24.4327C0 11.6243 10.4043 1.26923 23.2021 1.26923C25.801 1.26923 28.3055 1.69316 30.6383 2.47488V0H35.6982ZM30.6383 22.3355C29.7269 19.0905 26.7501 16.7222 23.2021 16.7222C18.9255 16.7222 15.4787 20.1632 15.4787 24.4327C15.4787 28.7022 18.9255 32.1432 23.2021 32.1432C26.7501 32.1432 29.7269 29.7529 30.6383 26.5187V22.3355Z" fill="white"/>
<path d="M84.0778 34.4292C81.775 34.4292 79.6472 34.0379 77.6942 33.2554C75.7412 32.444 74.036 31.3282 72.5786 29.9082C71.1503 28.4881 70.0426 26.8362 69.2556 24.9524C68.4686 23.0397 68.075 20.9676 68.075 18.7361C68.075 16.5335 68.4686 14.4904 69.2556 12.6066C70.0717 10.6939 71.2086 9.042 72.666 7.65093C74.1234 6.23087 75.8287 5.1296 77.7816 4.34712C79.7638 3.56464 81.8916 3.1734 84.1653 3.1734C85.7684 3.1734 87.3133 3.39075 88.7999 3.82547C90.2865 4.26018 91.6274 4.86877 92.8225 5.65125C94.0176 6.43373 95.0087 7.31765 95.7957 8.30299L92.2104 12.0415C91.3942 11.259 90.5489 10.607 89.6744 10.0853C88.8291 9.56366 87.94 9.15793 87.0073 8.86812C86.0745 8.57831 85.1126 8.43341 84.1215 8.43341C82.6641 8.43341 81.3087 8.69423 80.0553 9.21589C78.831 9.73754 77.7525 10.4621 76.8197 11.3894C75.9161 12.3168 75.202 13.4036 74.6773 14.6498C74.1526 15.896 73.8903 17.2581 73.8903 18.7361C73.8903 20.1561 74.1526 21.5037 74.6773 22.7789C75.2311 24.054 75.989 25.1698 76.9509 26.1262C77.9128 27.0825 79.0205 27.836 80.2739 28.3867C81.5564 28.9083 82.9119 29.1691 84.3401 29.1691C85.4187 29.1691 86.4243 29.0098 87.3571 28.691C88.2898 28.3722 89.1206 27.9375 89.8493 27.3868C90.578 26.8072 91.1318 26.1407 91.5108 25.3872C91.9189 24.6337 92.1229 23.8222 92.1229 22.9528V21.9964L92.9099 22.9093H83.8592V17.8666H97.7195C97.7778 18.1854 97.8215 18.5477 97.8507 18.9534C97.8798 19.3302 97.8944 19.7069 97.8944 20.0837C97.9236 20.4314 97.9381 20.7357 97.9381 20.9966C97.9381 22.9962 97.5883 24.822 96.8888 26.4739C96.1892 28.0969 95.1981 29.5024 93.9156 30.6906C92.6622 31.8789 91.1901 32.8062 89.4995 33.4728C87.838 34.1104 86.0308 34.4292 84.0778 34.4292Z" fill="white"/>
<path d="M116.061 34.4292C113.641 34.4292 111.499 33.922 109.633 32.9077C107.797 31.8933 106.354 30.5168 105.305 28.7779C104.285 27.0101 103.775 24.9959 103.775 22.7354C103.775 20.9386 104.066 19.3012 104.649 17.8232C105.232 16.3452 106.034 15.07 107.054 13.9977C108.103 12.8964 109.342 12.056 110.77 11.4764C112.228 10.8678 113.816 10.5635 115.536 10.5635C117.052 10.5635 118.466 10.8533 119.777 11.4329C121.089 12.0125 122.226 12.8095 123.188 13.8238C124.15 14.8092 124.878 15.9974 125.374 17.3885C125.899 18.7506 126.146 20.2431 126.117 21.866L126.073 23.7353H107.404L106.398 20.0837H121.57L120.87 20.8227V19.8663C120.783 18.9679 120.491 18.1854 119.996 17.5189C119.5 16.8233 118.859 16.2872 118.072 15.9104C117.314 15.5047 116.469 15.3018 115.536 15.3018C114.108 15.3018 112.898 15.5772 111.907 16.1278C110.945 16.6784 110.216 17.4754 109.721 18.5187C109.225 19.533 108.978 20.8082 108.978 22.3442C108.978 23.8222 109.284 25.1118 109.896 26.2131C110.537 27.3144 111.426 28.1693 112.563 28.7779C113.729 29.3575 115.084 29.6473 116.629 29.6473C117.708 29.6473 118.699 29.4734 119.602 29.1257C120.506 28.7779 121.482 28.1548 122.532 27.2564L125.199 30.9515C124.412 31.676 123.508 32.2991 122.488 32.8207C121.497 33.3134 120.448 33.7046 119.34 33.9944C118.232 34.2843 117.139 34.4292 116.061 34.4292Z" fill="white"/>
<path d="M133.81 33.9944V11.0851H139.188V33.9944H133.81ZM136.433 6.21638C135.355 6.21638 134.509 5.95555 133.897 5.4339C133.314 4.88326 133.023 4.11527 133.023 3.12993C133.023 2.20254 133.329 1.44904 133.941 0.869425C134.553 0.289808 135.384 0 136.433 0C137.541 0 138.386 0.275318 138.969 0.825955C139.581 1.34761 139.887 2.1156 139.887 3.12993C139.887 4.02833 139.581 4.76734 138.969 5.34695C138.357 5.92657 137.512 6.21638 136.433 6.21638Z" fill="white"/>
<path d="M156.02 34.4292C153.979 34.4292 152.143 34.0959 150.511 33.4293C148.908 32.7338 147.596 31.7484 146.576 30.4733L150.074 27.4738C150.948 28.4591 151.924 29.1691 153.003 29.6039C154.081 30.0386 155.218 30.2559 156.413 30.2559C156.909 30.2559 157.346 30.198 157.725 30.082C158.133 29.9661 158.483 29.7922 158.774 29.5604C159.066 29.3285 159.285 29.0677 159.43 28.7779C159.605 28.4591 159.693 28.1114 159.693 27.7346C159.693 27.0391 159.43 26.4884 158.906 26.0827C158.614 25.8798 158.148 25.6625 157.506 25.4306C156.894 25.1988 156.093 24.9669 155.102 24.7351C153.528 24.3294 152.216 23.8657 151.167 23.344C150.117 22.7934 149.301 22.1848 148.718 21.5182C148.223 20.9676 147.844 20.3445 147.581 19.649C147.348 18.9534 147.231 18.1999 147.231 17.3885C147.231 16.3741 147.45 15.4612 147.887 14.6498C148.354 13.8093 148.98 13.0848 149.767 12.4762C150.554 11.8676 151.473 11.4039 152.522 11.0851C153.571 10.7664 154.664 10.607 155.801 10.607C156.967 10.607 158.089 10.7519 159.168 11.0417C160.276 11.3315 161.296 11.7517 162.229 12.3023C163.191 12.824 164.007 13.4616 164.677 14.2151L161.704 17.4754C161.15 16.9538 160.538 16.4901 159.868 16.0843C159.226 15.6786 158.57 15.3598 157.9 15.128C157.23 14.8671 156.603 14.7367 156.02 14.7367C155.466 14.7367 154.971 14.7947 154.533 14.9106C154.096 14.9976 153.732 15.1425 153.44 15.3453C153.149 15.5482 152.916 15.809 152.741 16.1278C152.595 16.4176 152.522 16.7654 152.522 17.1711C152.551 17.5189 152.639 17.8522 152.784 18.1709C152.959 18.4608 153.192 18.7071 153.484 18.91C153.805 19.1128 154.286 19.3447 154.927 19.6055C155.568 19.8663 156.399 20.1127 157.419 20.3445C158.847 20.7213 160.042 21.1415 161.004 21.6052C161.966 22.0689 162.724 22.605 163.278 23.2136C163.832 23.7353 164.225 24.3439 164.459 25.0394C164.692 25.7349 164.808 26.5029 164.808 27.3434C164.808 28.7055 164.415 29.9226 163.628 30.9949C162.87 32.0672 161.821 32.9077 160.48 33.5163C159.168 34.1249 157.681 34.4292 156.02 34.4292Z" fill="white"/>
<path d="M179.558 34.4292C177.518 34.4292 175.682 34.0959 174.049 33.4293C172.446 32.7338 171.134 31.7484 170.114 30.4733L173.612 27.4738C174.487 28.4591 175.463 29.1691 176.542 29.6039C177.62 30.0386 178.757 30.2559 179.952 30.2559C180.447 30.2559 180.885 30.198 181.264 30.082C181.672 29.9661 182.022 29.7922 182.313 29.5604C182.605 29.3285 182.823 29.0677 182.969 28.7779C183.144 28.4591 183.231 28.1114 183.231 27.7346C183.231 27.0391 182.969 26.4884 182.444 26.0827C182.153 25.8798 181.686 25.6625 181.045 25.4306C180.433 25.1988 179.631 24.9669 178.64 24.7351C177.066 24.3294 175.755 23.8657 174.705 23.344C173.656 22.7934 172.84 22.1848 172.257 21.5182C171.761 20.9676 171.382 20.3445 171.12 19.649C170.887 18.9534 170.77 18.1999 170.77 17.3885C170.77 16.3741 170.989 15.4612 171.426 14.6498C171.892 13.8093 172.519 13.0848 173.306 12.4762C174.093 11.8676 175.011 11.4039 176.061 11.0851C177.11 10.7664 178.203 10.607 179.34 10.607C180.506 10.607 181.628 10.7519 182.707 11.0417C183.814 11.3315 184.834 11.7517 185.767 12.3023C186.729 12.824 187.545 13.4616 188.216 14.2151L185.242 17.4754C184.689 16.9538 184.077 16.4901 183.406 16.0843C182.765 15.6786 182.109 15.3598 181.439 15.128C180.768 14.8671 180.141 14.7367 179.558 14.7367C179.005 14.7367 178.509 14.7947 178.072 14.9106C177.635 14.9976 177.27 15.1425 176.979 15.3453C176.687 15.5482 176.454 15.809 176.279 16.1278C176.133 16.4176 176.061 16.7654 176.061 17.1711C176.09 17.5189 176.177 17.8522 176.323 18.1709C176.498 18.4608 176.731 18.7071 177.022 18.91C177.343 19.1128 177.824 19.3447 178.465 19.6055C179.107 19.8663 179.937 20.1127 180.958 20.3445C182.386 20.7213 183.581 21.1415 184.543 21.6052C185.505 22.0689 186.263 22.605 186.817 23.2136C187.37 23.7353 187.764 24.3439 187.997 25.0394C188.23 25.7349 188.347 26.5029 188.347 27.3434C188.347 28.7055 187.953 29.9226 187.166 30.9949C186.408 32.0672 185.359 32.9077 184.018 33.5163C182.707 34.1249 181.22 34.4292 179.558 34.4292Z" fill="white"/>
<path d="M206.201 34.4292C203.782 34.4292 201.64 33.922 199.774 32.9077C197.938 31.8933 196.495 30.5168 195.445 28.7779C194.425 27.0101 193.915 24.9959 193.915 22.7354C193.915 20.9386 194.207 19.3012 194.79 17.8232C195.373 16.3452 196.174 15.07 197.194 13.9977C198.244 12.8964 199.483 12.056 200.911 11.4764C202.368 10.8678 203.957 10.5635 205.677 10.5635C207.192 10.5635 208.606 10.8533 209.918 11.4329C211.23 12.0125 212.366 12.8095 213.328 13.8238C214.29 14.8092 215.019 15.9974 215.514 17.3885C216.039 18.7506 216.287 20.2431 216.258 21.866L216.214 23.7353H197.544L196.538 20.0837H211.711L211.011 20.8227V19.8663C210.924 18.9679 210.632 18.1854 210.136 17.5189C209.641 16.8233 209 16.2872 208.213 15.9104C207.455 15.5047 206.609 15.3018 205.677 15.3018C204.248 15.3018 203.039 15.5772 202.048 16.1278C201.086 16.6784 200.357 17.4754 199.861 18.5187C199.366 19.533 199.118 20.8082 199.118 22.3442C199.118 23.8222 199.424 25.1118 200.036 26.2131C200.678 27.3144 201.567 28.1693 202.704 28.7779C203.869 29.3575 205.225 29.6473 206.77 29.6473C207.848 29.6473 208.839 29.4734 209.743 29.1257C210.647 28.7779 211.623 28.1548 212.672 27.2564L215.34 30.9515C214.553 31.676 213.649 32.2991 212.629 32.8207C211.638 33.3134 210.588 33.7046 209.481 33.9944C208.373 34.2843 207.28 34.4292 206.201 34.4292Z" fill="white"/>
<path d="M223.338 33.9944V11.0851H228.585L228.672 15.78L227.667 16.3017C227.958 15.2584 228.527 14.3165 229.372 13.4761C230.217 12.6066 231.223 11.9111 232.389 11.3894C233.555 10.8678 234.75 10.607 235.974 10.607C237.723 10.607 239.181 10.9547 240.347 11.6503C241.542 12.3458 242.431 13.3891 243.014 14.7802C243.626 16.1713 243.932 17.9101 243.932 19.9967V33.9944H238.554V20.388C238.554 19.2287 238.394 18.2724 238.073 17.5189C237.752 16.7364 237.257 16.1713 236.586 15.8235C235.916 15.4468 235.1 15.2729 234.138 15.3018C233.351 15.3018 232.622 15.4323 231.952 15.6931C231.31 15.9249 230.742 16.2727 230.247 16.7364C229.78 17.1711 229.401 17.6783 229.11 18.2579C228.847 18.8375 228.716 19.4751 228.716 20.1706V33.9944H226.049C225.524 33.9944 225.029 33.9944 224.562 33.9944C224.125 33.9944 223.717 33.9944 223.338 33.9944Z" fill="white"/>
<path d="M70.3404 60.2021V49.0319H71.1383V59.4043H76.6117V60.2021H70.3404ZM82.3341 60.3617C81.5362 60.3617 80.8234 60.1809 80.1958 59.8192C79.5788 59.4575 79.0947 58.9521 78.7437 58.3032C78.3926 57.6543 78.2171 56.899 78.2171 56.0373C78.2171 55.4096 78.3128 54.8351 78.5043 54.3138C78.7064 53.7926 78.983 53.3404 79.3341 52.9575C79.6851 52.5638 80.1054 52.2607 80.5947 52.0479C81.0947 51.8351 81.6373 51.7287 82.2224 51.7287C82.7968 51.7287 83.3128 51.8245 83.7703 52.016C84.2383 52.2075 84.632 52.4841 84.9511 52.8458C85.2703 53.1968 85.5096 53.617 85.6692 54.1064C85.8288 54.5851 85.8979 55.117 85.8766 55.7021L85.8607 56.133H78.8075V55.399H85.4298L85.0788 55.6862V55.3032C85.0788 54.8777 84.9724 54.4521 84.7596 54.0266C84.5575 53.6011 84.2437 53.2447 83.8181 52.9575C83.3926 52.6702 82.8554 52.5266 82.2064 52.5266C81.6 52.5266 81.0575 52.6596 80.5788 52.9256C80.1107 53.1915 79.7383 53.5798 79.4617 54.0904C79.1958 54.6011 79.0628 55.2341 79.0628 55.9894C79.0628 56.7128 79.1958 57.3458 79.4617 57.8883C79.7277 58.4202 80.1107 58.8351 80.6107 59.133C81.1213 59.4202 81.7437 59.5639 82.4777 59.5639C82.8713 59.5639 83.2756 59.5 83.6905 59.3724C84.1054 59.2447 84.5734 58.9681 85.0947 58.5426L85.5096 59.133C85.2756 59.3564 84.999 59.5639 84.6798 59.7553C84.3607 59.9362 84.0043 60.0851 83.6107 60.2021C83.2171 60.3085 82.7915 60.3617 82.3341 60.3617ZM91.6379 60.3617C90.8826 60.3617 90.207 60.1756 89.6113 59.8032C89.0156 59.4309 88.5422 58.9202 88.1911 58.2713C87.8507 57.6224 87.6805 56.883 87.6805 56.0532C87.6805 55.2128 87.856 54.4681 88.207 53.8192C88.5687 53.1702 89.0475 52.6596 89.6432 52.2873C90.239 51.9149 90.9039 51.7287 91.6379 51.7287C92.0634 51.7287 92.4677 51.7926 92.8507 51.9202C93.2336 52.0479 93.5794 52.2287 93.8879 52.4628C94.1964 52.6862 94.4624 52.9521 94.6858 53.2607C94.9092 53.5692 95.0688 53.9043 95.1645 54.266L94.8453 54.0585L94.9251 51.9043H95.6911V60.2021H94.8932V58.1277L95.1645 57.8245C95.0688 58.1756 94.9092 58.5053 94.6858 58.8139C94.4624 59.1224 94.1964 59.3936 93.8879 59.6277C93.5794 59.8617 93.2336 60.0426 92.8507 60.1702C92.4677 60.2979 92.0634 60.3617 91.6379 60.3617ZM91.7496 59.5639C92.356 59.5639 92.8985 59.4149 93.3773 59.117C93.8666 58.8085 94.2496 58.3936 94.5262 57.8724C94.8134 57.3404 94.957 56.7287 94.957 56.0373C94.957 55.3564 94.8188 54.7553 94.5422 54.2341C94.2656 53.7021 93.8826 53.2873 93.3932 52.9894C92.9145 52.6809 92.3666 52.5266 91.7496 52.5266C91.1219 52.5266 90.5634 52.6809 90.0741 52.9894C89.5953 53.2873 89.2177 53.7021 88.9411 54.2341C88.6645 54.7553 88.5262 55.3564 88.5262 56.0373C88.5262 56.7075 88.6592 57.3085 88.9251 57.8404C89.2017 58.3724 89.5794 58.7926 90.0581 59.1011C90.5475 59.4096 91.1113 59.5639 91.7496 59.5639ZM98.8734 60.2021V51.9043H99.6393L99.7191 53.7553H99.6074C99.7244 53.4043 99.9053 53.0745 100.15 52.766C100.395 52.4575 100.693 52.2075 101.044 52.016C101.405 51.8245 101.82 51.7287 102.288 51.7287C102.469 51.7287 102.634 51.7447 102.783 51.7766C102.943 51.7979 103.086 51.8245 103.214 51.8564L102.974 52.7819C102.825 52.7181 102.682 52.6756 102.544 52.6543C102.405 52.633 102.283 52.6224 102.177 52.6224C101.751 52.6224 101.379 52.6968 101.06 52.8458C100.751 52.9947 100.49 53.2021 100.278 53.4681C100.075 53.7234 99.9212 54.016 99.8148 54.3458C99.7191 54.6756 99.6712 55.0213 99.6712 55.383V60.2021H98.8734ZM105.22 60.2021V51.9043H105.986L106.066 53.6596H105.97C106.087 53.3085 106.3 52.9894 106.608 52.7021C106.917 52.4043 107.284 52.1702 107.709 52C108.146 51.8192 108.603 51.7287 109.082 51.7287C109.667 51.7287 110.162 51.8511 110.566 52.0958C110.981 52.3404 111.289 52.7181 111.491 53.2287C111.704 53.7394 111.81 54.3883 111.81 55.1756V60.2021H111.013V55.2075C111.013 54.5904 110.928 54.0851 110.757 53.6915C110.598 53.2873 110.358 52.9894 110.039 52.7979C109.72 52.5958 109.321 52.4947 108.842 52.4947C108.428 52.4947 108.05 52.5692 107.709 52.7181C107.369 52.8564 107.071 53.0479 106.816 53.2926C106.56 53.5373 106.364 53.8192 106.225 54.1383C106.087 54.4468 106.018 54.7766 106.018 55.1277V60.2021H105.619C105.608 60.2021 105.571 60.2021 105.507 60.2021C105.454 60.2021 105.358 60.2021 105.22 60.2021ZM115.618 60.3617C115.395 60.3617 115.219 60.2926 115.092 60.1543C114.975 60.016 114.916 59.8192 114.916 59.5639C114.916 59.3298 114.98 59.1383 115.108 58.9894C115.235 58.8404 115.405 58.766 115.618 58.766C115.842 58.766 116.012 58.8351 116.129 58.9734C116.257 59.1117 116.32 59.3085 116.32 59.5639C116.32 59.7979 116.257 59.9894 116.129 60.1383C116.001 60.2873 115.831 60.3617 115.618 60.3617ZM125.317 60.2021V49.0319H129.61C130.174 49.0319 130.674 49.1702 131.11 49.4468C131.557 49.7234 131.908 50.1064 132.163 50.5958C132.418 51.0745 132.546 51.6277 132.546 52.2553C132.546 52.9256 132.418 53.5213 132.163 54.0426C131.908 54.5532 131.557 54.9575 131.11 55.2553C130.674 55.5426 130.174 55.6862 129.61 55.6862H126.115V60.2021H125.317ZM126.115 54.8883H129.754C130.126 54.8883 130.456 54.7766 130.743 54.5532C131.041 54.3192 131.275 54.0053 131.445 53.6117C131.615 53.2075 131.7 52.7447 131.7 52.2234C131.7 51.766 131.615 51.3564 131.445 50.9947C131.275 50.633 131.041 50.3511 130.743 50.149C130.456 49.9362 130.126 49.8298 129.754 49.8298H126.115V54.8883ZM135.392 60.2021V48.3936H136.19V60.2021H135.392ZM142.548 60.3617C141.792 60.3617 141.117 60.1756 140.521 59.8032C139.925 59.4309 139.452 58.9202 139.101 58.2713C138.76 57.6224 138.59 56.883 138.59 56.0532C138.59 55.2128 138.766 54.4681 139.117 53.8192C139.478 53.1702 139.957 52.6596 140.553 52.2873C141.149 51.9149 141.813 51.7287 142.548 51.7287C142.973 51.7287 143.377 51.7926 143.76 51.9202C144.143 52.0479 144.489 52.2287 144.798 52.4628C145.106 52.6862 145.372 52.9521 145.595 53.2607C145.819 53.5692 145.978 53.9043 146.074 54.266L145.755 54.0585L145.835 51.9043H146.601V60.2021H145.803V58.1277L146.074 57.8245C145.978 58.1756 145.819 58.5053 145.595 58.8139C145.372 59.1224 145.106 59.3936 144.798 59.6277C144.489 59.8617 144.143 60.0426 143.76 60.1702C143.377 60.2979 142.973 60.3617 142.548 60.3617ZM142.659 59.5639C143.266 59.5639 143.808 59.4149 144.287 59.117C144.776 58.8085 145.159 58.3936 145.436 57.8724C145.723 57.3404 145.867 56.7287 145.867 56.0373C145.867 55.3564 145.728 54.7553 145.452 54.2341C145.175 53.7021 144.792 53.2873 144.303 52.9894C143.824 52.6809 143.276 52.5266 142.659 52.5266C142.032 52.5266 141.473 52.6809 140.984 52.9894C140.505 53.2873 140.127 53.7021 139.851 54.2341C139.574 54.7553 139.436 55.3564 139.436 56.0373C139.436 56.7075 139.569 57.3085 139.835 57.8404C140.111 58.3724 140.489 58.7926 140.968 59.1011C141.457 59.4096 142.021 59.5639 142.659 59.5639ZM151.016 63.8724L152.564 59.9309L152.74 60.8883L148.559 51.9043H149.404L152.484 58.5107C152.601 58.7447 152.702 58.9787 152.787 59.2128C152.883 59.4468 152.984 59.6862 153.091 59.9309L152.612 59.7394C152.676 59.5904 152.734 59.4415 152.787 59.2926C152.851 59.133 152.915 58.9787 152.979 58.8298L155.756 51.9043H156.601L153.298 60.2021L151.846 63.8724H151.016ZM158.747 60.3617C158.524 60.3617 158.349 60.2926 158.221 60.1543C158.104 60.016 158.045 59.8192 158.045 59.5639C158.045 59.3298 158.109 59.1383 158.237 58.9894C158.364 58.8404 158.535 58.766 158.747 58.766C158.971 58.766 159.141 58.8351 159.258 58.9734C159.386 59.1117 159.45 59.3085 159.45 59.5639C159.45 59.7979 159.386 59.9894 159.258 60.1383C159.13 60.2873 158.96 60.3617 158.747 60.3617ZM173.346 60.3617C172.516 60.3617 171.744 60.2234 171.032 59.9468C170.33 59.6596 169.713 59.266 169.181 58.766C168.659 58.2553 168.25 57.6543 167.952 56.9628C167.665 56.2607 167.521 55.4947 167.521 54.6649C167.521 53.8351 167.665 53.0745 167.952 52.383C168.239 51.6809 168.638 51.0745 169.149 50.5638C169.659 50.0532 170.26 49.6596 170.952 49.383C171.643 49.0958 172.388 48.9521 173.186 48.9521C173.75 48.9521 174.308 49.0373 174.861 49.2075C175.415 49.367 175.92 49.5904 176.377 49.8777C176.835 50.1543 177.197 50.4734 177.463 50.8351L176.92 51.3936C176.643 51.0745 176.298 50.7926 175.883 50.5479C175.478 50.3032 175.042 50.1117 174.574 49.9734C174.106 49.8245 173.654 49.75 173.218 49.75C172.537 49.75 171.899 49.8724 171.303 50.117C170.718 50.3617 170.202 50.7021 169.755 51.1383C169.319 51.5745 168.978 52.0958 168.734 52.7021C168.489 53.2979 168.367 53.9521 168.367 54.6649C168.367 55.3777 168.489 56.0319 168.734 56.6277C168.989 57.2234 169.346 57.7447 169.803 58.1915C170.26 58.6277 170.792 58.9681 171.399 59.2128C172.005 59.4468 172.665 59.5639 173.377 59.5639C173.973 59.5639 174.521 59.4787 175.021 59.3085C175.521 59.1277 175.952 58.8777 176.314 58.5585C176.686 58.2394 176.973 57.867 177.175 57.4415C177.377 57.016 177.478 56.5532 177.478 56.0532V55.2873L177.766 55.7021H173.361V54.9043H178.228C178.239 54.9575 178.244 55.0426 178.244 55.1596C178.255 55.266 178.26 55.383 178.26 55.5107C178.271 55.6383 178.276 55.75 178.276 55.8458C178.276 56.4947 178.149 57.0958 177.893 57.649C177.649 58.2021 177.298 58.6809 176.84 59.0851C176.393 59.4894 175.872 59.8032 175.276 60.0266C174.681 60.25 174.037 60.3617 173.346 60.3617ZM184.192 60.3617C183.437 60.3617 182.761 60.1756 182.165 59.8032C181.57 59.4309 181.096 58.9202 180.745 58.2713C180.405 57.6224 180.235 56.883 180.235 56.0532C180.235 55.2128 180.41 54.4681 180.761 53.8192C181.123 53.1702 181.602 52.6596 182.197 52.2873C182.793 51.9149 183.458 51.7287 184.192 51.7287C184.618 51.7287 185.022 51.7926 185.405 51.9202C185.788 52.0479 186.134 52.2287 186.442 52.4628C186.751 52.6862 187.017 52.9521 187.24 53.2607C187.463 53.5692 187.623 53.9043 187.719 54.266L187.4 54.0585L187.479 51.9043H188.245V60.2021H187.447V58.1277L187.719 57.8245C187.623 58.1756 187.463 58.5053 187.24 58.8139C187.017 59.1224 186.751 59.3936 186.442 59.6277C186.134 59.8617 185.788 60.0426 185.405 60.1702C185.022 60.2979 184.618 60.3617 184.192 60.3617ZM184.304 59.5639C184.91 59.5639 185.453 59.4149 185.931 59.117C186.421 58.8085 186.804 58.3936 187.08 57.8724C187.368 57.3404 187.511 56.7287 187.511 56.0373C187.511 55.3564 187.373 54.7553 187.096 54.2341C186.82 53.7021 186.437 53.2873 185.947 52.9894C185.469 52.6809 184.921 52.5266 184.304 52.5266C183.676 52.5266 183.118 52.6809 182.628 52.9894C182.15 53.2873 181.772 53.7021 181.495 54.2341C181.219 54.7553 181.08 55.3564 181.08 56.0373C181.08 56.7075 181.213 57.3085 181.479 57.8404C181.756 58.3724 182.134 58.7926 182.612 59.1011C183.102 59.4096 183.665 59.5639 184.304 59.5639ZM191.428 60.2021V51.9043H192.194L192.273 53.9149L192.082 53.883C192.178 53.5426 192.326 53.2394 192.529 52.9734C192.741 52.7075 192.986 52.4841 193.263 52.3032C193.55 52.1117 193.864 51.9681 194.204 51.8724C194.545 51.7766 194.906 51.7287 195.289 51.7287C195.694 51.7287 196.061 51.7979 196.39 51.9362C196.731 52.0745 197.023 52.3245 197.268 52.6862C197.513 53.0479 197.704 53.5585 197.842 54.2181L197.523 53.9947L197.635 53.7234C197.741 53.4681 197.896 53.2234 198.098 52.9894C198.3 52.7447 198.539 52.5319 198.816 52.3511C199.092 52.1596 199.401 52.0107 199.741 51.9043C200.092 51.7873 200.465 51.7287 200.858 51.7287C201.412 51.7287 201.885 51.8511 202.279 52.0958C202.672 52.3404 202.97 52.7181 203.172 53.2287C203.385 53.7394 203.491 54.3883 203.491 55.1756V60.2021H202.694V55.2075C202.694 54.5904 202.614 54.0851 202.454 53.6915C202.305 53.2873 202.076 52.9894 201.768 52.7979C201.47 52.5958 201.098 52.4947 200.651 52.4947C200.236 52.4947 199.858 52.5692 199.518 52.7181C199.178 52.8564 198.885 53.0479 198.64 53.2926C198.396 53.5373 198.204 53.8192 198.066 54.1383C197.928 54.4468 197.858 54.7766 197.858 55.1277V60.2021H197.061V55.2075C197.061 54.5904 196.981 54.0851 196.821 53.6915C196.672 53.2873 196.444 52.9894 196.135 52.7979C195.826 52.5958 195.449 52.4947 195.002 52.4947C194.598 52.4947 194.225 52.5692 193.885 52.7181C193.545 52.8564 193.252 53.0479 193.007 53.2926C192.763 53.5373 192.571 53.8192 192.433 54.1383C192.295 54.4468 192.225 54.7766 192.225 55.1277V60.2021H191.428ZM210.12 60.3617C209.322 60.3617 208.609 60.1809 207.981 59.8192C207.364 59.4575 206.88 58.9521 206.529 58.3032C206.178 57.6543 206.003 56.899 206.003 56.0373C206.003 55.4096 206.098 54.8351 206.29 54.3138C206.492 53.7926 206.769 53.3404 207.12 52.9575C207.471 52.5638 207.891 52.2607 208.38 52.0479C208.88 51.8351 209.423 51.7287 210.008 51.7287C210.582 51.7287 211.098 51.8245 211.556 52.016C212.024 52.2075 212.417 52.4841 212.737 52.8458C213.056 53.1968 213.295 53.617 213.455 54.1064C213.614 54.5851 213.683 55.117 213.662 55.7021L213.646 56.133H206.593V55.399H213.215L212.864 55.6862V55.3032C212.864 54.8777 212.758 54.4521 212.545 54.0266C212.343 53.6011 212.029 53.2447 211.604 52.9575C211.178 52.6702 210.641 52.5266 209.992 52.5266C209.386 52.5266 208.843 52.6596 208.364 52.9256C207.896 53.1915 207.524 53.5798 207.247 54.0904C206.981 54.6011 206.848 55.2341 206.848 55.9894C206.848 56.7128 206.981 57.3458 207.247 57.8883C207.513 58.4202 207.896 58.8351 208.396 59.133C208.907 59.4202 209.529 59.5639 210.263 59.5639C210.657 59.5639 211.061 59.5 211.476 59.3724C211.891 59.2447 212.359 58.9681 212.88 58.5426L213.295 59.133C213.061 59.3564 212.784 59.5639 212.465 59.7553C212.146 59.9362 211.79 60.0851 211.396 60.2021C211.003 60.3085 210.577 60.3617 210.12 60.3617ZM216.774 60.3617C216.551 60.3617 216.376 60.2926 216.248 60.1543C216.131 60.016 216.072 59.8192 216.072 59.5639C216.072 59.3298 216.136 59.1383 216.264 58.9894C216.391 58.8404 216.562 58.766 216.774 58.766C216.998 58.766 217.168 58.8351 217.285 58.9734C217.413 59.1117 217.477 59.3085 217.477 59.5639C217.477 59.7979 217.413 59.9894 217.285 60.1383C217.157 60.2873 216.987 60.3617 216.774 60.3617Z" fill="white"/>
</g>
<defs>
<clipPath id="clip0_948_734">
<rect width="255" height="66" fill="white"/>
</clipPath>
</defs>
</svg>
