<svg width="65" height="55" viewBox="0 0 65 55" fill="none" xmlns="http://www.w3.org/2000/svg">
<g clip-path="url(#clip0_632_353)">
<ellipse rx="30.7602" ry="23.7149" transform="matrix(0.984815 -0.173606 0.0191593 0.999816 32.0932 27.6955)" fill="url(#paint0_linear_632_353)"/>
<mask id="mask0_632_353" style="mask-type:alpha" maskUnits="userSpaceOnUse" x="1" y="3" width="62" height="50">
<ellipse rx="30.7602" ry="23.7149" transform="matrix(0.984815 -0.173606 0.0191593 0.999816 32.0932 27.6965)" fill="url(#paint1_linear_632_353)"/>
</mask>
<g mask="url(#mask0_632_353)">
<path fill-rule="evenodd" clip-rule="evenodd" d="M5.20656 16.4131C3.64023 17.6495 2.18247 18.9504 0.893366 20.3267C-0.409721 21.6933 -1.54743 23.1226 -2.49421 24.5811C-3.44098 26.0396 -4.19682 27.5273 -4.72219 29.0201C-5.25083 30.5004 -5.5597 31.9887 -5.6405 33.4293C-5.79882 36.3229 -5.02017 39.0324 -3.43191 41.3776C-2.64149 42.5579 -1.6501 43.6308 -0.493107 44.5924C0.663881 45.554 1.97903 46.4196 3.42111 47.1576C4.62462 47.772 5.94348 48.302 7.27151 48.7359C8.59954 49.1697 9.954 49.5295 11.232 49.8161C13.2934 50.2944 15.5822 50.5912 17.8391 50.7225C20.1068 50.851 22.3565 50.8236 24.3453 50.7189C25.9473 50.6242 27.4258 50.4956 28.8773 50.3074C30.3287 50.1192 31.7671 49.8809 33.2779 49.5697C36.4174 48.9156 39.5621 48.0192 42.5944 46.912C45.6266 45.8048 48.529 44.4647 51.197 42.9732C53.8757 41.4789 56.3168 39.8207 58.4443 38.0591C60.5719 36.2975 62.3892 34.445 63.8526 32.5536C65.6516 30.2375 66.7838 27.9127 67.3125 25.7765C67.8518 23.6375 67.7843 21.6744 67.3204 19.9916C67.2488 20.0242 67.2593 20.1954 67.178 20.0164C67.0397 19.3574 66.8057 18.8579 66.5757 18.5046C66.5195 18.6401 66.4461 18.7535 66.4203 18.9612C66.4678 19.2296 66.5169 19.4172 66.5554 19.6077C66.5938 19.7982 66.6397 19.9733 66.655 20.2503C66.5187 19.9923 66.4293 20.3509 66.4429 20.7087C66.5812 22.0236 66.578 23.323 66.3285 24.6883C65.9829 26.5612 65.2133 28.5211 64.0149 30.462C62.8305 32.4126 61.2312 34.3538 59.2434 36.2118C57.2697 38.0794 54.9075 39.8637 52.2434 41.5014C49.5793 43.1391 46.6068 44.6051 43.4295 45.8583C40.2522 47.1114 36.8637 48.1267 33.4138 48.8639C29.9639 49.6012 26.4386 50.0508 22.9878 50.1725C19.5477 50.2913 16.1854 50.0949 13.0647 49.5525C9.94394 49.0102 7.06811 48.1345 4.58943 46.9381C1.39091 45.3993 -1.05217 43.3769 -2.63301 41.0163C-4.21056 38.6682 -4.92258 35.9944 -4.73717 33.1604C-4.55919 30.3418 -3.46236 27.3572 -1.50458 24.423C0.453194 21.4887 3.27193 18.6049 6.80896 15.9702C8.39168 14.7964 10.1514 13.6421 12.0624 12.5409C13.9875 11.4493 16.0639 10.4109 18.2588 9.4746C22.6592 7.59912 27.5621 6.11103 32.5161 5.2116C34.9877 4.76332 37.474 4.45837 39.9074 4.30144C42.3409 4.14452 44.714 4.15099 46.9882 4.30447C49.2517 4.46082 51.4055 4.76704 53.4077 5.1942C55.4024 5.63674 57.2456 6.20024 58.8878 6.87114C59.7105 7.21285 60.2929 7.51187 60.8664 7.73298C60.4681 7.61216 60.9042 7.78978 61.0794 7.89007C61.7317 8.23729 62.3972 8.63454 63.0338 9.0529C63.6844 9.4809 64.2954 9.93289 64.8636 10.3964C66.0001 11.3233 66.8978 12.3008 67.4985 13.0634C67.7926 13.5736 68.2149 14.2234 68.6042 14.9223C68.9828 15.6239 69.3177 16.3775 69.5096 17.0222C69.4228 16.6037 69.2769 16.1341 69.0783 15.6385C68.8797 15.1429 68.6178 14.6241 68.327 14.1265C68.0362 13.6288 67.7026 13.1426 67.3714 12.7093C67.0402 12.276 66.7188 11.8803 66.4492 11.5509C66.2913 11.4728 66.4228 11.625 66.0956 11.3379C65.8917 11.0846 66.2273 11.3159 65.9354 11.0327C64.9783 10.1782 64.0433 9.45163 63.3789 8.83992C64.0929 9.2911 64.6126 9.70063 65.1175 10.1409C65.6191 10.5687 66.1025 11.0147 66.6937 11.5657C66.7997 11.7515 66.5004 11.4837 66.7634 11.788C66.9987 11.899 67.3069 12.2447 67.6003 12.6212C67.8937 12.9977 68.155 13.3828 68.382 13.5495C68.335 13.5889 68.5026 13.8786 68.6496 14.1337C68.7934 14.3763 68.938 14.5784 68.8913 14.4437C69.3092 15.2955 69.5545 15.9258 69.7499 16.4089C69.9452 16.892 70.069 17.2336 70.1477 17.5338C70.2276 17.4455 70.1877 17.1617 70.095 16.8519C70.0024 16.542 69.8506 16.1811 69.7571 15.9117C69.4896 15.1534 69.2478 14.3616 68.7792 13.8848C68.7999 13.7454 68.6586 13.5557 68.5238 13.391C68.389 13.2264 68.2575 13.0742 68.302 12.9819C68.1762 12.8952 68.0349 12.7055 67.8902 12.5033C67.7349 12.304 67.5796 12.1047 67.4151 12.0015C67.4439 11.9804 67.5114 11.9757 67.3347 11.7821C66.7905 11.1918 66.1657 10.5561 65.4618 9.96832C64.7686 9.37772 63.9823 8.82544 63.1935 8.39435C63.377 8.43886 62.9394 8.16795 62.4869 7.92779C62.0345 7.68762 61.5672 7.47822 61.7638 7.57277C61.1148 7.23806 60.2346 6.7645 59.3131 6.39572C58.9018 6.22486 58.3423 6.0134 57.7861 5.81443C57.2299 5.61547 56.6695 5.44439 56.2638 5.33894C55.3784 5.10774 54.3383 4.81091 53.1162 4.56285C50.2837 3.98343 47.2038 3.68447 44.0899 3.64898C41.0072 3.64527 37.8657 3.89826 34.9084 4.32945C33.159 4.51723 31.3534 4.84053 29.6136 5.2399C27.8738 5.63928 26.1965 6.10222 24.6616 6.54038C23.7657 6.79389 24.9357 6.49367 24.3033 6.70334C23.9188 6.76623 23.1472 7.01319 22.7684 7.14149C22.9685 7.07447 23.2287 7.01812 22.9676 7.11487C22.1235 7.43481 22.6762 7.13943 22.0075 7.38559C21.5035 7.56082 21.6204 7.56966 21.0983 7.76314L21.0745 7.71598C19.4472 8.32615 17.8009 8.99496 16.2063 9.7302C14.6011 10.4683 13.0337 11.2632 11.5468 12.1035C10.06 12.9437 8.65381 13.8293 7.35377 14.7266C6.05374 15.6238 4.87385 16.5424 3.81827 17.4545C4.04153 17.301 4.28052 17.0763 4.52279 16.8641C4.77162 16.6769 5.00973 16.4926 5.20656 16.4131ZM62.6263 8.37233C62.8262 8.47938 63.0187 8.60182 63.2005 8.72712C63.2061 8.79253 63.0202 8.69511 62.845 8.59482C62.6772 8.47916 62.5202 8.36063 62.6263 8.37233Z" fill="white"/>
<path fill-rule="evenodd" clip-rule="evenodd" d="M42.64 47.9207C44.7918 47.17 46.9388 46.3134 49.0209 45.3404C51.103 44.3674 53.1202 43.2779 55.0363 42.1085C56.9384 40.9294 58.7361 39.6578 60.3684 38.3235C62.0007 36.9891 63.4643 35.5795 64.737 34.1408C67.2792 31.2508 69.0082 28.2306 69.8546 25.34C70.2762 23.8884 70.4772 22.4692 70.464 21.1073C70.4509 19.7455 70.227 18.4535 69.8276 17.2354C69.4914 16.2145 68.9871 15.252 68.4029 14.3778C67.8188 13.5037 67.1514 12.7054 66.4855 12.0004C65.4176 10.8543 64.0319 9.80678 62.5217 8.93989C61.0115 8.073 59.3842 7.37135 57.8702 6.8401C56.6484 6.41797 55.4816 6.07478 54.2851 5.7931C53.0886 5.51142 51.8624 5.29125 50.5217 5.11514C47.7234 4.75409 44.7281 4.64665 41.6313 4.80737C38.5311 4.95559 35.3401 5.36911 32.1653 6.01924C28.9904 6.66936 25.849 7.57825 22.8489 8.67682C19.8489 9.77538 16.9827 11.079 14.3477 12.5215C11.113 14.2987 8.34563 16.2853 6.16677 18.2881C3.98791 20.291 2.38359 22.3005 1.28981 24.1598C1.35732 24.1551 1.51395 23.9659 1.42067 24.1783C0.968698 24.9018 0.70787 25.4804 0.581393 25.9159C0.743705 25.792 0.880459 25.7018 1.07991 25.5011C1.26712 25.21 1.39579 25.0015 1.51703 24.8084C1.64569 24.5999 1.76693 24.4068 1.97883 24.1224C1.85497 24.4367 2.22416 24.0968 2.51929 23.7366C3.53182 22.3542 4.61752 21.0325 5.94769 19.7256C7.77811 17.9232 9.97228 16.1973 12.4618 14.5931C14.9546 13.0013 17.732 11.5341 20.7142 10.2797C23.6963 9.02529 26.8906 7.96837 30.1644 7.17125C33.4382 6.37412 36.813 5.83105 40.1314 5.59757C43.4497 5.36409 46.7299 5.42196 49.8261 5.78346C52.9116 6.14783 55.8165 6.82833 58.381 7.82762C60.9422 8.81439 63.1738 10.1171 64.9458 11.6768C66.7177 13.2366 68.0333 15.0659 68.8021 17.0819C69.7925 19.681 69.8301 22.5355 68.9762 25.4415C68.1223 28.3476 66.3769 31.3052 63.8719 34.1183C61.3669 36.9314 58.0702 39.6087 54.206 41.9562C50.3417 44.3037 45.8992 46.3243 41.1477 47.8655C39.0256 48.5548 36.7991 49.1515 34.5003 49.6472C32.2122 50.14 29.8484 50.5192 27.4808 50.7522C22.7488 51.2307 18.0076 51.1494 13.705 50.4687C11.5521 50.1221 9.5228 49.6353 7.65999 48.9967C5.79718 48.3582 4.0934 47.5834 2.61201 46.6953C1.11992 45.8102 -0.163771 44.8023 -1.21852 43.7062C-2.28396 42.613 -3.11719 41.4442 -3.72563 40.2152C-4.0352 39.6021 -4.18769 39.1075 -4.42014 38.7013C-4.23772 38.9603 -4.39371 38.6273 -4.43304 38.4772C-4.60192 37.9201 -4.7518 37.3044 -4.85143 36.6618C-4.95106 36.0192 -5.01115 35.3526 -5.02187 34.6996C-5.04659 33.381 -4.86639 32.1012 -4.66106 31.1359C-4.44218 30.5284 -4.20495 29.7286 -3.87794 28.878C-3.55835 28.0427 -3.16711 27.1749 -2.76123 26.4503C-3.04413 26.901 -3.34275 27.4227 -3.61755 27.9917C-3.89236 28.5606 -4.13593 29.1613 -4.34411 29.7659C-4.55228 30.3705 -4.71764 30.9637 -4.85744 31.5232C-4.98654 32.0798 -5.08593 32.575 -5.16959 32.999C-5.11541 33.1183 -5.08636 32.9231 -5.09509 33.3271C-5.16957 33.6549 -5.20453 33.3028 -5.23052 33.6846C-5.27724 34.8617 -5.21103 35.9015 -5.25405 36.7429C-5.38819 36.056 -5.40721 35.4588 -5.40483 34.8557C-5.40244 34.2527 -5.36793 33.6411 -5.33409 32.8958C-5.25479 32.6738 -5.26265 33.0373 -5.19384 32.6441C-5.26441 32.4622 -5.20129 32.0035 -5.09535 31.5334C-4.9894 31.0633 -4.85463 30.572 -4.8708 30.3354C-4.79914 30.3028 -4.68184 29.9635 -4.57939 29.655C-4.47366 29.3589 -4.4042 29.0993 -4.4966 29.2714C-4.08134 28.2766 -3.72155 27.551 -3.45745 26.985C-3.17936 26.4285 -2.98298 26.0413 -2.79489 25.7097C-2.9382 25.7749 -3.13611 26.0689 -3.33163 26.4158C-3.52714 26.7627 -3.72768 27.1779 -3.8795 27.4729C-4.32011 28.3272 -4.82167 29.2112 -4.89244 29.8593C-5.02678 30.0024 -5.08139 30.2312 -5.12858 30.4447C-5.17576 30.6581 -5.21551 30.8562 -5.30945 30.9349C-5.28738 31.0628 -5.3527 31.2945 -5.41146 31.5512C-5.47349 31.7954 -5.51827 32.0617 -5.49708 32.2301C-5.53989 32.2415 -5.58927 32.228 -5.61591 32.4761C-5.72141 33.254 -5.81052 34.0944 -5.81072 34.9244C-5.81092 35.7544 -5.72221 36.5739 -5.52055 37.2561C-5.61427 37.1607 -5.54152 37.5696 -5.41524 37.9641C-5.29967 38.3614 -5.13712 38.7195 -5.19043 38.5597C-5.00014 39.1111 -4.78625 39.8837 -4.43889 40.5536C-4.27875 40.8587 -4.07099 41.2581 -3.83439 41.6365C-3.59779 42.0148 -3.34306 42.3749 -3.14251 42.6156C-2.70689 43.1414 -2.20966 43.7711 -1.54619 44.4232C-0.00711031 45.9249 1.94048 47.2368 4.13536 48.2682C6.33351 49.3121 8.79294 50.0852 11.265 50.6006C12.6689 50.974 14.235 51.2235 15.8243 51.3865C17.3996 51.5399 18.9874 51.6096 20.4582 51.6705C21.3126 51.6959 20.2286 51.625 20.8567 51.6173C21.1925 51.6745 21.9374 51.6757 22.3243 51.6657C22.1185 51.6673 21.8848 51.6496 22.1548 51.6308C23.0249 51.585 22.3802 51.7042 23.0693 51.6668C23.5697 51.6531 23.4998 51.6049 24.0324 51.5827L24.0134 51.6413C25.6862 51.5544 27.4314 51.3945 29.1924 51.1635C30.9534 50.9325 32.7441 50.6399 34.5226 50.257C36.2936 49.8894 38.045 49.4467 39.7232 48.9434C41.4153 48.4497 43.0343 47.8953 44.5406 47.3042C44.2548 47.3942 43.8933 47.5446 43.5359 47.6672C43.1711 47.8051 42.8458 47.9191 42.64 47.9207ZM-5.16774 37.5095C-5.21362 37.3344 -5.25207 37.144 -5.28725 36.966C-5.23613 36.8987 -5.18282 37.0585 -5.14022 37.2211C-5.1116 37.374 -5.10111 37.5452 -5.16774 37.5095Z" fill="white"/>
<path fill-rule="evenodd" clip-rule="evenodd" d="M55.9351 41.7099C55.6213 41.9543 54.9421 42.3769 54.5115 42.6125C54.3032 42.7352 54.1525 42.8156 54.1492 42.8031C54.1459 42.7906 54.304 42.6948 54.6811 42.4735C54.9075 42.3327 55.0187 42.2762 55.1875 42.1775C55.3456 42.0817 55.5432 41.9619 55.9351 41.7099Z" fill="white"/>
</g>
<path d="M35.719 20.625H28.2815C26.0502 20.625 24.5627 21.75 24.5627 24.375V29.625C24.5627 32.25 26.0502 33.375 28.2815 33.375H35.719C37.9502 33.375 39.4377 32.25 39.4377 29.625V24.375C39.4377 21.75 37.9502 20.625 35.719 20.625ZM36.0686 25.1925L33.7406 27.0675C33.2497 27.465 32.625 27.66 32.0002 27.66C31.3755 27.66 30.7433 27.465 30.2599 27.0675L27.9319 25.1925C27.6939 24.9975 27.6567 24.6375 27.8427 24.3975C28.0361 24.1575 28.3856 24.1125 28.6236 24.3075L30.9516 26.1825C31.5168 26.64 32.4762 26.64 33.0415 26.1825L35.3694 24.3075C35.6074 24.1125 35.9644 24.15 36.1504 24.3975C36.3437 24.6375 36.3066 24.9975 36.0686 25.1925Z" fill="white"/>
</g>
<defs>
<linearGradient id="paint0_linear_632_353" x1="-4.58362e-07" y1="23.7149" x2="61.5204" y2="23.7149" gradientUnits="userSpaceOnUse">
<stop stop-color="#E68E8E"/>
<stop offset="1" stop-color="#F15A5A"/>
</linearGradient>
<linearGradient id="paint1_linear_632_353" x1="-4.58362e-07" y1="23.7149" x2="61.5204" y2="23.7149" gradientUnits="userSpaceOnUse">
<stop stop-color="#E68E8E"/>
<stop offset="1" stop-color="#F15A5A"/>
</linearGradient>
<clipPath id="clip0_632_353">
<rect width="65" height="55" fill="white"/>
</clipPath>
</defs>
</svg>
