<svg width="65" height="55" viewBox="0 0 65 55" fill="none" xmlns="http://www.w3.org/2000/svg">
<g clip-path="url(#clip0_632_339)">
<ellipse rx="30.7602" ry="23.7149" transform="matrix(0.984815 -0.173606 0.0191593 0.999816 32.0932 27.6955)" fill="url(#paint0_linear_632_339)"/>
<mask id="mask0_632_339" style="mask-type:alpha" maskUnits="userSpaceOnUse" x="1" y="3" width="62" height="50">
<ellipse rx="30.7602" ry="23.7149" transform="matrix(0.984815 -0.173606 0.0191593 0.999816 32.0932 27.6965)" fill="url(#paint1_linear_632_339)"/>
</mask>
<g mask="url(#mask0_632_339)">
<path fill-rule="evenodd" clip-rule="evenodd" d="M5.20656 16.4131C3.64023 17.6495 2.18247 18.9504 0.893366 20.3267C-0.409721 21.6933 -1.54743 23.1226 -2.49421 24.5811C-3.44098 26.0396 -4.19682 27.5273 -4.72219 29.0201C-5.25083 30.5004 -5.5597 31.9887 -5.6405 33.4293C-5.79882 36.3229 -5.02017 39.0324 -3.43191 41.3776C-2.64149 42.5579 -1.6501 43.6308 -0.493107 44.5924C0.663881 45.554 1.97903 46.4196 3.42111 47.1576C4.62462 47.772 5.94348 48.302 7.27151 48.7359C8.59954 49.1697 9.954 49.5295 11.232 49.8161C13.2934 50.2944 15.5822 50.5912 17.8391 50.7225C20.1068 50.851 22.3565 50.8236 24.3453 50.7189C25.9473 50.6242 27.4258 50.4956 28.8773 50.3074C30.3287 50.1192 31.7671 49.8809 33.2779 49.5697C36.4174 48.9156 39.5621 48.0192 42.5944 46.912C45.6266 45.8048 48.529 44.4647 51.197 42.9732C53.8757 41.4789 56.3168 39.8207 58.4443 38.0591C60.5719 36.2975 62.3892 34.445 63.8526 32.5536C65.6516 30.2375 66.7838 27.9127 67.3125 25.7765C67.8518 23.6375 67.7843 21.6744 67.3204 19.9916C67.2488 20.0242 67.2593 20.1954 67.178 20.0164C67.0397 19.3574 66.8057 18.8579 66.5757 18.5046C66.5195 18.6401 66.4461 18.7535 66.4203 18.9612C66.4678 19.2296 66.5169 19.4172 66.5554 19.6077C66.5938 19.7982 66.6397 19.9733 66.655 20.2503C66.5187 19.9923 66.4293 20.3509 66.4429 20.7087C66.5812 22.0236 66.578 23.323 66.3285 24.6883C65.9829 26.5612 65.2133 28.5211 64.0149 30.462C62.8305 32.4126 61.2312 34.3538 59.2434 36.2118C57.2697 38.0794 54.9075 39.8637 52.2434 41.5014C49.5793 43.1391 46.6068 44.6051 43.4295 45.8583C40.2522 47.1114 36.8637 48.1267 33.4138 48.8639C29.9639 49.6012 26.4386 50.0508 22.9878 50.1725C19.5477 50.2913 16.1854 50.0949 13.0647 49.5525C9.94394 49.0102 7.06811 48.1345 4.58943 46.9381C1.39091 45.3993 -1.05217 43.3769 -2.63301 41.0163C-4.21056 38.6682 -4.92258 35.9944 -4.73717 33.1604C-4.55919 30.3418 -3.46236 27.3572 -1.50458 24.423C0.453194 21.4887 3.27193 18.6049 6.80896 15.9702C8.39168 14.7964 10.1514 13.6421 12.0624 12.5409C13.9875 11.4493 16.0639 10.4109 18.2588 9.4746C22.6592 7.59912 27.5621 6.11103 32.5161 5.2116C34.9877 4.76332 37.474 4.45837 39.9074 4.30144C42.3409 4.14452 44.714 4.15099 46.9882 4.30447C49.2517 4.46082 51.4055 4.76704 53.4077 5.1942C55.4024 5.63674 57.2456 6.20024 58.8878 6.87114C59.7105 7.21285 60.2929 7.51187 60.8664 7.73298C60.4681 7.61216 60.9042 7.78978 61.0794 7.89007C61.7317 8.23729 62.3972 8.63454 63.0338 9.0529C63.6844 9.4809 64.2954 9.93289 64.8636 10.3964C66.0001 11.3233 66.8978 12.3008 67.4985 13.0634C67.7926 13.5736 68.2149 14.2234 68.6042 14.9223C68.9828 15.6239 69.3177 16.3775 69.5096 17.0222C69.4228 16.6037 69.2769 16.1341 69.0783 15.6385C68.8797 15.1429 68.6178 14.6241 68.327 14.1265C68.0362 13.6288 67.7026 13.1426 67.3714 12.7093C67.0402 12.276 66.7188 11.8803 66.4492 11.5509C66.2913 11.4728 66.4228 11.625 66.0956 11.3379C65.8917 11.0846 66.2273 11.3159 65.9354 11.0327C64.9783 10.1782 64.0433 9.45163 63.3789 8.83992C64.0929 9.2911 64.6126 9.70063 65.1175 10.1409C65.6191 10.5687 66.1025 11.0147 66.6937 11.5657C66.7997 11.7515 66.5004 11.4837 66.7634 11.788C66.9987 11.899 67.3069 12.2447 67.6003 12.6212C67.8937 12.9977 68.155 13.3828 68.382 13.5495C68.335 13.5889 68.5026 13.8786 68.6496 14.1337C68.7934 14.3763 68.938 14.5784 68.8913 14.4437C69.3092 15.2955 69.5545 15.9258 69.7499 16.4089C69.9452 16.892 70.069 17.2336 70.1477 17.5338C70.2276 17.4455 70.1877 17.1617 70.095 16.8519C70.0024 16.542 69.8506 16.1811 69.7571 15.9117C69.4896 15.1534 69.2478 14.3616 68.7792 13.8848C68.7999 13.7454 68.6586 13.5557 68.5238 13.391C68.389 13.2264 68.2575 13.0742 68.302 12.9819C68.1762 12.8952 68.0349 12.7055 67.8902 12.5033C67.7349 12.304 67.5796 12.1047 67.4151 12.0015C67.4439 11.9804 67.5114 11.9757 67.3347 11.7821C66.7905 11.1918 66.1657 10.5561 65.4618 9.96832C64.7686 9.37772 63.9823 8.82544 63.1935 8.39435C63.377 8.43886 62.9394 8.16795 62.4869 7.92779C62.0345 7.68762 61.5672 7.47822 61.7638 7.57277C61.1148 7.23806 60.2346 6.7645 59.3131 6.39572C58.9018 6.22486 58.3423 6.0134 57.7861 5.81443C57.2299 5.61547 56.6695 5.44439 56.2638 5.33894C55.3784 5.10774 54.3383 4.81091 53.1162 4.56285C50.2837 3.98343 47.2038 3.68447 44.0899 3.64898C41.0072 3.64527 37.8657 3.89826 34.9084 4.32945C33.159 4.51723 31.3534 4.84053 29.6136 5.2399C27.8738 5.63928 26.1965 6.10222 24.6616 6.54038C23.7657 6.79389 24.9357 6.49367 24.3033 6.70334C23.9188 6.76623 23.1472 7.01319 22.7684 7.14149C22.9685 7.07447 23.2287 7.01812 22.9676 7.11487C22.1235 7.43481 22.6762 7.13943 22.0075 7.38559C21.5035 7.56082 21.6204 7.56966 21.0983 7.76314L21.0745 7.71598C19.4472 8.32615 17.8009 8.99496 16.2063 9.7302C14.6011 10.4683 13.0337 11.2632 11.5468 12.1035C10.06 12.9437 8.65381 13.8293 7.35377 14.7266C6.05374 15.6238 4.87385 16.5424 3.81827 17.4545C4.04153 17.301 4.28052 17.0763 4.52279 16.8641C4.77162 16.6769 5.00973 16.4926 5.20656 16.4131ZM62.6263 8.37233C62.8262 8.47938 63.0187 8.60182 63.2005 8.72712C63.2061 8.79253 63.0202 8.69511 62.845 8.59482C62.6772 8.47916 62.5202 8.36063 62.6263 8.37233Z" fill="white"/>
<path fill-rule="evenodd" clip-rule="evenodd" d="M42.6403 47.9197C44.7921 47.169 46.9391 46.3124 49.0212 45.3394C51.1033 44.3664 53.1205 43.277 55.0366 42.1075C56.9387 40.9284 58.7363 39.6568 60.3686 38.3225C62.0009 36.9882 63.4646 35.5785 64.7373 34.1398C67.2794 31.2498 69.0084 28.2297 69.8549 25.339C70.2765 23.8874 70.4774 22.4682 70.4643 21.1064C70.4512 19.7445 70.2272 18.4526 69.8278 17.2344C69.4916 16.2135 68.9874 15.251 68.4032 14.3768C67.819 13.5027 67.1516 12.7044 66.4857 11.9994C65.4179 10.8533 64.0322 9.80581 62.5219 8.93891C61.0117 8.07202 59.3844 7.37037 57.8705 6.83912C56.6486 6.41699 55.4818 6.0738 54.2853 5.79212C53.0888 5.51044 51.8626 5.29027 50.5219 5.11416C47.7237 4.75312 44.7284 4.64567 41.6315 4.8064C38.5314 4.95461 35.3404 5.36813 32.1655 6.01826C28.9907 6.66839 25.8492 7.57728 22.8492 8.67584C19.8491 9.7744 16.983 11.078 14.3479 12.5205C11.1133 14.2977 8.34587 16.2843 6.16701 18.2872C3.98815 20.29 2.38384 22.2996 1.29006 24.1589C1.35756 24.1542 1.51419 23.9649 1.42092 24.1773C0.968942 24.9008 0.708115 25.4794 0.581637 25.9149C0.743949 25.7911 0.880703 25.7009 1.08015 25.5002C1.26736 25.209 1.39603 25.0005 1.51727 24.8074C1.64594 24.5989 1.76718 24.4058 1.97908 24.1214C1.85522 24.4357 2.22441 24.0958 2.51954 23.7356C3.53206 22.3532 4.61777 21.0315 5.94793 19.7246C7.77836 17.9222 9.97252 16.1963 12.462 14.5921C14.9548 13.0003 17.7323 11.5331 20.7144 10.2787C23.6966 9.02431 26.8909 7.9674 30.1647 7.17027C33.4385 6.37315 36.8132 5.83007 40.1316 5.59659C43.45 5.36311 46.7301 5.42098 49.8264 5.78248C52.9119 6.14685 55.8167 6.82735 58.3813 7.82664C60.9425 8.81342 63.1741 10.1161 64.946 11.6758C66.718 13.2356 68.0336 15.0649 68.8024 17.0809C69.7927 19.68 69.8304 22.5345 68.9765 25.4406C68.1226 28.3466 66.3772 31.3042 63.8722 34.1173C61.3672 36.9305 58.0705 39.6077 54.2062 41.9553C50.3419 44.3028 45.8994 46.3234 41.148 47.8646C39.0259 48.5538 36.7994 49.1505 34.5005 49.6462C32.2124 50.139 29.8487 50.5182 27.481 50.7512C22.749 51.2297 18.0078 51.1484 13.7052 50.4677C11.5523 50.1211 9.52304 49.6343 7.66023 48.9958C5.79742 48.3572 4.09364 47.5824 2.61225 46.6944C1.12016 45.8092 -0.163527 44.8013 -1.21827 43.7053C-2.28372 42.6121 -3.11695 41.4433 -3.72538 40.2142C-4.03495 39.6011 -4.18745 39.1065 -4.4199 38.7003C-4.23748 38.9593 -4.39347 38.6263 -4.43279 38.4762C-4.60168 37.9191 -4.75155 37.3034 -4.85118 36.6608C-4.95082 36.0182 -5.01091 35.3516 -5.02163 34.6986C-5.04634 33.38 -4.86614 32.1002 -4.66081 31.1349C-4.44193 30.5275 -4.20471 29.7276 -3.87769 28.877C-3.55811 28.0417 -3.16687 27.1739 -2.76099 26.4494C-3.04388 26.9 -3.3425 27.4217 -3.61731 27.9907C-3.89212 28.5596 -4.13569 29.1603 -4.34386 29.7649C-4.55204 30.3696 -4.7174 30.9627 -4.8572 31.5222C-4.9863 32.0789 -5.08568 32.574 -5.16934 32.998C-5.11516 33.1174 -5.08611 32.9222 -5.09484 33.3261C-5.16933 33.6539 -5.20429 33.3019 -5.23028 33.6836C-5.277 34.8607 -5.21078 35.9005 -5.2538 36.7419C-5.38795 36.055 -5.40697 35.4578 -5.40458 34.8548C-5.40219 34.2518 -5.36769 33.6402 -5.33385 32.8949C-5.25455 32.6728 -5.26241 33.0363 -5.1936 32.6431C-5.26417 32.4612 -5.20104 32.0026 -5.0951 31.5324C-4.98916 31.0623 -4.85438 30.5711 -4.87055 30.3345C-4.7989 30.3019 -4.6816 29.9626 -4.57915 29.654C-4.47342 29.3579 -4.40395 29.0984 -4.49636 29.2704C-4.08109 28.2756 -3.72131 27.55 -3.4572 26.984C-3.17912 26.4276 -2.98273 26.0403 -2.79465 25.7088C-2.93795 25.7739 -3.13587 26.0679 -3.33138 26.4148C-3.5269 26.7617 -3.72743 27.1769 -3.87925 27.4719C-4.31987 28.3262 -4.82143 29.2103 -4.89219 29.8584C-5.02654 30.0015 -5.08115 30.2303 -5.12833 30.4437C-5.17551 30.6571 -5.21527 30.8552 -5.3092 30.9339C-5.28714 31.0619 -5.35245 31.2935 -5.41121 31.5502C-5.47325 31.7944 -5.51803 32.0608 -5.49683 32.2291C-5.53965 32.2406 -5.58902 32.227 -5.61567 32.4751C-5.72116 33.253 -5.81028 34.0934 -5.81048 34.9234C-5.81067 35.7534 -5.72196 36.5729 -5.52031 37.2551C-5.61403 37.1597 -5.54127 37.5686 -5.415 37.9631C-5.29942 38.3605 -5.13688 38.7185 -5.19019 38.5588C-4.9999 39.1101 -4.78601 39.8827 -4.43864 40.5526C-4.27851 40.8577 -4.07074 41.2572 -3.83414 41.6355C-3.59754 42.0138 -3.34281 42.3739 -3.14226 42.6146C-2.70664 43.1404 -2.20942 43.7701 -1.54594 44.4222C-0.00686616 45.9239 1.94072 47.2358 4.1356 48.2672C6.33376 49.3111 8.79318 50.0843 11.2653 50.5996C12.6691 50.973 14.2352 51.2225 15.8245 51.3856C17.3998 51.5389 18.9876 51.6087 20.4585 51.6696C21.3129 51.6949 20.2289 51.624 20.8569 51.6163C21.1927 51.6736 21.9377 51.6747 22.3246 51.6647C22.1188 51.6663 21.885 51.6487 22.155 51.6298C23.0252 51.584 22.3805 51.7033 23.0695 51.6658C23.57 51.6522 23.5001 51.604 24.0327 51.5817L24.0137 51.6403C25.6864 51.5534 27.4317 51.3935 29.1927 51.1625C30.9537 50.9315 32.7444 50.6389 34.5228 50.256C36.2939 49.8884 38.0452 49.4458 39.7234 48.9424C41.4156 48.4487 43.0346 47.8944 44.5408 47.3032C44.2551 47.3932 43.8935 47.5437 43.5362 47.6662C43.1713 47.8042 42.846 47.9181 42.6403 47.9197ZM-5.16749 37.5086C-5.21337 37.3335 -5.25183 37.143 -5.287 36.965C-5.23588 36.8978 -5.18258 37.0575 -5.13997 37.2201C-5.11135 37.373 -5.10086 37.5443 -5.16749 37.5086Z" fill="white"/>
<path fill-rule="evenodd" clip-rule="evenodd" d="M55.9351 41.7089C55.6213 41.9534 54.9421 42.3759 54.5115 42.6116C54.3032 42.7342 54.1525 42.8146 54.1492 42.8022C54.1459 42.7897 54.304 42.6939 54.6811 42.4725C54.9075 42.3317 55.0187 42.2752 55.1875 42.1765C55.3456 42.0807 55.5432 41.9609 55.9351 41.7089Z" fill="white"/>
</g>
<path d="M38.6468 31.4841C38.6468 31.7391 38.5935 32.0012 38.4802 32.2562C38.3668 32.5112 38.2202 32.752 38.0268 32.9787C37.7002 33.3612 37.3402 33.6374 36.9335 33.8145C36.5335 33.9916 36.1002 34.0837 35.6335 34.0837C34.9535 34.0837 34.2268 33.9137 33.4602 33.5666C32.6935 33.2195 31.9268 32.752 31.1668 32.1641C30.4002 31.5691 29.6735 30.9103 28.9802 30.1807C28.2935 29.4441 27.6735 28.672 27.1202 27.8645C26.5735 27.057 26.1335 26.2495 25.8135 25.4491C25.4935 24.6416 25.3335 23.8695 25.3335 23.1328C25.3335 22.6512 25.4135 22.1907 25.5735 21.7657C25.7335 21.3337 25.9868 20.937 26.3402 20.5828C26.7668 20.1366 27.2335 19.917 27.7268 19.917C27.9135 19.917 28.1002 19.9595 28.2668 20.0445C28.4402 20.1295 28.5935 20.257 28.7135 20.4412L30.2602 22.7574C30.3802 22.9345 30.4668 23.0974 30.5268 23.2532C30.5868 23.402 30.6202 23.5507 30.6202 23.6853C30.6202 23.8553 30.5735 24.0253 30.4802 24.1882C30.3935 24.3512 30.2668 24.5212 30.1068 24.6912L29.6002 25.2507C29.5268 25.3287 29.4935 25.4207 29.4935 25.5341C29.4935 25.5907 29.5002 25.6403 29.5135 25.697C29.5335 25.7537 29.5535 25.7962 29.5668 25.8387C29.6868 26.0724 29.8935 26.377 30.1868 26.7453C30.4868 27.1137 30.8068 27.4891 31.1535 27.8645C31.5135 28.2399 31.8602 28.587 32.2135 28.9057C32.5602 29.2174 32.8468 29.4299 33.0735 29.5574C33.1068 29.5716 33.1468 29.5928 33.1935 29.6141C33.2468 29.6353 33.3002 29.6424 33.3602 29.6424C33.4735 29.6424 33.5602 29.5999 33.6335 29.522L34.1402 28.9907C34.3068 28.8137 34.4668 28.6791 34.6202 28.5941C34.7735 28.4949 34.9268 28.4453 35.0935 28.4453C35.2202 28.4453 35.3535 28.4737 35.5002 28.5374C35.6468 28.6012 35.8002 28.6932 35.9668 28.8137L38.1735 30.4782C38.3468 30.6057 38.4668 30.7545 38.5402 30.9316C38.6068 31.1087 38.6468 31.2857 38.6468 31.4841Z" fill="white"/>
<path d="M36.3333 24.8757C36.3333 24.4507 36.02 23.799 35.5533 23.2677C35.1267 22.779 34.56 22.3965 34 22.3965" stroke="white" stroke-width="0.96" stroke-linecap="round" stroke-linejoin="round"/>
<path d="M38.6667 24.8753C38.6667 22.1341 36.58 19.917 34 19.917" stroke="white" stroke-width="0.96" stroke-linecap="round" stroke-linejoin="round"/>
</g>
<defs>
<linearGradient id="paint0_linear_632_339" x1="-4.58362e-07" y1="23.7149" x2="61.5204" y2="23.7149" gradientUnits="userSpaceOnUse">
<stop stop-color="#5AABF1"/>
<stop offset="1" stop-color="#8EE0E6"/>
</linearGradient>
<linearGradient id="paint1_linear_632_339" x1="-4.58362e-07" y1="23.7149" x2="61.5204" y2="23.7149" gradientUnits="userSpaceOnUse">
<stop stop-color="#E68E8E"/>
<stop offset="1" stop-color="#F15A5A"/>
</linearGradient>
<clipPath id="clip0_632_339">
<rect width="65" height="55" fill="white"/>
</clipPath>
</defs>
</svg>
