<svg width="32" height="32" viewBox="0 0 32 32" fill="none" xmlns="http://www.w3.org/2000/svg">
<path d="M29.8668 7.98446C28.8444 8.4356 27.7486 8.7385 26.5965 8.87599C27.7724 8.17566 28.6758 7.06715 29.0995 5.74811C28.0015 6.39474 26.7803 6.86521 25.4856 7.11871C24.4481 6.01879 22.9697 5.3335 21.3335 5.3335C18.1907 5.3335 15.6424 7.86416 15.6424 10.9877C15.6424 11.4303 15.6943 11.8621 15.7915 12.2767C11.0623 12.0404 6.87131 9.78901 4.06361 6.36681C3.57297 7.20464 3.29414 8.17566 3.29414 9.21112C3.29414 11.1725 4.29705 12.904 5.82518 13.9201C4.89144 13.89 4.0139 13.6344 3.24659 13.2112C3.24659 13.2348 3.24659 13.2585 3.24659 13.2821C3.24659 16.0233 5.20917 18.3069 7.80937 18.8289C7.33386 18.9578 6.83024 19.0266 6.3115 19.0266C5.94406 19.0266 5.58742 18.9922 5.23943 18.9234C5.96567 21.1684 8.06658 22.8075 10.5544 22.8526C8.6091 24.3693 6.15588 25.2716 3.48867 25.2716C3.02829 25.2716 2.57655 25.2458 2.13345 25.1921C4.64936 26.799 7.64078 27.7335 10.8548 27.7335C21.3205 27.7335 27.044 19.1168 27.044 11.6451C27.044 11.4002 27.0375 11.1532 27.0288 10.9125C28.1398 10.1155 29.1038 9.11875 29.8668 7.98446Z" fill="white"/>
</svg>
