<svg width="32" height="32" viewBox="0 0 32 32" fill="none" xmlns="http://www.w3.org/2000/svg">
<path fill-rule="evenodd" clip-rule="evenodd" d="M26.3396 25.8846C27.792 25.6713 28.9677 24.5335 29.2443 23.0402C29.521 21.4046 29.7976 18.9868 29.8668 16.0002C29.8668 13.0135 29.521 10.5957 29.2443 8.96016C28.9677 7.46683 27.792 6.32905 26.3396 6.11572C23.9881 5.76016 20.2535 5.3335 15.9655 5.3335C11.6776 5.3335 7.87377 5.76016 5.59148 6.11572C4.13911 6.32905 2.96338 7.46683 2.68674 8.96016C2.4101 10.5957 2.13345 13.0135 2.13345 16.0002C2.13345 18.9868 2.4101 21.4046 2.68674 23.0402C2.96338 24.5335 4.13911 25.6713 5.59148 25.8846C7.94293 26.2402 11.7468 26.6668 15.9655 26.6668C20.2535 26.6668 24.0573 26.2402 26.3396 25.8846ZM21.4984 16.0002L13.1991 11.0224V20.9779L21.4984 16.0002Z" fill="white"/>
</svg>
