<svg width="49" height="48" viewBox="0 0 49 48" fill="none" xmlns="http://www.w3.org/2000/svg">
<path d="M37.8972 9.96981C35.9901 5.89785 32.5366 3.21758 28.1554 5.43396C27.073 6.00094 26.0936 6.67101 25.1658 7.44417C24.5473 7.9596 23.6711 8.26886 22.898 8.37195C22.7433 8.37195 22.5887 8.37195 22.4856 8.37195C22.0732 8.21732 21.7639 8.01114 21.5578 7.54724C21.4031 7.23798 21.4547 6.92872 21.4032 6.56792C21.3516 6.3102 21.3516 6.00093 21.3516 5.74321C21.3516 5.53704 21.3516 5.22778 21.3 5.0216C21.1454 4.60925 20.3207 4.35153 19.9084 4.45462C19.5991 4.5577 19.5991 4.97005 19.5991 5.22777C19.5991 5.22777 19.5991 5.22778 19.5991 5.27932L19.496 34.0923C17.7951 33.2161 15.1664 33.3707 12.6923 34.7108C9.29036 36.5664 7.43477 39.9168 8.62028 42.2362C9.80579 44.5557 12.7438 45.0711 16.1457 43.2156C18.9806 41.6693 20.8877 39.0921 20.8362 36.9272V15.6912L20.7846 15.2788C23.001 16.9798 25.7328 15.6396 27.6915 14.1964C29.2893 13.0624 31.9697 9.45437 34.0314 9.86672C35.9385 10.2275 36.8663 13.114 37.2786 14.8149C37.7941 16.9798 37.6395 19.2992 36.8148 21.361C36.6086 21.8249 36.4539 22.3403 36.1962 22.8042C35.887 23.3197 35.5262 23.8351 35.5777 24.5052C35.6293 24.8144 35.7323 25.0206 35.99 24.866C36.1962 24.7113 36.4024 24.5052 36.5571 24.299C37.3302 23.3712 37.8972 22.1857 38.4126 21.1033C38.4126 21.0517 38.4642 21.0517 38.4642 21.0002C38.5672 20.794 38.6188 20.6394 38.6703 20.4847C39.8559 17.0829 39.392 13.1655 37.8972 9.96981Z" fill="#212529"/>
</svg>
