<svg width="49" height="48" viewBox="0 0 49 48" fill="none" xmlns="http://www.w3.org/2000/svg">
<path d="M37.405 16.9474C38.983 16.9474 40.2621 15.6683 40.2621 14.0903C40.2621 12.5123 38.983 11.2332 37.405 11.2332C35.8271 11.2332 34.5479 12.5123 34.5479 14.0903C34.5479 15.6683 35.8271 16.9474 37.405 16.9474Z" fill="#212529"/>
<path d="M37.405 29.2783C38.983 29.2783 40.2621 27.999 40.2621 26.4211C40.2621 24.8431 38.983 23.564 37.405 23.564C35.8271 23.564 34.5479 24.8431 34.5479 26.4211C34.5479 27.999 35.8271 29.2783 37.405 29.2783Z" fill="#212529"/>
<path d="M27.5549 12.0601C25.6752 10.0301 23.4947 8.75187 21.0887 8.22556C20.5624 8.07518 19.7354 8 19.0587 8C19.0587 8 19.0587 8 18.9835 8C18.7579 8 18.5324 7.99998 18.3068 8.07517C18.2316 8.07517 18.2315 8.07517 18.1564 8.07517C17.4797 8.15036 16.8782 8.22555 16.2015 8.45111C16.0511 8.5263 15.9007 8.52631 15.7504 8.6015C15.3744 8.75187 14.9985 8.82706 14.6225 8.97744C11.9158 10.1053 9.28415 12.3609 8.30671 16.6467C8.30671 16.6467 7.85558 19.0527 9.81047 21.0076C11.0135 22.2106 12.8932 22.6617 14.5474 21.985C16.7278 21.0827 17.7805 18.5263 16.8782 16.3459C16.2015 14.7669 14.6977 13.7895 13.1188 13.7143C13.8707 12.9624 14.7729 12.3609 15.7504 11.985C16.5022 11.6842 17.3293 11.4586 18.1564 11.3083C18.2315 11.3083 18.3068 11.3083 18.4571 11.3083C23.1188 11.3083 26.7279 16.7218 26.2016 21.0827C26.1264 21.985 25.9007 22.9625 25.6752 23.8647C24.6977 27.6993 22.9685 31.4587 20.1113 34.2407C19.1339 35.2181 18.006 35.8197 16.803 36.4212C16.2767 36.6467 15.6751 36.9475 15.1488 37.2482C14.3969 37.6994 13.7955 38.9775 15.0737 39.2031C15.2992 39.2783 15.5248 39.2031 15.8255 39.1279C17.3293 38.6768 18.6827 37.925 19.9609 37.0227C20.3368 36.722 20.7879 36.4211 21.1639 36.1956C25.6752 32.7369 29.3595 27.6993 29.961 21.9098C30.4121 18.2256 29.9609 14.6917 27.5549 12.0601Z" fill="#212529"/>
</svg>
