<svg width="49" height="48" viewBox="0 0 49 48" fill="none" xmlns="http://www.w3.org/2000/svg">
<path d="M31.1092 24.8671C30.181 24.1639 28.6621 23.8545 27.5652 23.7982C26.9745 23.7701 26.9182 23.8826 26.6088 23.4607C26.3276 23.0669 26.3276 22.1387 26.2432 21.6605C25.99 20.4511 25.7369 19.2697 25.4837 18.0602C28.1277 16.4289 30.0966 13.7568 30.8842 10.7471C31.6718 7.73752 31.278 4.44663 29.7872 1.71827C29.3091 0.846328 28.5496 -0.0537472 27.5652 0.00250745C26.8339 0.0306348 26.2432 0.621308 25.7931 1.21198C24.3586 3.06839 23.6273 5.40296 23.4023 7.73752C23.1773 10.0721 23.4586 12.4348 23.9086 14.7412C23.9649 14.9662 23.993 15.1913 23.9086 15.4163C23.8242 15.6413 23.6273 15.8101 23.4304 15.9507C20.6458 18.0884 17.6643 20.2542 16.1736 23.4607C15.3017 25.3452 15.0485 27.5392 15.4423 29.5643C15.8642 31.6739 17.0174 33.699 18.8176 34.8523C19.9989 35.6117 21.4053 35.9492 22.8116 36.1742C24.5837 36.4555 26.3838 36.5399 28.1277 36.118C28.3246 37.1587 28.4934 38.2275 28.634 39.2964C28.7465 40.1402 28.8309 40.984 28.8871 41.8278C28.8871 42.1091 28.8871 42.3623 28.8871 42.6435C28.8309 43.2061 28.6059 43.7405 28.3246 44.2187C28.184 44.4156 28.0433 44.6124 27.8746 44.8093C27.3683 45.3438 26.7213 45.7657 26.0182 46.0469C25.54 46.272 25.0056 46.3845 24.4712 46.4126C24.218 46.4126 23.9367 46.4126 23.6836 46.3563C23.6555 46.3563 23.6273 46.3563 23.6273 46.3563C24.668 45.7938 25.3994 44.6968 25.3994 43.403C25.3994 41.5466 23.8805 40.0277 22.0241 40.0277C20.1677 40.0277 18.6488 41.5466 18.6488 43.403C18.6488 43.9655 18.7894 44.4999 19.0426 44.95H19.0145C19.0707 45.0344 19.127 45.1187 19.1832 45.2031C19.2113 45.2312 19.2114 45.2594 19.2395 45.3156C21.0115 48.1002 24.8649 47.9596 24.8649 47.9596C25.3431 47.9877 25.8494 47.8752 26.2994 47.7627C27.312 47.5096 28.2683 47.0033 28.9997 46.2438C29.3372 45.8782 29.6466 45.4844 29.8997 45.0344C30.0966 44.6687 30.2654 44.303 30.3779 43.9093C30.5185 43.3467 30.4623 42.7842 30.406 42.2216C30.2935 40.9278 30.0404 39.6339 29.7872 38.34C29.731 38.0307 29.6747 37.7212 29.5903 37.4118C29.4778 36.8774 29.3653 36.3149 29.2528 35.7805C29.2528 35.7523 29.2528 35.7242 29.2247 35.6961C29.2247 35.6961 32.4593 34.7398 33.1344 31.927C33.1344 31.8989 34.4001 27.4266 31.1092 24.8671ZM25.2869 4.64352C26.6088 2.8715 29.4778 3.65906 29.6747 5.85299C29.6747 5.85299 30.0685 9.03138 27.312 12.1535C26.862 12.7723 25.9057 13.7005 24.8087 14.7131L24.4712 13.138C24.443 13.0255 24.443 12.7161 24.4149 12.6035C24.1336 10.719 24.0774 8.0188 24.2461 6.94996C24.4712 5.57172 25.2869 4.64352 25.2869 4.64352ZM19.9427 33.6709C18.5644 32.4896 17.5518 30.8019 17.4675 29.0018C17.3549 26.9204 18.4519 24.9796 19.7458 23.3482C21.0678 21.6887 22.6429 20.2542 24.4149 19.101C24.7243 20.4229 25.0337 21.7168 25.315 23.0388C25.3712 23.3201 25.4275 23.6013 25.315 23.8826C25.1743 24.1639 24.8931 24.3045 24.6118 24.4452C22.6148 25.5421 21.4053 27.7079 21.349 29.9581C21.3209 30.8019 21.4615 31.6739 21.9116 32.4052C22.3616 33.1365 23.1773 33.6428 24.0211 33.5584C23.6555 33.5865 23.0648 32.0395 23.0085 31.7583C22.7835 31.0269 22.7273 30.2113 22.8679 29.4518C23.1773 27.8204 24.3868 26.7235 26.0463 26.5547C26.637 29.2268 27.3401 32.4333 27.9027 35.2179V35.246C25.2587 36.1461 22.1085 35.4992 19.9427 33.6709ZM28.9997 34.7679L28.7746 33.5584C28.7746 33.5303 28.7746 33.5022 28.7746 33.4459L27.312 26.5266C28.2402 26.5828 30.8279 27.0329 31.503 30.5207C31.4749 30.4925 32.0655 33.1084 28.9997 34.7679Z" fill="#212529"/>
</svg>
