<svg width="49" height="48" viewBox="0 0 49 48" fill="none" xmlns="http://www.w3.org/2000/svg">
<path d="M36.8464 27.7538C36.7411 27.4955 36.6358 27.2372 36.5305 26.9788C37.4255 24.7055 36.9517 22.8455 36.9517 22.8455C36.8464 22.5355 36.7411 22.2255 36.5831 21.9155C37.4255 19.6938 36.9517 17.9371 36.9517 17.9371C35.7934 14.3721 32.4239 11.4271 29.2124 9.46377C26.58 7.8621 25.3691 7.44877 24.5794 4.96876C24.5794 4.81376 24.5267 4.60709 24.4741 4.45209C24.4741 4.40043 24.4214 4.40042 24.4214 4.34875C24.1582 4.03875 23.4738 3.93542 23.1052 4.03875C22.7893 4.14208 22.7894 4.50375 22.7894 4.81375C22.7894 4.86542 22.7894 4.96875 22.7894 5.02042L22.7367 34.0572C20.9993 33.2305 18.3142 33.4372 15.7871 34.7289C12.3124 36.4855 10.4171 39.7922 11.628 42.0139C12.8389 44.2872 16.6295 44.6489 20.1043 42.8922C22.9999 41.3939 24.1582 38.9655 24.1582 36.8472V20.0038C25.0006 20.4688 25.0532 20.5721 26.3694 21.1405C31.0024 23.2072 36.3725 28.7355 34.4772 33.7472C34.2139 34.4189 33.4769 35.6589 33.1084 36.2789C32.3186 37.6739 34.3193 37.3122 35.109 36.1755C36.9517 33.5922 37.8467 30.6472 36.8464 27.7538ZM26.5273 11.2721C31.371 12.8221 34.5825 14.7855 35.3196 19.5388C35.3196 19.5388 35.3196 19.5905 35.3196 19.6421C33.7401 17.5238 31.4763 15.7155 29.2651 14.3721C27.1065 13.0288 25.8429 12.4088 25.0005 10.8588C25.3164 10.9621 25.7903 11.0138 26.5273 11.2721ZM29.1598 19.2805C27.475 18.2471 25.7376 16.9555 24.4214 15.5088C24.8953 15.8705 25.3691 15.8188 26.5273 16.1805C31.371 17.7305 34.5825 19.6938 35.3196 24.4472C35.3196 24.4472 35.3196 24.5505 35.3196 24.7055C33.6875 22.5355 31.371 20.6755 29.1598 19.2805Z" fill="#212529"/>
</svg>
