<svg width="110" height="94" viewBox="0 0 110 94" fill="none" xmlns="http://www.w3.org/2000/svg">
<path d="M13.3335 51.0001L14.1912 52.2307L14.1912 52.2307L13.3335 51.0001ZM101.796 24.9331C102.57 24.6365 103.437 25.0231 103.734 25.7966L108.567 38.4016C108.864 39.1751 108.477 40.0426 107.704 40.3392C106.93 40.6358 106.063 40.2492 105.766 39.4757L101.47 28.2713L90.2653 32.5677C89.4918 32.8643 88.6243 32.4777 88.3277 31.7042C88.0311 30.9307 88.4177 30.0632 89.1912 29.7666L101.796 24.9331ZM2.88028 91.3719C1.01424 84.0762 0.143196 76.0068 1.35332 68.6066C2.56709 61.1842 5.89398 54.3569 12.4758 49.7695L14.1912 52.2307C8.43952 56.2395 5.43336 62.2456 4.31399 69.0908C3.19097 75.9583 3.98668 83.5909 5.78672 90.6285L2.88028 91.3719ZM12.4758 49.7695C18.5334 45.5475 25.7017 46.0623 33.0316 47.8447C36.7121 48.7397 40.5502 49.9858 44.4045 51.1982C48.2829 52.4181 52.2014 53.6118 56.1451 54.4496C64.0253 56.1237 71.8397 56.3388 79.3139 52.5673C86.7997 48.7899 94.2092 40.8783 100.963 25.723L103.703 26.9442C96.7908 42.4556 88.992 51.044 80.6654 55.2457C72.327 59.4533 63.7247 59.1268 55.5217 57.3841C51.4237 56.5136 47.3839 55.2802 43.5044 54.06C39.601 52.8322 35.8818 51.6252 32.3227 50.7597C25.1735 49.0213 19.1335 48.7861 14.1912 52.2307L12.4758 49.7695Z" fill="#212529"/>
</svg>
