<svg width="48" height="48" viewBox="0 0 48 48" fill="none" xmlns="http://www.w3.org/2000/svg">
<path fill-rule="evenodd" clip-rule="evenodd" d="M24 4L20.5844 12.6615L13.076 7.24056L14.8377 16.3927L5.62028 15.9334L12 22.6704L4 27.3186L12.9722 29.5015L8.72958 37.7814L17.4456 34.7172L18.3074 44L24 36.6615L29.6926 44L30.5544 34.7172L39.2704 37.7814L35.0278 29.5015L44 27.3186L36 22.6704L42.3797 15.9334L33.1623 16.3927L34.924 7.24056L27.4156 12.6615L24 4ZM30.5486 14.0997L30.2151 14.3404C28.0989 15.8683 25.1101 14.9929 24.1526 12.5647L24 12.1778L23.8474 12.5647C22.8899 14.9929 19.9011 15.8683 17.7849 14.3404L17.4514 14.0997L17.5428 14.5744C18.0331 17.1216 16.0067 19.4546 13.4159 19.3255L12.9419 19.3019L13.3095 19.6901C15.0839 21.5639 14.6459 24.6026 12.4146 25.8991L11.9546 26.1664L12.4498 26.2869C14.9621 26.8981 16.2432 29.6965 15.0641 31.9976L14.8285 32.4572L15.2417 32.312C17.6975 31.4486 20.3106 33.1238 20.5512 35.7158L20.5924 36.1598L20.8394 35.8413C22.4408 33.7769 25.5592 33.7769 27.1606 35.8413L27.4076 36.1598L27.4488 35.7158C27.6894 33.1238 30.3025 31.4486 32.7583 32.312L33.1715 32.4572L32.9359 31.9976C31.7568 29.6965 33.0379 26.8981 35.5502 26.2869L36.0454 26.1664L35.5854 25.8991C33.3541 24.6026 32.9161 21.5639 34.6905 19.6901L35.0581 19.3019L34.5841 19.3255C31.9934 19.4546 29.9669 17.1216 30.4572 14.5744L30.5486 14.0997Z" fill="#212529"/>
<circle cx="24" cy="24" r="4" fill="#212529"/>
</svg>
