<svg width="48" height="48" viewBox="0 0 48 48" fill="none" xmlns="http://www.w3.org/2000/svg">
<path fill-rule="evenodd" clip-rule="evenodd" d="M28.5 40C18.9448 40 8 29.0552 8 19.5C8 13.1487 13.1487 8 19.5 8C29.0552 8 40 18.9448 40 28.5C40 34.8513 34.8513 40 28.5 40ZM17.032 27.6362C17.4525 21.9735 21.9735 17.4525 27.6362 17.032C26.5786 13.5412 23.3361 11 19.5 11C14.8056 11 11 14.8056 11 19.5C11 23.3361 13.5412 26.5786 17.032 27.6362ZM20.3638 30.968C21.4214 34.4588 24.6639 37 28.5 37C33.1944 37 37 33.1944 37 28.5C37 24.6639 34.4588 21.4214 30.968 20.3638C30.5475 26.0265 26.0265 30.5475 20.3638 30.968ZM27.9846 20.0154C23.7007 20.2716 20.2716 23.7007 20.0154 27.9846C24.2993 27.7284 27.7284 24.2993 27.9846 20.0154Z" fill="#212529"/>
</svg>
