<svg width="48" height="48" viewBox="0 0 48 48" fill="none" xmlns="http://www.w3.org/2000/svg">
<path fill-rule="evenodd" clip-rule="evenodd" d="M7 20C7 13.3726 12.3726 8 19 8H29C35.6274 8 41 13.3726 41 20V23C41 29.6274 35.6274 35 29 35H20.8102C15.7637 35 10.8769 36.7693 7 40V20ZM19 11H29C33.9706 11 38 15.0294 38 20V23C38 27.9706 33.9706 32 29 32H19C14.0294 32 10 27.9706 10 23V20C10 15.0294 14.0294 11 19 11Z" fill="#212529"/>
<path d="M31 23C32.1046 23 33 22.1045 33 21C33 19.8954 32.1046 19 31 19C29.8955 19 29 19.8954 29 21C29 22.1045 29.8955 23 31 23Z" fill="#212529"/>
<path d="M24 23C25.1046 23 26 22.1045 26 21C26 19.8954 25.1046 19 24 19C22.8955 19 22 19.8954 22 21C22 22.1045 22.8955 23 24 23Z" fill="#212529"/>
<path d="M17 23C18.1046 23 19 22.1045 19 21C19 19.8954 18.1046 19 17 19C15.8955 19 15 19.8954 15 21C15 22.1045 15.8955 23 17 23Z" fill="#212529"/>
</svg>
