<svg width="180" height="110" viewBox="0 0 180 110" fill="none" xmlns="http://www.w3.org/2000/svg">
<g clip-path="url(#clip0_811_3602)">
<path d="M157 62L160.655 72.5535L169.435 65.6512L166.804 76.5051L177.922 75.4455L169.84 83.1539L179.766 88.2732L168.8 90.3888L174.382 100.062L164.013 95.9127L163.48 107.068L157 97.972L150.52 107.068L149.987 95.9127L139.618 100.062L145.2 90.3888L134.234 88.2732L144.16 83.1539L136.078 75.4455L147.196 76.5051L144.565 65.6512L153.345 72.5535L157 62Z" fill="url(#paint0_linear_811_3602)"/>
<g clip-path="url(#clip1_811_3602)">
<ellipse cx="85.2694" cy="55.1988" rx="87.2117" ry="51.5673" transform="rotate(-14.9692 85.2694 55.1988)" fill="url(#paint1_linear_811_3602)"/>
<path fill-rule="evenodd" clip-rule="evenodd" d="M26.7419 30.8709C23.3737 33.5163 20.2398 36.3009 17.4694 39.2476C14.6689 42.1737 12.2248 45.2351 10.1921 48.3599C8.15949 51.4848 6.53821 54.673 5.41338 57.8734C4.28143 61.0469 3.62289 64.2386 3.45536 67.3289C3.12744 73.5364 4.81682 79.3531 8.24837 84.3919C9.95618 86.9278 12.0964 89.2342 14.5928 91.3025C17.0891 93.3708 19.9258 95.234 23.0352 96.8238C25.6302 98.1476 28.4733 99.2907 31.3357 100.228C34.1981 101.164 37.117 101.943 39.871 102.563C44.3132 103.599 49.2444 104.246 54.1062 104.538C58.991 104.824 63.8365 104.775 68.1198 104.56C71.5699 104.364 74.7539 104.095 77.8793 103.698C81.0047 103.301 84.1017 102.796 87.3545 102.135C94.1137 100.746 100.883 98.8374 107.409 96.4758C113.935 94.1142 120.181 91.2522 125.92 88.0645C131.683 84.8707 136.934 81.3242 141.508 77.5545C146.083 73.7848 149.989 69.8187 153.132 65.7673C156.997 60.8065 159.425 55.824 160.554 51.2432C161.706 46.6564 161.551 42.4445 160.545 38.832C160.391 38.9016 160.414 39.2689 160.238 38.8845C159.937 37.47 159.431 36.3973 158.934 35.6382C158.814 35.9287 158.656 36.1716 158.601 36.6171C158.705 37.1932 158.811 37.5959 158.895 38.0048C158.979 38.4136 159.078 38.7895 159.113 39.3839C158.818 38.8298 158.627 39.5988 158.658 40.3665C158.962 43.1882 158.961 45.9758 158.429 48.9039C157.694 52.9207 156.045 57.122 153.472 61.2807C150.93 65.4601 147.494 69.6177 143.221 73.5949C138.978 77.5927 133.898 81.4101 128.168 84.9115C122.437 88.4129 116.041 91.5447 109.203 94.2187C102.365 96.8928 95.0714 99.0556 87.644 100.622C80.2166 102.188 72.6255 103.136 65.1934 103.381C57.7843 103.621 50.5413 103.184 43.8172 102.006C37.093 100.828 30.8948 98.9363 25.5506 96.3583C18.6544 93.0422 13.3831 88.692 9.96748 83.6202C6.55898 78.5753 5.01328 72.8356 5.39982 66.7562C5.77044 60.7097 8.11939 54.3115 12.323 48.0252C16.5266 41.7388 22.5848 35.5645 30.1913 29.9281C33.595 27.4169 37.3799 24.9484 41.4912 22.5946C45.6326 20.2615 50.1003 18.043 54.8236 16.0442C64.2931 12.0406 74.8467 8.87029 85.513 6.96321C90.8347 6.01273 96.1885 5.36981 101.429 5.04423C106.67 4.71866 111.781 4.74339 116.68 5.08306C121.556 5.42882 126.197 6.09562 130.511 7.02122C134.81 7.97978 138.782 9.19715 142.322 10.644C144.096 11.3809 145.352 12.0251 146.588 12.5021C145.73 12.2411 146.67 12.6241 147.048 12.8401C148.454 13.588 149.889 14.4433 151.262 15.3438C152.666 16.2651 153.984 17.2376 155.21 18.2345C157.662 20.2284 159.6 22.3297 160.897 23.9686C161.533 25.0645 162.445 26.4606 163.287 27.9617C164.106 29.4689 164.83 31.0871 165.246 32.4711C165.058 31.5729 164.741 30.5648 164.311 29.5006C163.881 28.4364 163.315 27.3222 162.686 26.2531C162.058 25.1841 161.337 24.1394 160.622 23.2083C159.906 22.2772 159.212 21.4266 158.63 20.7188C158.29 20.5505 158.574 20.8775 157.867 20.2601C157.427 19.7158 158.151 20.2136 157.521 19.6047C155.456 17.767 153.438 16.2039 152.005 14.8885C153.545 15.8597 154.666 16.7407 155.755 17.6876C156.838 18.6077 157.881 19.5668 159.157 20.7517C159.386 21.1508 158.74 20.5748 159.308 21.2289C159.815 21.468 160.481 22.2112 161.114 23.0203C161.748 23.8294 162.312 24.6568 162.802 25.0155C162.701 25.0997 163.063 25.7221 163.381 26.2701C163.692 26.7912 164.004 27.2256 163.903 26.9364C164.807 28.7657 165.338 30.1192 165.761 31.1565C166.184 32.1939 166.452 32.9274 166.623 33.5718C166.795 33.3826 166.708 32.7735 166.507 32.1084C166.306 31.4433 165.977 30.6683 165.775 30.0898C165.195 28.4618 164.671 26.7617 163.659 25.7367C163.703 25.4376 163.398 25.03 163.107 24.6761C162.816 24.3223 162.532 23.9952 162.627 23.7975C162.356 23.6108 162.051 23.2032 161.738 22.7687C161.403 22.3404 161.067 21.9121 160.712 21.69C160.774 21.6448 160.92 21.635 160.538 21.2189C159.363 19.9498 158.015 18.5831 156.496 17.3189C155 16.0486 153.304 14.8602 151.603 13.9317C151.999 14.028 151.055 13.4448 150.079 12.9275C149.104 12.4101 148.096 11.9587 148.52 12.1625C147.121 11.4414 145.223 10.4214 143.236 9.62598C142.35 9.25755 141.144 8.80129 139.945 8.37188C138.746 7.94248 137.538 7.57288 136.664 7.3448C134.756 6.84473 132.514 6.20314 129.881 5.66536C123.777 4.40932 117.142 3.75385 110.435 3.66349C103.795 3.64146 97.0296 4.16991 90.6619 5.08152C86.8946 5.4764 83.0071 6.16178 79.2615 7.01069C75.516 7.85959 71.9053 8.84517 68.6013 9.77821C66.6727 10.318 69.1916 9.67925 67.8303 10.1262C67.0025 10.2594 65.3416 10.7857 64.5263 11.0592C64.957 10.9164 65.5172 10.7967 64.9553 11.003C63.1386 11.6856 64.3277 11.0544 62.8885 11.5795C61.8038 11.9531 62.0556 11.9726 60.9318 12.3853L60.8803 12.284C57.3781 13.5857 53.8351 15.0131 50.404 16.5833C46.9499 18.1595 43.5774 19.8578 40.3787 21.6538C37.18 23.4497 34.1552 25.3432 31.3591 27.2623C28.563 29.1814 26.0258 31.1469 23.7563 33.0989C24.2365 32.7705 24.7503 32.2895 25.2711 31.8354C25.8062 31.435 26.3183 31.0407 26.7419 30.8709ZM150.382 13.8818C150.813 14.1124 151.228 14.376 151.62 14.6457C151.632 14.786 151.231 14.5761 150.854 14.3602C150.492 14.1113 150.153 13.8562 150.382 13.8818Z" fill="white"/>
<path fill-rule="evenodd" clip-rule="evenodd" d="M9.10433 49.7407C9.34495 49.1597 10.078 48.0172 10.5721 47.369C10.8306 47.0419 10.9953 46.8258 10.9953 46.8258C11.0025 46.8527 10.8449 47.0956 10.4358 47.6925C10.1844 48.0465 10.0658 48.2503 9.88514 48.4993C9.72755 48.7423 9.49203 49.0633 9.10433 49.7407Z" fill="white"/>
<path fill-rule="evenodd" clip-rule="evenodd" d="M107.507 98.6329C112.139 97.032 116.759 95.2041 121.239 93.126C125.72 91.048 130.06 88.7197 134.181 86.2194C138.273 83.6983 142.139 80.9784 145.649 78.123C149.159 75.2677 152.305 72.25 155.04 69.169C160.502 62.9801 164.213 56.5084 166.023 50.3103C166.925 47.1979 167.351 44.1539 167.317 41.232C167.282 38.3102 166.794 35.5373 165.928 32.9219C165.199 30.73 164.109 28.6627 162.847 26.7845C161.585 24.9064 160.143 23.1906 158.706 21.675C156.401 19.2112 153.411 16.9575 150.154 15.0907C146.898 13.2239 143.389 11.7111 140.126 10.5644C137.492 9.65315 134.978 8.91153 132.399 8.30173C129.821 7.69193 127.179 7.21396 124.29 6.83001C118.261 6.04263 111.809 5.79844 105.14 6.12914C98.4629 6.433 91.5916 7.30564 84.7562 8.68601C77.9208 10.0664 71.1586 12.0021 64.7017 14.3453C58.2447 16.6886 52.0772 19.4724 46.4081 22.5552C39.4489 26.3534 33.4972 30.603 28.8132 34.8902C24.1292 39.1774 20.6827 43.4815 18.3352 47.4656C18.4806 47.4559 18.8171 47.0506 18.6171 47.5059C17.6469 49.0561 17.0877 50.2962 16.8172 51.2299C17.1663 50.965 17.4604 50.7721 17.8891 50.3424C18.291 49.7187 18.5672 49.2719 18.8275 48.8581C19.1037 48.4114 19.364 47.9976 19.8191 47.3885C19.5537 48.0623 20.3474 47.3347 20.9815 46.5632C23.1561 43.6019 25.4886 40.7712 28.3478 37.9733C32.2822 34.1146 37.0005 30.4217 42.3554 26.9912C47.7175 23.5875 53.6932 20.4522 60.1109 17.7745C66.5285 15.0968 73.4039 12.8438 80.4518 11.1485C87.4997 9.45322 94.7661 8.30345 101.913 7.81766C109.059 7.33187 116.124 7.47099 122.795 8.2607C129.443 9.05652 135.703 10.5298 141.231 12.6854C146.752 14.8142 151.564 17.6193 155.388 20.9738C159.212 24.3283 162.054 28.259 163.719 32.5879C165.864 38.1688 165.958 44.2933 164.131 50.5243C162.305 56.7552 158.559 63.0927 153.176 69.1168C147.794 75.141 140.705 80.87 132.392 85.889C124.08 90.9079 114.52 95.2228 104.293 98.5078C99.725 99.9768 94.932 101.247 89.9827 102.3C85.0565 103.347 79.967 104.15 74.8684 104.639C64.6782 105.644 54.4657 105.448 45.1952 103.968C40.5565 103.214 36.1834 102.16 32.1682 100.782C28.153 99.4035 24.4797 97.7333 21.2849 95.8214C18.0671 93.9155 15.2976 91.7471 13.0208 89.3908C10.721 87.0405 8.92097 84.529 7.6049 81.8893C6.93535 80.5725 6.60465 79.5107 6.10214 78.6381C6.49622 79.1946 6.15874 78.4795 6.07335 78.1573C5.70708 76.9612 5.38148 75.6395 5.16398 74.2604C4.94647 72.8813 4.81403 71.4508 4.78799 70.0497C4.7288 67.2206 5.11115 64.4756 5.54905 62.4056C6.01775 61.1032 6.52511 59.3883 7.22562 57.5648C7.91021 55.7742 8.74898 53.914 9.61994 52.3614C9.01264 53.3269 8.3718 54.445 7.78246 55.6644C7.19312 56.8838 6.67121 58.1715 6.22554 59.4677C5.77988 60.764 5.42639 62.0358 5.1278 63.2356C4.85225 64.4293 4.64042 65.4912 4.46214 66.4005C4.57938 66.6568 4.64107 66.2381 4.62409 67.1047C4.46513 67.8077 4.38824 67.0522 4.33399 67.8712C4.23867 70.3964 4.38599 72.6275 4.29714 74.4326C4.00509 72.9583 3.96142 71.6768 3.96385 70.3831C3.96627 69.0893 4.03782 67.7773 4.10735 66.1784C4.27714 65.7024 4.26186 66.4823 4.40829 65.6389C4.25547 65.2484 4.38936 64.2646 4.61543 63.2564C4.84149 62.2483 5.12957 61.1949 5.09367 60.6872C5.24786 60.6176 5.49899 59.8901 5.71826 59.2286C5.94465 58.5939 6.0931 58.0373 5.89485 58.4059C6.7848 56.2736 7.55647 54.7185 8.12277 53.5052C8.71922 52.3127 9.14047 51.4827 9.54409 50.7723C9.23571 50.9115 8.81075 51.5413 8.3912 52.2847C7.97165 53.0281 7.54159 53.9179 7.21591 54.5502C6.27073 56.3811 5.19441 58.2755 5.04491 59.6657C4.75618 59.972 4.63959 60.4627 4.53893 60.9204C4.43827 61.3781 4.35354 61.8029 4.15156 61.9713C4.19967 62.2459 4.06004 62.7427 3.93464 63.2932C3.80212 63.8168 3.70687 64.388 3.75329 64.7493C3.66111 64.7737 3.55471 64.7444 3.49843 65.2766C3.27472 66.945 3.08657 68.7477 3.0899 70.5285C3.09322 72.3092 3.288 74.0679 3.72542 75.5324C3.52313 75.3274 3.68168 76.2049 3.95546 77.0519C4.20619 77.905 4.55791 78.6738 4.44237 78.3309C4.85472 79.5147 5.31891 81.1733 6.07013 82.6121C6.41643 83.2675 6.86574 84.1254 7.37707 84.9381C7.88839 85.7509 8.43868 86.5246 8.87174 87.042C9.8124 88.172 10.8862 89.5254 12.3182 90.9275C15.6401 94.1564 19.8409 96.9799 24.5732 99.2028C29.3125 101.453 34.6134 103.122 39.9404 104.24C42.9658 105.047 46.3402 105.589 49.7641 105.947C53.1579 106.283 56.5781 106.44 59.7466 106.577C61.587 106.635 59.2518 106.478 60.6046 106.465C61.3281 106.589 62.9326 106.595 63.7659 106.575C63.3227 106.578 62.8191 106.539 63.4006 106.499C65.2745 106.405 63.8865 106.658 65.3704 106.581C66.4484 106.554 66.2976 106.45 67.4447 106.405L67.404 106.53C71.0065 106.352 74.765 106.017 78.5569 105.529C82.3489 105.041 86.2046 104.422 90.0335 103.608C93.8465 102.828 97.6168 101.886 101.229 100.814C104.872 99.7623 108.356 98.5803 111.598 97.3189C110.983 97.5106 110.205 97.8318 109.436 98.0931C108.651 98.3874 107.95 98.6304 107.507 98.6329ZM4.4865 76.0778C4.38689 75.7019 4.30321 75.2931 4.22664 74.9111C4.33644 74.767 4.45198 75.11 4.54448 75.459C4.60682 75.7873 4.63018 76.1547 4.4865 76.0778Z" fill="white"/>
<path fill-rule="evenodd" clip-rule="evenodd" d="M136.079 85.1979C135.404 85.7217 133.942 86.6263 133.015 87.1305C132.566 87.393 132.242 87.5652 132.235 87.5383C132.228 87.5115 132.568 87.3064 133.38 86.8327C133.867 86.5311 134.106 86.4102 134.47 86.199C134.81 85.9939 135.235 85.7375 136.079 85.1979Z" fill="white"/>
</g>
</g>
<defs>
<linearGradient id="paint0_linear_811_3602" x1="134" y1="85" x2="180" y2="85" gradientUnits="userSpaceOnUse">
<stop stop-color="#E2C2AB"/>
<stop offset="1" stop-color="#FFE4CE"/>
</linearGradient>
<linearGradient id="paint1_linear_811_3602" x1="-1.94225" y1="55.1988" x2="172.481" y2="55.1988" gradientUnits="userSpaceOnUse">
<stop stop-color="#5AABF1"/>
<stop offset="1" stop-color="#8EE0E6"/>
</linearGradient>
<clipPath id="clip0_811_3602">
<rect width="180" height="110" fill="white"/>
</clipPath>
<clipPath id="clip1_811_3602">
<rect width="189.916" height="115.843" fill="white" transform="translate(-20.8853 24.5029) rotate(-14.8423)"/>
</clipPath>
</defs>
</svg>
