<svg width="157" height="52" viewBox="0 0 157 52" fill="none" xmlns="http://www.w3.org/2000/svg">
<path fill-rule="evenodd" clip-rule="evenodd" d="M87.7536 39.3622C87.7536 36.6199 91.7616 36.6199 91.7616 39.3622C91.5506 42.1045 87.7536 41.6826 87.7536 39.3622ZM109.059 32.8227L109.481 35.776C104.84 38.3074 103.786 31.1351 109.059 32.8227ZM96.6135 18.6892V16.5797C98.934 15.9468 107.794 13.2044 109.692 13.2044V15.3139C107.794 15.9468 98.0902 18.6892 96.6135 18.6892ZM91.7616 32.6118C80.1594 31.3461 80.5814 45.4798 89.2303 46.1126C99.1449 46.7454 96.6135 32.8228 96.6135 23.9629C97.6683 23.3301 108.005 20.5877 109.692 20.3768V27.3381C106.528 27.549 104.63 27.5491 102.731 29.2367C96.6134 35.3542 105.684 45.2688 112.013 39.3622C115.599 35.987 114.544 29.8694 114.544 24.1738C114.544 2.44603 117.919 5.61022 94.7149 11.7278C90.7069 12.7825 91.9725 13.6263 91.7616 20.5877C91.5506 24.5957 91.7616 28.6038 91.7616 32.6118Z" fill="#fff"/>
<path fill-rule="evenodd" clip-rule="evenodd" d="M5.90498 37.2528C10.124 37.2528 9.28007 40.6279 7.38153 41.0498C6.11583 41.4717 5.27214 40.8389 4.85024 39.9951C4.63929 38.7294 5.27214 38.3075 5.90498 37.2528ZM26.578 33.4557C26.7889 35.7762 26.5779 36.4089 24.2575 36.4089C23.4137 35.987 22.148 34.9324 22.9918 33.4557C24.0466 31.5572 25.7342 32.6119 26.578 33.4557ZM13.921 16.5798C15.3977 15.525 24.4685 13.4154 26.9999 12.7826V14.8921C25.3123 16.1578 16.2415 18.2674 13.921 18.6893V16.5798ZM9.28012 12.9936C8.43633 15.525 8.8582 28.8148 8.8582 32.6119C-2.53307 31.1352 -2.53301 45.6908 6.53781 46.1127C16.6634 46.5346 13.4991 31.979 13.921 23.752L26.9999 20.3768V27.76C19.8276 26.9163 17.2962 31.979 18.3509 36.198C20.0385 43.3703 32.0626 43.5812 32.0626 33.2447V15.525C32.0626 12.1498 32.6955 9.82928 30.797 7.50884C28.0546 7.08694 10.9677 11.9388 9.28012 12.9936Z" fill="#fff"/>
<path fill-rule="evenodd" clip-rule="evenodd" d="M137.115 28.8148C134.373 29.8695 132.474 27.971 133.951 26.0725C135.428 24.3849 138.17 25.4396 137.115 28.8148ZM137.326 20.7987C123.825 19.3221 127.623 38.0965 138.17 33.6666C142.811 31.768 142.178 27.3381 142.389 21.4315C142.389 16.1578 142.178 10.6731 142.389 5.18842C143.866 6.03221 144.92 8.9855 146.186 10.4621C152.304 17.4235 159.476 11.5169 155.046 9.1965C152.304 7.71986 151.46 10.2512 148.717 5.82124C147.452 3.71175 146.819 1.81328 144.498 0.758532C142.389 -0.296215 138.17 -0.507164 137.326 1.81328C136.904 3.92277 137.537 17.2126 137.326 20.7987Z" fill="#fff"/>
<path fill-rule="evenodd" clip-rule="evenodd" d="M49.3601 43.1595L51.6805 43.3704C52.3133 44.8471 52.3134 44.8471 52.1024 46.5347C49.1491 47.5894 46.6178 45.9019 49.3601 43.1595ZM52.3134 38.3077C38.8127 36.6201 42.3988 55.6056 52.9463 51.3866C60.7514 48.2224 55.2667 32.6121 57.3762 22.9084C59.2747 25.4398 60.9623 29.0259 63.7046 30.5026C68.7674 33.2449 73.6193 30.0807 70.455 27.3383C68.7674 25.8617 67.0798 27.3383 65.1813 25.4397C62.8609 23.1193 61.5951 16.5799 54.8447 17.8456C53.1571 18.0566 53.3681 18.2675 52.7352 19.1112C51.6805 20.7988 52.3134 35.1435 52.3134 38.3077Z" fill="#fff"/>
</svg>
