<svg width="48" height="48" viewBox="0 0 48 48" fill="none" xmlns="http://www.w3.org/2000/svg">
<path d="M37.1429 16.9474C38.7209 16.9474 40 15.6683 40 14.0903C40 12.5123 38.7209 11.2332 37.1429 11.2332C35.5649 11.2332 34.2857 12.5123 34.2857 14.0903C34.2857 15.6683 35.5649 16.9474 37.1429 16.9474Z" fill="#212529"/>
<path d="M37.1429 29.2783C38.7209 29.2783 40 27.999 40 26.4211C40 24.8431 38.7209 23.564 37.1429 23.564C35.5649 23.564 34.2857 24.8431 34.2857 26.4211C34.2857 27.999 35.5649 29.2783 37.1429 29.2783Z" fill="#212529"/>
<path d="M27.2932 12.0601C25.4135 10.0301 23.233 8.75187 20.827 8.22556C20.3007 8.07518 19.4736 8 18.797 8C18.797 8 18.797 8 18.7218 8C18.4962 8 18.2706 7.99998 18.0451 8.07517C17.9699 8.07517 17.9698 8.07517 17.8946 8.07517C17.2179 8.15036 16.6165 8.22555 15.9398 8.45111C15.7894 8.5263 15.639 8.52631 15.4886 8.6015C15.1127 8.75187 14.7368 8.82706 14.3608 8.97744C11.654 10.1053 9.02244 12.3609 8.04499 16.6467C8.04499 16.6467 7.59386 19.0527 9.54875 21.0076C10.7518 22.2106 12.6315 22.6617 14.2857 21.985C16.4661 21.0827 17.5187 18.5263 16.6165 16.3459C15.9398 14.7669 14.436 13.7895 12.8571 13.7143C13.6089 12.9624 14.5112 12.3609 15.4886 11.985C16.2405 11.6842 17.0676 11.4586 17.8946 11.3083C17.9698 11.3083 18.045 11.3083 18.1954 11.3083C22.8571 11.3083 26.4662 16.7218 25.9398 21.0827C25.8647 21.985 25.639 22.9625 25.4135 23.8647C24.436 27.6993 22.7068 31.4587 19.8496 34.2407C18.8722 35.2181 17.7443 35.8197 16.5413 36.4212C16.015 36.6467 15.4134 36.9475 14.8871 37.2482C14.1352 37.6994 13.5337 38.9775 14.8119 39.2031C15.0375 39.2783 15.2631 39.2031 15.5638 39.1279C17.0676 38.6768 18.421 37.925 19.6992 37.0227C20.0751 36.722 20.5262 36.4211 20.9022 36.1956C25.4135 32.7369 29.0977 27.6993 29.6993 21.9098C30.1504 18.2256 29.6992 14.6917 27.2932 12.0601Z" fill="#212529"/>
</svg>
