<svg width="154" height="44" viewBox="0 0 154 44" fill="none" xmlns="http://www.w3.org/2000/svg">
<path fill-rule="evenodd" clip-rule="evenodd" d="M127.206 5.35352C127.928 5.35352 128.514 5.93929 128.514 6.66188V14.612C128.514 14.6263 128.514 14.6406 128.514 14.6548V21.9998C128.514 22.6034 128.87 23.1237 129.384 23.3617C129.576 23.4504 129.789 23.4999 130.014 23.4999C130.843 23.4999 131.514 22.8283 131.514 21.9999V14.6328C131.526 14.0397 132.01 13.5625 132.606 13.5625C133.21 13.5625 133.699 14.0516 133.699 14.6548V21.9998C133.699 22.8282 134.37 23.4998 135.199 23.4998C135.199 23.4998 135.199 23.4998 135.199 23.4998C136.027 23.4998 136.699 22.8282 136.699 21.9998V14.6548C136.699 14.0516 137.188 13.5625 137.791 13.5625C138.388 13.5625 138.874 14.0415 138.884 14.6362V21.9999C138.884 22.8283 139.555 23.4999 140.384 23.4999C140.683 23.4999 140.962 23.4122 141.196 23.2611C141.61 22.9941 141.884 22.5289 141.884 21.9998V14.6548L141.884 14.6187V9.25423C141.884 8.53164 142.469 7.94586 143.192 7.94586C143.914 7.94586 144.5 8.53163 144.5 9.25423V27.0487C144.5 32.9016 139.756 37.6463 133.903 37.6463H131.49C126.018 37.6463 121.462 33.4994 121.139 28.1101C121.115 27.697 121.091 27.3268 121.07 26.987C120.984 25.611 120.929 24.7325 120.929 23.5121C120.929 21.5213 121.267 20.2343 121.616 19.4332C121.8 19.0119 122.216 18.679 122.897 18.4895V21.9999C122.897 22.8283 123.569 23.4999 124.397 23.4999C125.226 23.4999 125.897 22.8283 125.897 21.9999V6.66189C125.897 5.93929 126.483 5.35352 127.206 5.35352ZM135.199 11.4883C135.905 10.9097 136.807 10.5625 137.791 10.5625C138.17 10.5625 138.536 10.6138 138.884 10.7099V9.25423C138.884 6.87478 140.812 4.94586 143.192 4.94586C145.571 4.94586 147.5 6.87478 147.5 9.25423V27.0487C147.5 34.5585 141.412 40.6463 133.903 40.6463H131.49C124.504 40.6463 118.567 35.3359 118.145 28.2895C118.121 27.8905 118.098 27.5291 118.077 27.1943C117.988 25.7633 117.929 24.8188 117.929 23.5121C117.929 21.1805 118.325 19.4736 118.867 18.2328C119.666 16.4035 121.347 15.68 122.897 15.4304V6.66189C122.897 4.28244 124.826 2.35352 127.206 2.35352C129.585 2.35352 131.514 4.28243 131.514 6.66188V10.7098C131.862 10.6138 132.228 10.5625 132.606 10.5625C133.59 10.5625 134.493 10.9097 135.199 11.4883Z" fill="#212529"/>
<path d="M87.6724 13.4965C82.57 14.9421 77.6094 16.3028 72.7054 17.7768C72.3369 17.8902 71.9684 18.6555 71.9684 19.1374C71.9117 23.9563 71.9401 28.7752 71.9401 33.5941C71.9401 37.0807 69.7291 39.4052 66.4976 39.3485C64.2298 39.3201 62.6424 38.2146 61.6787 36.202C60.7149 34.1611 61.0834 32.2051 62.529 30.5327C63.9464 28.8886 65.7605 28.3217 67.8865 28.8603C68.1983 28.9453 68.5102 29.0303 68.992 29.1721C69.0204 28.5768 69.0771 28.0949 69.0771 27.5847C69.0771 22.5673 69.1338 17.5784 69.0487 12.561C69.0204 11.087 69.559 10.35 71.0046 9.95316C76.7023 8.42245 82.3716 6.77835 88.0409 5.19095C89.9117 4.68071 90.5637 5.1626 90.5637 7.00512C90.5637 14.2335 90.5921 21.4618 90.5637 28.6902C90.5637 30.9862 89.4299 32.6587 87.3606 33.6225C85.433 34.5012 83.5621 34.2461 81.8897 32.9422C80.1039 31.5248 79.4802 29.5973 80.0188 27.3579C80.6708 24.6366 83.4488 22.9075 86.2267 23.4744C86.6803 23.5595 87.1338 23.7012 87.6724 23.8429C87.6724 20.4414 87.6724 17.0681 87.6724 13.4965Z" fill="#212529"/>
<path fill-rule="evenodd" clip-rule="evenodd" d="M22 0L18.2811 9.33469L10.1059 3.49242L12.0241 13.3558L1.98811 12.8609L8.93437 20.1214L0.223938 25.1309L9.99287 27.4835L5.37352 36.4069L14.8636 33.1045L15.8019 43.1088L22 35.2L28.1981 43.1088L29.1365 33.1045L38.6265 36.4069L34.0071 27.4835L43.7761 25.1309L35.0657 20.1214L42.0119 12.8609L31.9759 13.3558L33.8941 3.49242L25.7189 9.33469L22 0ZM29.5118 10.3115L24.3487 14.0012L22 8.10585L19.6514 14.0012L14.4883 10.3115L15.6997 16.5408L9.36145 16.2282L13.7484 20.8136L8.24729 23.9773L14.4169 25.4631L11.4995 31.0987L17.493 29.0131L18.0856 35.3313L22 30.3365L25.9144 35.3313L26.5071 29.0131L32.5005 31.0987L29.5831 25.4631L35.7527 23.9773L30.2516 20.8136L34.6386 16.2282L28.3003 16.5408L29.5118 10.3115Z" fill="#212529"/>
</svg>
