<svg width="525" height="99" viewBox="0 0 525 99" fill="none" xmlns="http://www.w3.org/2000/svg">
<path fill-rule="evenodd" clip-rule="evenodd" d="M61 4C61 1.79086 62.7909 0 65 0C67.2091 0 69 1.79086 69 4V42H61V4ZM53 42H61V95C61 97.2091 59.2091 99 57 99C54.7909 99 53 97.2091 53 95V42ZM45 42V8C45 5.79086 46.7909 4 49 4C51.2091 4 53 5.79086 53 8V42H45ZM37 42H45V63C45 65.2091 43.2091 67 41 67C38.7909 67 37 65.2091 37 63V42ZM29 42V25C29 22.7909 30.7909 21 33 21C35.2091 21 37 22.7909 37 25V42H29ZM21 42H29V53C29 55.2091 27.2091 57 25 57C22.7909 57 21 55.2091 21 53V42ZM13 42V33C13 30.7909 14.7909 29 17 29C19.2091 29 21 30.7909 21 33V42H13ZM5 42H13V44C13 46.2091 11.2091 48 9 48C6.79086 48 5 46.2091 5 44V42ZM5 42H-3V39C-3 36.7909 -1.20914 35 1 35C3.20914 35 5 36.7909 5 39V42ZM77 42V76C77 78.2091 75.2091 80 73 80C70.7909 80 69 78.2091 69 76V42H77ZM85 42H77V14C77 11.7909 78.7909 10 81 10C83.2091 10 85 11.7909 85 14V42ZM93 42V52C93 54.2091 91.2091 56 89 56C86.7909 56 85 54.2091 85 52V42H93ZM101 42H93V41C93 38.7909 94.7909 37 97 37C99.2091 37 101 38.7909 101 41V42ZM109 42V48C109 50.2091 107.209 52 105 52C102.791 52 101 50.2091 101 48V42H109ZM117 42H109V36C109 33.7909 110.791 32 113 32C115.209 32 117 33.7909 117 36V42ZM125 42V54C125 56.2091 123.209 58 121 58C118.791 58 117 56.2091 117 54V42H125ZM133 42H125V28C125 25.7909 126.791 24 129 24C131.209 24 133 25.7909 133 28V42ZM141 42V60C141 62.2091 139.209 64 137 64C134.791 64 133 62.2091 133 60V42H141ZM149 42H141V36C141 33.7909 142.791 32 145 32C147.209 32 149 33.7909 149 36V42ZM157 42V55C157 57.2091 155.209 59 153 59C150.791 59 149 57.2091 149 55V42H157ZM165 42H157V31C157 28.7909 158.791 27 161 27C163.209 27 165 28.7909 165 31V42ZM173 42V57C173 59.2091 171.209 61 169 61C166.791 61 165 59.2091 165 57V42H173ZM181 42H173V24C173 21.7909 174.791 20 177 20C179.209 20 181 21.7909 181 24V42ZM189 42V74C189 76.2091 187.209 78 185 78C182.791 78 181 76.2091 181 74V42H189ZM197 42H189V20C189 17.7909 190.791 16 193 16C195.209 16 197 17.7909 197 20V42ZM205 42V91C205 93.2091 203.209 95 201 95C198.791 95 197 93.2091 197 91V42H205ZM213 42H205V10C205 7.79086 206.791 6 209 6C211.209 6 213 7.79086 213 10V42ZM221 42V73C221 75.2091 219.209 77 217 77C214.791 77 213 75.2091 213 73V42H221ZM229 42H221V17C221 14.7909 222.791 13 225 13C227.209 13 229 14.7909 229 17V42ZM237 42V61C237 63.2091 235.209 65 233 65C230.791 65 229 63.2091 229 61V42H237ZM245 42H237V34C237 31.7909 238.791 30 241 30C243.209 30 245 31.7909 245 34V42ZM253 42V53C253 55.2091 251.209 57 249 57C246.791 57 245 55.2091 245 53V42H253ZM261 42H253V39C253 36.7909 254.791 35 257 35C259.209 35 261 36.7909 261 39V42ZM269 42V44C269 46.2091 267.209 48 265 48C262.791 48 261 46.2091 261 44V42H269ZM277 42H269V33C269 30.7909 270.791 29 273 29C275.209 29 277 30.7909 277 33V42ZM285 42V53C285 55.2091 283.209 57 281 57C278.791 57 277 55.2091 277 53V42H285ZM293 42H285V25C285 22.7909 286.791 21 289 21C291.209 21 293 22.7909 293 25V42ZM301 42V63C301 65.2091 299.209 67 297 67C294.791 67 293 65.2091 293 63V42H301ZM309 42H301V8C301 5.79086 302.791 4 305 4C307.209 4 309 5.79086 309 8V42ZM317 42V95C317 97.2091 315.209 99 313 99C310.791 99 309 97.2091 309 95V42H317ZM325 42H317V4C317 1.79086 318.791 0 321 0C323.209 0 325 1.79086 325 4V42ZM333 42V76C333 78.2091 331.209 80 329 80C326.791 80 325 78.2091 325 76V42H333ZM341 42H333V14C333 11.7909 334.791 10 337 10C339.209 10 341 11.7909 341 14V42ZM349 42V52C349 54.2091 347.209 56 345 56C342.791 56 341 54.2091 341 52V42H349ZM357 42H349V41C349 38.7909 350.791 37 353 37C355.209 37 357 38.7909 357 41V42ZM365 42V48C365 50.2091 363.209 52 361 52C358.791 52 357 50.2091 357 48V42H365ZM373 42H365V36C365 33.7909 366.791 32 369 32C371.209 32 373 33.7909 373 36V42ZM381 42V54C381 56.2091 379.209 58 377 58C374.791 58 373 56.2091 373 54V42H381ZM389 42H381V28C381 25.7909 382.791 24 385 24C387.209 24 389 25.7909 389 28V42ZM397 42V60C397 62.2091 395.209 64 393 64C390.791 64 389 62.2091 389 60V42H397ZM405 42H397V36C397 33.7909 398.791 32 401 32C403.209 32 405 33.7909 405 36V42ZM413 42V55C413 57.2091 411.209 59 409 59C406.791 59 405 57.2091 405 55V42H413ZM421 42H413V31C413 28.7909 414.791 27 417 27C419.209 27 421 28.7909 421 31V42ZM429 42V57C429 59.2091 427.209 61 425 61C422.791 61 421 59.2091 421 57V42H429ZM437 42H429V24C429 21.7909 430.791 20 433 20C435.209 20 437 21.7909 437 24V42ZM445 42V74C445 76.2091 443.209 78 441 78C438.791 78 437 76.2091 437 74V42H445ZM453 42H445V20C445 17.7909 446.791 16 449 16C451.209 16 453 17.7909 453 20V42ZM461 42V91C461 93.2091 459.209 95 457 95C454.791 95 453 93.2091 453 91V42H461ZM469 42H461V10C461 7.79086 462.791 6 465 6C467.209 6 469 7.79086 469 10V42ZM477 42V73C477 75.2091 475.209 77 473 77C470.791 77 469 75.2091 469 73V42H477ZM485 42H477V17C477 14.7909 478.791 13 481 13C483.209 13 485 14.7909 485 17V42ZM493 42V61C493 63.2091 491.209 65 489 65C486.791 65 485 63.2091 485 61V42H493ZM501 42H493V34C493 31.7909 494.791 30 497 30C499.209 30 501 31.7909 501 34V42ZM509 42H501V53C501 55.2091 502.791 57 505 57C507.209 57 509 55.2091 509 53V42ZM517 42H509V39C509 36.7909 510.791 35 513 35C515.209 35 517 36.7909 517 39V42ZM517 42H525V43C525 45.2091 523.209 47 521 47C518.791 47 517 45.2091 517 43V42Z" fill="url(#paint0_linear_721_438)"/>
<defs>
<linearGradient id="paint0_linear_721_438" x1="-3" y1="42" x2="525" y2="42" gradientUnits="userSpaceOnUse">
<stop stop-color="white"/>
<stop offset="1" stop-color="white" stop-opacity="0"/>
</linearGradient>
</defs>
</svg>
