<svg width="265" height="40" viewBox="0 0 265 40" fill="none" xmlns="http://www.w3.org/2000/svg">
<path d="M22.926 23.4459H26.146V24.9999H20.966V15.2279H22.926V23.4459Z" fill="#3A322C"/>
<path d="M30.6258 23.1939L32.5858 17.2439H34.6718L31.8018 24.9999H29.4218L26.5658 17.2439H28.6658L30.6258 23.1939Z" fill="#3A322C"/>
<path d="M36.7666 16.3199C36.4213 16.3199 36.132 16.2125 35.8986 15.9979C35.6746 15.7739 35.5626 15.4985 35.5626 15.1719C35.5626 14.8452 35.6746 14.5745 35.8986 14.3599C36.132 14.1359 36.4213 14.0239 36.7666 14.0239C37.112 14.0239 37.3966 14.1359 37.6206 14.3599C37.854 14.5745 37.9706 14.8452 37.9706 15.1719C37.9706 15.4985 37.854 15.7739 37.6206 15.9979C37.3966 16.2125 37.112 16.3199 36.7666 16.3199ZM37.7326 17.2439V24.9999H35.7726V17.2439H37.7326Z" fill="#3A322C"/>
<path d="M42.9031 23.1939L44.8631 17.2439H46.9491L44.0791 24.9999H41.6991L38.8431 17.2439H40.9431L42.9031 23.1939Z" fill="#3A322C"/>
<path d="M50.9099 20.0999C50.9099 19.1385 51.1246 18.2799 51.5539 17.5239C51.9926 16.7585 52.5853 16.1659 53.3319 15.7459C54.0879 15.3165 54.9326 15.1019 55.8659 15.1019C56.9579 15.1019 57.9146 15.3819 58.7359 15.9419C59.5573 16.5019 60.1313 17.2765 60.4579 18.2659H58.2039C57.9799 17.7992 57.6626 17.4492 57.2519 17.2159C56.8506 16.9825 56.3839 16.8659 55.8519 16.8659C55.2826 16.8659 54.7739 17.0012 54.3259 17.2719C53.8873 17.5332 53.5419 17.9065 53.2899 18.3919C53.0473 18.8772 52.9259 19.4465 52.9259 20.0999C52.9259 20.7439 53.0473 21.3132 53.2899 21.8079C53.5419 22.2932 53.8873 22.6712 54.3259 22.9419C54.7739 23.2032 55.2826 23.3339 55.8519 23.3339C56.3839 23.3339 56.8506 23.2172 57.2519 22.9839C57.6626 22.7412 57.9799 22.3865 58.2039 21.9199H60.4579C60.1313 22.9185 59.5573 23.6979 58.7359 24.2579C57.9239 24.8085 56.9673 25.0839 55.8659 25.0839C54.9326 25.0839 54.0879 24.8739 53.3319 24.4539C52.5853 24.0245 51.9926 23.4319 51.5539 22.6759C51.1246 21.9199 50.9099 21.0612 50.9099 20.0999Z" fill="#3A322C"/>
<path d="M66.5 17.1319C67.088 17.1319 67.6107 17.2625 68.068 17.5239C68.5254 17.7759 68.88 18.1539 69.132 18.6579C69.3934 19.1525 69.524 19.7499 69.524 20.4499V24.9999H67.564V20.7159C67.564 20.0999 67.41 19.6285 67.102 19.3019C66.794 18.9659 66.374 18.7979 65.842 18.7979C65.3007 18.7979 64.8714 18.9659 64.554 19.3019C64.246 19.6285 64.092 20.0999 64.092 20.7159V24.9999H62.132V14.6399H64.092V18.2099C64.344 17.8739 64.68 17.6125 65.1 17.4259C65.52 17.2299 65.9867 17.1319 66.5 17.1319Z" fill="#3A322C"/>
<path d="M72.3819 16.3199C72.0365 16.3199 71.7472 16.2125 71.5139 15.9979C71.2899 15.7739 71.1779 15.4985 71.1779 15.1719C71.1779 14.8452 71.2899 14.5745 71.5139 14.3599C71.7472 14.1359 72.0365 14.0239 72.3819 14.0239C72.7272 14.0239 73.0119 14.1359 73.2359 14.3599C73.4692 14.5745 73.5859 14.8452 73.5859 15.1719C73.5859 15.4985 73.4692 15.7739 73.2359 15.9979C73.0119 16.2125 72.7272 16.3199 72.3819 16.3199ZM73.3479 17.2439V24.9999H71.3879V17.2439H73.3479Z" fill="#3A322C"/>
<path d="M77.2444 14.6399V24.9999H75.2844V14.6399H77.2444Z" fill="#3A322C"/>
<path d="M78.6768 21.0939C78.6768 20.3099 78.8308 19.6145 79.1388 19.0079C79.4562 18.4012 79.8855 17.9345 80.4268 17.6079C80.9682 17.2812 81.5702 17.1179 82.2328 17.1179C82.7368 17.1179 83.2175 17.2299 83.6748 17.4539C84.1322 17.6685 84.4962 17.9579 84.7668 18.3219V14.6399H86.7548V24.9999H84.7668V23.8519C84.5242 24.2345 84.1835 24.5425 83.7448 24.7759C83.3062 25.0092 82.7975 25.1259 82.2188 25.1259C81.5655 25.1259 80.9682 24.9579 80.4268 24.6219C79.8855 24.2859 79.4562 23.8145 79.1388 23.2079C78.8308 22.5919 78.6768 21.8872 78.6768 21.0939ZM84.7808 21.1219C84.7808 20.6459 84.6875 20.2399 84.5009 19.9039C84.3142 19.5585 84.0622 19.2972 83.7448 19.1199C83.4275 18.9332 83.0868 18.8399 82.7228 18.8399C82.3588 18.8399 82.0228 18.9285 81.7148 19.1059C81.4068 19.2832 81.1548 19.5445 80.9588 19.8899C80.7722 20.2259 80.6788 20.6272 80.6788 21.0939C80.6788 21.5605 80.7722 21.9712 80.9588 22.3259C81.1548 22.6712 81.4068 22.9372 81.7148 23.1239C82.0322 23.3105 82.3682 23.4039 82.7228 23.4039C83.0868 23.4039 83.4275 23.3152 83.7448 23.1379C84.0622 22.9512 84.3142 22.6899 84.5009 22.3539C84.6875 22.0085 84.7808 21.5979 84.7808 21.1219Z" fill="#3A322C"/>
<path d="M90.6291 18.4479C90.8811 18.0372 91.2078 17.7152 91.6091 17.4819C92.0198 17.2485 92.4865 17.1319 93.0091 17.1319V19.1899H92.4911C91.8751 19.1899 91.4085 19.3345 91.0911 19.6239C90.7831 19.9132 90.6291 20.4172 90.6291 21.1359V24.9999H88.6691V17.2439H90.6291V18.4479Z" fill="#3A322C"/>
<path d="M101.539 20.9539C101.539 21.2339 101.521 21.4859 101.483 21.7099H95.8133C95.8599 22.2699 96.0559 22.7085 96.4013 23.0259C96.7466 23.3432 97.1713 23.5019 97.6753 23.5019C98.4033 23.5019 98.9213 23.1892 99.2293 22.5639H101.343C101.119 23.3105 100.69 23.9265 100.055 24.4119C99.4206 24.8879 98.6413 25.1259 97.7173 25.1259C96.9706 25.1259 96.2986 24.9625 95.7013 24.6359C95.1133 24.2999 94.6513 23.8285 94.3153 23.2219C93.9886 22.6152 93.8253 21.9152 93.8253 21.1219C93.8253 20.3192 93.9886 19.6145 94.3153 19.0079C94.642 18.4012 95.0993 17.9345 95.6873 17.6079C96.2753 17.2812 96.952 17.1179 97.7173 17.1179C98.4546 17.1179 99.1126 17.2765 99.6913 17.5939C100.279 17.9112 100.732 18.3639 101.049 18.9519C101.376 19.5305 101.539 20.1979 101.539 20.9539ZM99.5093 20.3939C99.5 19.8899 99.3179 19.4885 98.9633 19.1899C98.6086 18.8819 98.1746 18.7279 97.6613 18.7279C97.1759 18.7279 96.7653 18.8772 96.4293 19.1759C96.1026 19.4652 95.9019 19.8712 95.8273 20.3939H99.5093Z" fill="#3A322C"/>
<path d="M107.268 17.1319C108.192 17.1319 108.939 17.4259 109.508 18.0139C110.077 18.5925 110.362 19.4045 110.362 20.4499V24.9999H108.402V20.7159C108.402 20.0999 108.248 19.6285 107.94 19.3019C107.632 18.9659 107.212 18.7979 106.68 18.7979C106.139 18.7979 105.709 18.9659 105.392 19.3019C105.084 19.6285 104.93 20.0999 104.93 20.7159V24.9999H102.97V17.2439H104.93V18.2099C105.191 17.8739 105.523 17.6125 105.924 17.4259C106.335 17.2299 106.783 17.1319 107.268 17.1319Z" fill="#3A322C"/>
<path d="M113.458 13.8279L113.29 16.7959H111.96L111.778 13.8279H113.458Z" fill="#3A322C"/>
<path d="M117.928 25.1259C117.293 25.1259 116.724 25.0139 116.22 24.7899C115.716 24.5565 115.315 24.2439 115.016 23.8519C114.727 23.4599 114.568 23.0259 114.54 22.5499H116.514C116.551 22.8485 116.696 23.0959 116.948 23.2919C117.209 23.4879 117.531 23.5859 117.914 23.5859C118.287 23.5859 118.577 23.5112 118.782 23.3619C118.997 23.2125 119.104 23.0212 119.104 22.7879C119.104 22.5359 118.973 22.3492 118.712 22.2279C118.46 22.0972 118.054 21.9572 117.494 21.8079C116.915 21.6679 116.439 21.5232 116.066 21.3739C115.702 21.2245 115.385 20.9959 115.114 20.6879C114.853 20.3799 114.722 19.9645 114.722 19.4419C114.722 19.0125 114.843 18.6205 115.086 18.2659C115.338 17.9112 115.693 17.6312 116.15 17.4259C116.617 17.2205 117.163 17.1179 117.788 17.1179C118.712 17.1179 119.449 17.3512 120 17.8179C120.551 18.2752 120.854 18.8959 120.91 19.6799H119.034C119.006 19.3719 118.875 19.1292 118.642 18.9519C118.418 18.7652 118.115 18.6719 117.732 18.6719C117.377 18.6719 117.102 18.7372 116.906 18.8679C116.719 18.9985 116.626 19.1805 116.626 19.4139C116.626 19.6752 116.757 19.8759 117.018 20.0159C117.279 20.1465 117.685 20.2819 118.236 20.4219C118.796 20.5619 119.258 20.7065 119.622 20.8559C119.986 21.0052 120.299 21.2385 120.56 21.5559C120.831 21.8639 120.971 22.2745 120.98 22.7879C120.98 23.2359 120.854 23.6372 120.602 23.9919C120.359 24.3465 120.005 24.6265 119.538 24.8319C119.081 25.0279 118.544 25.1259 117.928 25.1259Z" fill="#3A322C"/>
<path d="M136.579 15.2279V24.9999H134.619V18.6439L132.001 24.9999H130.517L127.885 18.6439V24.9999H125.925V15.2279H128.151L131.259 22.4939L134.367 15.2279H136.579Z" fill="#3A322C"/>
<path d="M145.839 17.2439V24.9999H143.865V24.0199C143.613 24.3559 143.281 24.6219 142.871 24.8179C142.469 25.0045 142.031 25.0979 141.555 25.0979C140.948 25.0979 140.411 24.9719 139.945 24.7199C139.478 24.4585 139.109 24.0805 138.839 23.5859C138.577 23.0819 138.447 22.4845 138.447 21.7939V17.2439H140.407V21.5139C140.407 22.1299 140.561 22.6059 140.869 22.9419C141.177 23.2685 141.597 23.4319 142.129 23.4319C142.67 23.4319 143.095 23.2685 143.403 22.9419C143.711 22.6059 143.865 22.1299 143.865 21.5139V17.2439H145.839Z" fill="#3A322C"/>
<path d="M150.741 25.1259C150.106 25.1259 149.537 25.0139 149.033 24.7899C148.529 24.5565 148.127 24.2439 147.829 23.8519C147.539 23.4599 147.381 23.0259 147.353 22.5499H149.327C149.364 22.8485 149.509 23.0959 149.761 23.2919C150.022 23.4879 150.344 23.5859 150.727 23.5859C151.1 23.5859 151.389 23.5112 151.595 23.3619C151.809 23.2125 151.917 23.0212 151.917 22.7879C151.917 22.5359 151.786 22.3492 151.525 22.2279C151.273 22.0972 150.867 21.9572 150.307 21.8079C149.728 21.6679 149.252 21.5232 148.879 21.3739C148.515 21.2245 148.197 20.9959 147.927 20.6879C147.665 20.3799 147.535 19.9645 147.535 19.4419C147.535 19.0125 147.656 18.6205 147.899 18.2659C148.151 17.9112 148.505 17.6312 148.963 17.4259C149.429 17.2205 149.975 17.1179 150.601 17.1179C151.525 17.1179 152.262 17.3512 152.813 17.8179C153.363 18.2752 153.667 18.8959 153.723 19.6799H151.847C151.819 19.3719 151.688 19.1292 151.455 18.9519C151.231 18.7652 150.927 18.6719 150.545 18.6719C150.19 18.6719 149.915 18.7372 149.719 18.8679C149.532 18.9985 149.439 19.1805 149.439 19.4139C149.439 19.6752 149.569 19.8759 149.831 20.0159C150.092 20.1465 150.498 20.2819 151.049 20.4219C151.609 20.5619 152.071 20.7065 152.435 20.8559C152.799 21.0052 153.111 21.2385 153.373 21.5559C153.643 21.8639 153.783 22.2745 153.793 22.7879C153.793 23.2359 153.667 23.6372 153.415 23.9919C153.172 24.3465 152.817 24.6265 152.351 24.8319C151.893 25.0279 151.357 25.1259 150.741 25.1259Z" fill="#3A322C"/>
<path d="M156.396 16.3199C156.05 16.3199 155.761 16.2125 155.528 15.9979C155.304 15.7739 155.192 15.4985 155.192 15.1719C155.192 14.8452 155.304 14.5745 155.528 14.3599C155.761 14.1359 156.05 14.0239 156.396 14.0239C156.741 14.0239 157.026 14.1359 157.25 14.3599C157.483 14.5745 157.6 14.8452 157.6 15.1719C157.6 15.4985 157.483 15.7739 157.25 15.9979C157.026 16.2125 156.741 16.3199 156.396 16.3199ZM157.362 17.2439V24.9999H155.402V17.2439H157.362Z" fill="#3A322C"/>
<path d="M158.794 21.1219C158.794 20.3192 158.957 19.6192 159.284 19.0219C159.611 18.4152 160.063 17.9485 160.642 17.6219C161.221 17.2859 161.883 17.1179 162.63 17.1179C163.591 17.1179 164.385 17.3605 165.01 17.8459C165.645 18.3219 166.069 18.9939 166.284 19.8619H164.17C164.058 19.5259 163.867 19.2645 163.596 19.0779C163.335 18.8819 163.008 18.7839 162.616 18.7839C162.056 18.7839 161.613 18.9892 161.286 19.3999C160.959 19.8012 160.796 20.3752 160.796 21.1219C160.796 21.8592 160.959 22.4332 161.286 22.8439C161.613 23.2452 162.056 23.4459 162.616 23.4459C163.409 23.4459 163.927 23.0912 164.17 22.3819H166.284C166.069 23.2219 165.645 23.8892 165.01 24.3839C164.375 24.8785 163.582 25.1259 162.63 25.1259C161.883 25.1259 161.221 24.9625 160.642 24.6359C160.063 24.2999 159.611 23.8332 159.284 23.2359C158.957 22.6292 158.794 21.9245 158.794 21.1219Z" fill="#3A322C"/>
<path d="M174.43 25.0979C173.749 25.0979 173.133 24.9812 172.582 24.7479C172.041 24.5145 171.611 24.1785 171.294 23.7399C170.977 23.3012 170.813 22.7832 170.804 22.1859H172.904C172.932 22.5872 173.072 22.9045 173.324 23.1379C173.585 23.3712 173.94 23.4879 174.388 23.4879C174.845 23.4879 175.205 23.3805 175.466 23.1659C175.727 22.9419 175.858 22.6525 175.858 22.2979C175.858 22.0085 175.769 21.7705 175.592 21.5839C175.415 21.3972 175.191 21.2525 174.92 21.1499C174.659 21.0379 174.295 20.9165 173.828 20.7859C173.193 20.5992 172.675 20.4172 172.274 20.2399C171.882 20.0532 171.541 19.7779 171.252 19.4139C170.972 19.0405 170.832 18.5459 170.832 17.9299C170.832 17.3512 170.977 16.8472 171.266 16.4179C171.555 15.9885 171.961 15.6619 172.484 15.4379C173.007 15.2045 173.604 15.0879 174.276 15.0879C175.284 15.0879 176.101 15.3352 176.726 15.8299C177.361 16.3152 177.711 16.9965 177.776 17.8739H175.62C175.601 17.5379 175.457 17.2625 175.186 17.0479C174.925 16.8239 174.575 16.7119 174.136 16.7119C173.753 16.7119 173.445 16.8099 173.212 17.0059C172.988 17.2019 172.876 17.4865 172.876 17.8599C172.876 18.1212 172.96 18.3405 173.128 18.5179C173.305 18.6859 173.52 18.8259 173.772 18.9379C174.033 19.0405 174.397 19.1619 174.864 19.3019C175.499 19.4885 176.017 19.6752 176.418 19.8619C176.819 20.0485 177.165 20.3285 177.454 20.7019C177.743 21.0752 177.888 21.5652 177.888 22.1719C177.888 22.6945 177.753 23.1799 177.482 23.6279C177.211 24.0759 176.815 24.4352 176.292 24.7059C175.769 24.9672 175.149 25.0979 174.43 25.0979Z" fill="#3A322C"/>
<path d="M179.083 21.1219C179.083 20.3192 179.246 19.6192 179.573 19.0219C179.9 18.4152 180.352 17.9485 180.931 17.6219C181.51 17.2859 182.172 17.1179 182.919 17.1179C183.88 17.1179 184.674 17.3605 185.299 17.8459C185.934 18.3219 186.358 18.9939 186.573 19.8619H184.459C184.347 19.5259 184.156 19.2645 183.885 19.0779C183.624 18.8819 183.297 18.7839 182.905 18.7839C182.345 18.7839 181.902 18.9892 181.575 19.3999C181.248 19.8012 181.085 20.3752 181.085 21.1219C181.085 21.8592 181.248 22.4332 181.575 22.8439C181.902 23.2452 182.345 23.4459 182.905 23.4459C183.698 23.4459 184.216 23.0912 184.459 22.3819H186.573C186.358 23.2219 185.934 23.8892 185.299 24.3839C184.664 24.8785 183.871 25.1259 182.919 25.1259C182.172 25.1259 181.51 24.9625 180.931 24.6359C180.352 24.2999 179.9 23.8332 179.573 23.2359C179.246 22.6292 179.083 21.9245 179.083 21.1219Z" fill="#3A322C"/>
<path d="M192.377 17.1319C192.965 17.1319 193.488 17.2625 193.945 17.5239C194.402 17.7759 194.757 18.1539 195.009 18.6579C195.27 19.1525 195.401 19.7499 195.401 20.4499V24.9999H193.441V20.7159C193.441 20.0999 193.287 19.6285 192.979 19.3019C192.671 18.9659 192.251 18.7979 191.719 18.7979C191.178 18.7979 190.748 18.9659 190.431 19.3019C190.123 19.6285 189.969 20.0999 189.969 20.7159V24.9999H188.009V14.6399H189.969V18.2099C190.221 17.8739 190.557 17.6125 190.977 17.4259C191.397 17.2299 191.864 17.1319 192.377 17.1319Z" fill="#3A322C"/>
<path d="M200.709 25.1259C199.962 25.1259 199.29 24.9625 198.693 24.6359C198.095 24.2999 197.624 23.8285 197.279 23.2219C196.943 22.6152 196.775 21.9152 196.775 21.1219C196.775 20.3285 196.947 19.6285 197.293 19.0219C197.647 18.4152 198.128 17.9485 198.735 17.6219C199.341 17.2859 200.018 17.1179 200.765 17.1179C201.511 17.1179 202.188 17.2859 202.795 17.6219C203.401 17.9485 203.877 18.4152 204.223 19.0219C204.577 19.6285 204.755 20.3285 204.755 21.1219C204.755 21.9152 204.573 22.6152 204.209 23.2219C203.854 23.8285 203.369 24.2999 202.753 24.6359C202.146 24.9625 201.465 25.1259 200.709 25.1259ZM200.709 23.4179C201.063 23.4179 201.395 23.3339 201.703 23.1659C202.02 22.9885 202.272 22.7272 202.459 22.3819C202.645 22.0365 202.739 21.6165 202.739 21.1219C202.739 20.3845 202.543 19.8199 202.151 19.4279C201.768 19.0265 201.297 18.8259 200.737 18.8259C200.177 18.8259 199.705 19.0265 199.323 19.4279C198.949 19.8199 198.763 20.3845 198.763 21.1219C198.763 21.8592 198.945 22.4285 199.309 22.8299C199.682 23.2219 200.149 23.4179 200.709 23.4179Z" fill="#3A322C"/>
<path d="M209.637 25.1259C208.89 25.1259 208.218 24.9625 207.621 24.6359C207.023 24.2999 206.552 23.8285 206.207 23.2219C205.871 22.6152 205.703 21.9152 205.703 21.1219C205.703 20.3285 205.875 19.6285 206.221 19.0219C206.575 18.4152 207.056 17.9485 207.663 17.6219C208.269 17.2859 208.946 17.1179 209.693 17.1179C210.439 17.1179 211.116 17.2859 211.723 17.6219C212.329 17.9485 212.805 18.4152 213.151 19.0219C213.505 19.6285 213.683 20.3285 213.683 21.1219C213.683 21.9152 213.501 22.6152 213.137 23.2219C212.782 23.8285 212.297 24.2999 211.681 24.6359C211.074 24.9625 210.393 25.1259 209.637 25.1259ZM209.637 23.4179C209.991 23.4179 210.323 23.3339 210.631 23.1659C210.948 22.9885 211.2 22.7272 211.387 22.3819C211.573 22.0365 211.667 21.6165 211.667 21.1219C211.667 20.3845 211.471 19.8199 211.079 19.4279C210.696 19.0265 210.225 18.8259 209.665 18.8259C209.105 18.8259 208.633 19.0265 208.251 19.4279C207.877 19.8199 207.691 20.3845 207.691 21.1219C207.691 21.8592 207.873 22.4285 208.237 22.8299C208.61 23.2219 209.077 23.4179 209.637 23.4179Z" fill="#3A322C"/>
<path d="M217.08 14.6399V24.9999H215.12V14.6399H217.08Z" fill="#3A322C"/>
<path d="M222.311 24.9999V15.0039H224.565L228.023 22.1159H228.149C228.13 21.8825 228.107 21.6072 228.079 21.2899C228.051 20.9632 228.027 20.6319 228.009 20.2959C227.99 19.9505 227.981 19.6379 227.981 19.3579V15.0039H229.801V24.9999H227.561L224.075 17.8459H223.977C224.005 18.0979 224.028 18.4012 224.047 18.7559C224.075 19.1012 224.098 19.4465 224.117 19.7919C224.135 20.1372 224.145 20.4405 224.145 20.7019V24.9999H222.311ZM230.753 24.9999V23.7119H235.121V24.9999H230.753ZM232.923 23.1239C232.475 23.1239 232.078 23.0259 231.733 22.8299C231.387 22.6339 231.112 22.3539 230.907 21.9899C230.711 21.6165 230.613 21.1639 230.613 20.6319C230.613 19.8385 230.823 19.2272 231.243 18.7979C231.663 18.3685 232.232 18.1539 232.951 18.1539C233.389 18.1539 233.781 18.2519 234.127 18.4479C234.481 18.6345 234.757 18.9145 234.953 19.2879C235.158 19.6519 235.261 20.0999 235.261 20.6319C235.261 21.4252 235.051 22.0412 234.631 22.4799C234.211 22.9092 233.641 23.1239 232.923 23.1239ZM232.937 22.0039C233.263 22.0039 233.497 21.8919 233.637 21.6679C233.786 21.4345 233.861 21.0892 233.861 20.6319C233.861 20.1745 233.786 19.8339 233.637 19.6099C233.497 19.3859 233.263 19.2739 232.937 19.2739C232.61 19.2739 232.372 19.3859 232.223 19.6099C232.073 19.8339 231.999 20.1745 231.999 20.6319C231.999 21.0892 232.073 21.4345 232.223 21.6679C232.372 21.8919 232.61 22.0039 232.937 22.0039Z" fill="#3A322C"/>
<path d="M238.233 19.5959C237.3 19.1105 236.833 18.3592 236.833 17.3419C236.833 16.8379 236.959 16.3805 237.211 15.9699C237.473 15.5499 237.86 15.2185 238.373 14.9759C238.896 14.7239 239.531 14.5979 240.277 14.5979C241.024 14.5979 241.654 14.7239 242.167 14.9759C242.69 15.2185 243.077 15.5499 243.329 15.9699C243.591 16.3805 243.721 16.8379 243.721 17.3419C243.721 17.8552 243.595 18.3079 243.343 18.6999C243.091 19.0825 242.755 19.3812 242.335 19.5959C242.849 19.8199 243.25 20.1465 243.539 20.5759C243.829 21.0052 243.973 21.5139 243.973 22.1019C243.973 22.7365 243.81 23.2919 243.483 23.7679C243.166 24.2345 242.727 24.5939 242.167 24.8459C241.607 25.0979 240.977 25.2239 240.277 25.2239C239.577 25.2239 238.947 25.0979 238.387 24.8459C237.837 24.5939 237.398 24.2345 237.071 23.7679C236.754 23.2919 236.595 22.7365 236.595 22.1019C236.595 21.5139 236.74 21.0052 237.029 20.5759C237.319 20.1372 237.72 19.8105 238.233 19.5959ZM241.817 17.6219C241.817 17.1645 241.677 16.8099 241.397 16.5579C241.127 16.3059 240.753 16.1799 240.277 16.1799C239.811 16.1799 239.437 16.3059 239.157 16.5579C238.887 16.8099 238.751 17.1692 238.751 17.6359C238.751 18.0559 238.891 18.3919 239.171 18.6439C239.461 18.8959 239.829 19.0219 240.277 19.0219C240.725 19.0219 241.094 18.8959 241.383 18.6439C241.673 18.3825 241.817 18.0419 241.817 17.6219ZM240.277 20.4499C239.745 20.4499 239.311 20.5852 238.975 20.8559C238.649 21.1265 238.485 21.5139 238.485 22.0179C238.485 22.4845 238.644 22.8672 238.961 23.1659C239.288 23.4552 239.727 23.5999 240.277 23.5999C240.828 23.5999 241.262 23.4505 241.579 23.1519C241.897 22.8532 242.055 22.4752 242.055 22.0179C242.055 21.5232 241.892 21.1405 241.565 20.8699C241.239 20.5899 240.809 20.4499 240.277 20.4499Z" fill="#3A322C"/>
<path fill-rule="evenodd" clip-rule="evenodd" d="M4 23H0V36V40H4H17V36L4 36V23Z" fill="#3A322C"/>
</svg>
