<svg width="239" height="40" viewBox="0 0 239 40" fill="none" xmlns="http://www.w3.org/2000/svg">
<path d="M20.49 20.0999C20.49 19.1385 20.7047 18.2799 21.134 17.5239C21.5727 16.7585 22.1653 16.1659 22.912 15.7459C23.668 15.3165 24.5127 15.1019 25.446 15.1019C26.538 15.1019 27.4947 15.3819 28.316 15.9419C29.1373 16.5019 29.7113 17.2765 30.038 18.2659H27.784C27.56 17.7992 27.2427 17.4492 26.832 17.2159C26.4307 16.9825 25.964 16.8659 25.432 16.8659C24.8627 16.8659 24.354 17.0012 23.906 17.2719C23.4673 17.5332 23.122 17.9065 22.87 18.3919C22.6273 18.8772 22.506 19.4465 22.506 20.0999C22.506 20.7439 22.6273 21.3132 22.87 21.8079C23.122 22.2932 23.4673 22.6712 23.906 22.9419C24.354 23.2032 24.8627 23.3339 25.432 23.3339C25.964 23.3339 26.4307 23.2172 26.832 22.9839C27.2427 22.7412 27.56 22.3865 27.784 21.9199H30.038C29.7113 22.9185 29.1373 23.6979 28.316 24.2579C27.504 24.8085 26.5473 25.0839 25.446 25.0839C24.5127 25.0839 23.668 24.8739 22.912 24.4539C22.1653 24.0245 21.5727 23.4319 21.134 22.6759C20.7047 21.9199 20.49 21.0612 20.49 20.0999Z" fill="#3A322C"/>
<path d="M36.0801 17.1319C36.6681 17.1319 37.1908 17.2625 37.6481 17.5239C38.1054 17.7759 38.4601 18.1539 38.7121 18.6579C38.9734 19.1525 39.1041 19.7499 39.1041 20.4499V24.9999H37.1441V20.7159C37.1441 20.0999 36.9901 19.6285 36.6821 19.3019C36.3741 18.9659 35.9541 18.7979 35.4221 18.7979C34.8808 18.7979 34.4514 18.9659 34.1341 19.3019C33.8261 19.6285 33.6721 20.0999 33.6721 20.7159V24.9999H31.7121V14.6399H33.6721V18.2099C33.9241 17.8739 34.2601 17.6125 34.6801 17.4259C35.1001 17.2299 35.5668 17.1319 36.0801 17.1319Z" fill="#3A322C"/>
<path d="M41.962 16.3199C41.6166 16.3199 41.3273 16.2125 41.094 15.9979C40.87 15.7739 40.758 15.4985 40.758 15.1719C40.758 14.8452 40.87 14.5745 41.094 14.3599C41.3273 14.1359 41.6166 14.0239 41.962 14.0239C42.3073 14.0239 42.592 14.1359 42.816 14.3599C43.0493 14.5745 43.166 14.8452 43.166 15.1719C43.166 15.4985 43.0493 15.7739 42.816 15.9979C42.592 16.2125 42.3073 16.3199 41.962 16.3199ZM42.928 17.2439V24.9999H40.968V17.2439H42.928Z" fill="#3A322C"/>
<path d="M46.8244 14.6399V24.9999H44.8644V14.6399H46.8244Z" fill="#3A322C"/>
<path d="M48.2569 21.0939C48.2569 20.3099 48.4109 19.6145 48.7189 19.0079C49.0363 18.4012 49.4656 17.9345 50.0069 17.6079C50.5483 17.2812 51.1503 17.1179 51.8129 17.1179C52.3169 17.1179 52.7976 17.2299 53.2549 17.4539C53.7123 17.6685 54.0763 17.9579 54.3469 18.3219V14.6399H56.3349V24.9999H54.3469V23.8519C54.1043 24.2345 53.7636 24.5425 53.3249 24.7759C52.8863 25.0092 52.3776 25.1259 51.7989 25.1259C51.1456 25.1259 50.5483 24.9579 50.0069 24.6219C49.4656 24.2859 49.0363 23.8145 48.7189 23.2079C48.4109 22.5919 48.2569 21.8872 48.2569 21.0939ZM54.3609 21.1219C54.3609 20.6459 54.2676 20.2399 54.0809 19.9039C53.8943 19.5585 53.6423 19.2972 53.3249 19.1199C53.0076 18.9332 52.6669 18.8399 52.3029 18.8399C51.9389 18.8399 51.6029 18.9285 51.2949 19.1059C50.9869 19.2832 50.7349 19.5445 50.5389 19.8899C50.3523 20.2259 50.2589 20.6272 50.2589 21.0939C50.2589 21.5605 50.3523 21.9712 50.5389 22.3259C50.7349 22.6712 50.9869 22.9372 51.2949 23.1239C51.6123 23.3105 51.9483 23.4039 52.3029 23.4039C52.6669 23.4039 53.0076 23.3152 53.3249 23.1379C53.6423 22.9512 53.8943 22.6899 54.0809 22.3539C54.2676 22.0085 54.3609 21.5979 54.3609 21.1219Z" fill="#3A322C"/>
<path d="M60.2092 18.4479C60.4612 18.0372 60.7879 17.7152 61.1892 17.4819C61.5999 17.2485 62.0665 17.1319 62.5892 17.1319V19.1899H62.0712C61.4552 19.1899 60.9885 19.3345 60.6712 19.6239C60.3632 19.9132 60.2092 20.4172 60.2092 21.1359V24.9999H58.2492V17.2439H60.2092V18.4479Z" fill="#3A322C"/>
<path d="M71.1194 20.9539C71.1194 21.2339 71.1007 21.4859 71.0634 21.7099H65.3934C65.44 22.2699 65.636 22.7085 65.9814 23.0259C66.3267 23.3432 66.7514 23.5019 67.2554 23.5019C67.9834 23.5019 68.5014 23.1892 68.8094 22.5639H70.9234C70.6994 23.3105 70.27 23.9265 69.6354 24.4119C69.0007 24.8879 68.2214 25.1259 67.2974 25.1259C66.5507 25.1259 65.8787 24.9625 65.2814 24.6359C64.6934 24.2999 64.2314 23.8285 63.8954 23.2219C63.5687 22.6152 63.4054 21.9152 63.4054 21.1219C63.4054 20.3192 63.5687 19.6145 63.8954 19.0079C64.222 18.4012 64.6794 17.9345 65.2674 17.6079C65.8554 17.2812 66.532 17.1179 67.2974 17.1179C68.0347 17.1179 68.6927 17.2765 69.2714 17.5939C69.8594 17.9112 70.312 18.3639 70.6294 18.9519C70.956 19.5305 71.1194 20.1979 71.1194 20.9539ZM69.0894 20.3939C69.08 19.8899 68.898 19.4885 68.5434 19.1899C68.1887 18.8819 67.7547 18.7279 67.2414 18.7279C66.756 18.7279 66.3454 18.8772 66.0094 19.1759C65.6827 19.4652 65.482 19.8712 65.4074 20.3939H69.0894Z" fill="#3A322C"/>
<path d="M76.848 17.1319C77.772 17.1319 78.5187 17.4259 79.088 18.0139C79.6573 18.5925 79.942 19.4045 79.942 20.4499V24.9999H77.982V20.7159C77.982 20.0999 77.828 19.6285 77.52 19.3019C77.212 18.9659 76.792 18.7979 76.26 18.7979C75.7187 18.7979 75.2893 18.9659 74.972 19.3019C74.664 19.6285 74.51 20.0999 74.51 20.7159V24.9999H72.55V17.2439H74.51V18.2099C74.7713 17.8739 75.1027 17.6125 75.504 17.4259C75.9147 17.2299 76.3627 17.1319 76.848 17.1319Z" fill="#3A322C"/>
<path d="M83.0378 13.8279L82.8698 16.7959H81.5398L81.3578 13.8279H83.0378Z" fill="#3A322C"/>
<path d="M87.5082 25.1259C86.8736 25.1259 86.3042 25.0139 85.8002 24.7899C85.2962 24.5565 84.8949 24.2439 84.5962 23.8519C84.3069 23.4599 84.1482 23.0259 84.1202 22.5499H86.0942C86.1316 22.8485 86.2762 23.0959 86.5282 23.2919C86.7896 23.4879 87.1116 23.5859 87.4942 23.5859C87.8676 23.5859 88.1569 23.5112 88.3622 23.3619C88.5769 23.2125 88.6842 23.0212 88.6842 22.7879C88.6842 22.5359 88.5536 22.3492 88.2922 22.2279C88.0402 22.0972 87.6342 21.9572 87.0742 21.8079C86.4956 21.6679 86.0196 21.5232 85.6462 21.3739C85.2822 21.2245 84.9649 20.9959 84.6942 20.6879C84.4329 20.3799 84.3022 19.9645 84.3022 19.4419C84.3022 19.0125 84.4236 18.6205 84.6662 18.2659C84.9182 17.9112 85.2729 17.6312 85.7302 17.4259C86.1969 17.2205 86.7429 17.1179 87.3682 17.1179C88.2922 17.1179 89.0296 17.3512 89.5802 17.8179C90.1309 18.2752 90.4342 18.8959 90.4902 19.6799H88.6142C88.5862 19.3719 88.4556 19.1292 88.2222 18.9519C87.9982 18.7652 87.6949 18.6719 87.3122 18.6719C86.9576 18.6719 86.6822 18.7372 86.4862 18.8679C86.2996 18.9985 86.2062 19.1805 86.2062 19.4139C86.2062 19.6752 86.3369 19.8759 86.5982 20.0159C86.8596 20.1465 87.2656 20.2819 87.8162 20.4219C88.3762 20.5619 88.8382 20.7065 89.2022 20.8559C89.5662 21.0052 89.8789 21.2385 90.1402 21.5559C90.4109 21.8639 90.5509 22.2745 90.5602 22.7879C90.5602 23.2359 90.4342 23.6372 90.1822 23.9919C89.9396 24.3465 89.5849 24.6265 89.1182 24.8319C88.6609 25.0279 88.1242 25.1259 87.5082 25.1259Z" fill="#3A322C"/>
<path d="M98.8791 25.0979C98.1977 25.0979 97.5817 24.9812 97.0311 24.7479C96.4897 24.5145 96.0604 24.1785 95.7431 23.7399C95.4257 23.3012 95.2624 22.7832 95.2531 22.1859H97.3531C97.3811 22.5872 97.5211 22.9045 97.7731 23.1379C98.0344 23.3712 98.3891 23.4879 98.8371 23.4879C99.2944 23.4879 99.6537 23.3805 99.9151 23.1659C100.176 22.9419 100.307 22.6525 100.307 22.2979C100.307 22.0085 100.218 21.7705 100.041 21.5839C99.8637 21.3972 99.6397 21.2525 99.3691 21.1499C99.1077 21.0379 98.7437 20.9165 98.2771 20.7859C97.6424 20.5992 97.1244 20.4172 96.7231 20.2399C96.3311 20.0532 95.9904 19.7779 95.7011 19.4139C95.4211 19.0405 95.2811 18.5459 95.2811 17.9299C95.2811 17.3512 95.4257 16.8472 95.7151 16.4179C96.0044 15.9885 96.4104 15.6619 96.9331 15.4379C97.4557 15.2045 98.0531 15.0879 98.7251 15.0879C99.7331 15.0879 100.55 15.3352 101.175 15.8299C101.81 16.3152 102.16 16.9965 102.225 17.8739H100.069C100.05 17.5379 99.9057 17.2625 99.6351 17.0479C99.3737 16.8239 99.0237 16.7119 98.5851 16.7119C98.2024 16.7119 97.8944 16.8099 97.6611 17.0059C97.4371 17.2019 97.3251 17.4865 97.3251 17.8599C97.3251 18.1212 97.4091 18.3405 97.5771 18.5179C97.7544 18.6859 97.9691 18.8259 98.2211 18.9379C98.4824 19.0405 98.8464 19.1619 99.3131 19.3019C99.9477 19.4885 100.466 19.6752 100.867 19.8619C101.268 20.0485 101.614 20.3285 101.903 20.7019C102.192 21.0752 102.337 21.5652 102.337 22.1719C102.337 22.6945 102.202 23.1799 101.931 23.6279C101.66 24.0759 101.264 24.4352 100.741 24.7059C100.218 24.9672 99.5977 25.0979 98.8791 25.0979Z" fill="#3A322C"/>
<path d="M103.532 21.1219C103.532 20.3192 103.696 19.6192 104.022 19.0219C104.349 18.4152 104.802 17.9485 105.38 17.6219C105.959 17.2859 106.622 17.1179 107.368 17.1179C108.33 17.1179 109.123 17.3605 109.748 17.8459C110.383 18.3219 110.808 18.9939 111.022 19.8619H108.908C108.796 19.5259 108.605 19.2645 108.334 19.0779C108.073 18.8819 107.746 18.7839 107.354 18.7839C106.794 18.7839 106.351 18.9892 106.024 19.3999C105.698 19.8012 105.534 20.3752 105.534 21.1219C105.534 21.8592 105.698 22.4332 106.024 22.8439C106.351 23.2452 106.794 23.4459 107.354 23.4459C108.148 23.4459 108.666 23.0912 108.908 22.3819H111.022C110.808 23.2219 110.383 23.8892 109.748 24.3839C109.114 24.8785 108.32 25.1259 107.368 25.1259C106.622 25.1259 105.959 24.9625 105.38 24.6359C104.802 24.2999 104.349 23.8332 104.022 23.2359C103.696 22.6292 103.532 21.9245 103.532 21.1219Z" fill="#3A322C"/>
<path d="M116.826 17.1319C117.414 17.1319 117.937 17.2625 118.394 17.5239C118.852 17.7759 119.206 18.1539 119.458 18.6579C119.72 19.1525 119.85 19.7499 119.85 20.4499V24.9999H117.89V20.7159C117.89 20.0999 117.736 19.6285 117.428 19.3019C117.12 18.9659 116.7 18.7979 116.168 18.7979C115.627 18.7979 115.198 18.9659 114.88 19.3019C114.572 19.6285 114.418 20.0999 114.418 20.7159V24.9999H112.458V14.6399H114.418V18.2099C114.67 17.8739 115.006 17.6125 115.426 17.4259C115.846 17.2299 116.313 17.1319 116.826 17.1319Z" fill="#3A322C"/>
<path d="M125.158 25.1259C124.411 25.1259 123.739 24.9625 123.142 24.6359C122.545 24.2999 122.073 23.8285 121.728 23.2219C121.392 22.6152 121.224 21.9152 121.224 21.1219C121.224 20.3285 121.397 19.6285 121.742 19.0219C122.097 18.4152 122.577 17.9485 123.184 17.6219C123.791 17.2859 124.467 17.1179 125.214 17.1179C125.961 17.1179 126.637 17.2859 127.244 17.6219C127.851 17.9485 128.327 18.4152 128.672 19.0219C129.027 19.6285 129.204 20.3285 129.204 21.1219C129.204 21.9152 129.022 22.6152 128.658 23.2219C128.303 23.8285 127.818 24.2999 127.202 24.6359C126.595 24.9625 125.914 25.1259 125.158 25.1259ZM125.158 23.4179C125.513 23.4179 125.844 23.3339 126.152 23.1659C126.469 22.9885 126.721 22.7272 126.908 22.3819C127.095 22.0365 127.188 21.6165 127.188 21.1219C127.188 20.3845 126.992 19.8199 126.6 19.4279C126.217 19.0265 125.746 18.8259 125.186 18.8259C124.626 18.8259 124.155 19.0265 123.772 19.4279C123.399 19.8199 123.212 20.3845 123.212 21.1219C123.212 21.8592 123.394 22.4285 123.758 22.8299C124.131 23.2219 124.598 23.4179 125.158 23.4179Z" fill="#3A322C"/>
<path d="M134.086 25.1259C133.339 25.1259 132.667 24.9625 132.07 24.6359C131.472 24.2999 131.001 23.8285 130.656 23.2219C130.32 22.6152 130.152 21.9152 130.152 21.1219C130.152 20.3285 130.324 19.6285 130.67 19.0219C131.024 18.4152 131.505 17.9485 132.112 17.6219C132.718 17.2859 133.395 17.1179 134.142 17.1179C134.888 17.1179 135.565 17.2859 136.172 17.6219C136.778 17.9485 137.254 18.4152 137.6 19.0219C137.954 19.6285 138.132 20.3285 138.132 21.1219C138.132 21.9152 137.95 22.6152 137.586 23.2219C137.231 23.8285 136.746 24.2999 136.13 24.6359C135.523 24.9625 134.842 25.1259 134.086 25.1259ZM134.086 23.4179C134.44 23.4179 134.772 23.3339 135.08 23.1659C135.397 22.9885 135.649 22.7272 135.836 22.3819C136.022 22.0365 136.116 21.6165 136.116 21.1219C136.116 20.3845 135.92 19.8199 135.528 19.4279C135.145 19.0265 134.674 18.8259 134.114 18.8259C133.554 18.8259 133.082 19.0265 132.7 19.4279C132.326 19.8199 132.14 20.3845 132.14 21.1219C132.14 21.8592 132.322 22.4285 132.686 22.8299C133.059 23.2219 133.526 23.4179 134.086 23.4179Z" fill="#3A322C"/>
<path d="M141.53 14.6399V24.9999H139.57V14.6399H141.53Z" fill="#3A322C"/>
<path d="M150.246 25.1259C149.499 25.1259 148.827 24.9625 148.23 24.6359C147.633 24.2999 147.161 23.8285 146.816 23.2219C146.48 22.6152 146.312 21.9152 146.312 21.1219C146.312 20.3285 146.485 19.6285 146.83 19.0219C147.185 18.4152 147.665 17.9485 148.272 17.6219C148.879 17.2859 149.555 17.1179 150.302 17.1179C151.049 17.1179 151.725 17.2859 152.332 17.6219C152.939 17.9485 153.415 18.4152 153.76 19.0219C154.115 19.6285 154.292 20.3285 154.292 21.1219C154.292 21.9152 154.11 22.6152 153.746 23.2219C153.391 23.8285 152.906 24.2999 152.29 24.6359C151.683 24.9625 151.002 25.1259 150.246 25.1259ZM150.246 23.4179C150.601 23.4179 150.932 23.3339 151.24 23.1659C151.557 22.9885 151.809 22.7272 151.996 22.3819C152.183 22.0365 152.276 21.6165 152.276 21.1219C152.276 20.3845 152.08 19.8199 151.688 19.4279C151.305 19.0265 150.834 18.8259 150.274 18.8259C149.714 18.8259 149.243 19.0265 148.86 19.4279C148.487 19.8199 148.3 20.3845 148.3 21.1219C148.3 21.8592 148.482 22.4285 148.846 22.8299C149.219 23.2219 149.686 23.4179 150.246 23.4179Z" fill="#3A322C"/>
<path d="M159.286 18.8539H157.928V24.9999H155.94V18.8539H155.058V17.2439H155.94V16.8519C155.94 15.8999 156.21 15.1999 156.752 14.7519C157.293 14.3039 158.11 14.0939 159.202 14.1219V15.7739C158.726 15.7645 158.394 15.8439 158.208 16.0119C158.021 16.1799 157.928 16.4832 157.928 16.9219V17.2439H159.286V18.8539Z" fill="#3A322C"/>
<path d="M169.884 23.1379H165.992L165.348 24.9999H163.29L166.804 15.2139H169.086L172.6 24.9999H170.528L169.884 23.1379ZM169.352 21.5699L167.938 17.4819L166.524 21.5699H169.352Z" fill="#3A322C"/>
<path d="M175.873 18.4479C176.125 18.0372 176.452 17.7152 176.853 17.4819C177.264 17.2485 177.731 17.1319 178.253 17.1319V19.1899H177.735C177.119 19.1899 176.653 19.3345 176.335 19.6239C176.027 19.9132 175.873 20.4172 175.873 21.1359V24.9999H173.913V17.2439H175.873V18.4479Z" fill="#3A322C"/>
<path d="M181.855 18.8539V22.6059C181.855 22.8672 181.916 23.0585 182.037 23.1799C182.168 23.2919 182.383 23.3479 182.681 23.3479H183.591V24.9999H182.359C180.707 24.9999 179.881 24.1972 179.881 22.5919V18.8539H178.957V17.2439H179.881V15.3259H181.855V17.2439H183.591V18.8539H181.855Z" fill="#3A322C"/>
<path d="M187.969 25.1259C187.334 25.1259 186.765 25.0139 186.261 24.7899C185.757 24.5565 185.356 24.2439 185.057 23.8519C184.768 23.4599 184.609 23.0259 184.581 22.5499H186.555C186.592 22.8485 186.737 23.0959 186.989 23.2919C187.25 23.4879 187.572 23.5859 187.955 23.5859C188.328 23.5859 188.618 23.5112 188.823 23.3619C189.038 23.2125 189.145 23.0212 189.145 22.7879C189.145 22.5359 189.014 22.3492 188.753 22.2279C188.501 22.0972 188.095 21.9572 187.535 21.8079C186.956 21.6679 186.48 21.5232 186.107 21.3739C185.743 21.2245 185.426 20.9959 185.155 20.6879C184.894 20.3799 184.763 19.9645 184.763 19.4419C184.763 19.0125 184.884 18.6205 185.127 18.2659C185.379 17.9112 185.734 17.6312 186.191 17.4259C186.658 17.2205 187.204 17.1179 187.829 17.1179C188.753 17.1179 189.49 17.3512 190.041 17.8179C190.592 18.2752 190.895 18.8959 190.951 19.6799H189.075C189.047 19.3719 188.916 19.1292 188.683 18.9519C188.459 18.7652 188.156 18.6719 187.773 18.6719C187.418 18.6719 187.143 18.7372 186.947 18.8679C186.76 18.9985 186.667 19.1805 186.667 19.4139C186.667 19.6752 186.798 19.8759 187.059 20.0159C187.32 20.1465 187.726 20.2819 188.277 20.4219C188.837 20.5619 189.299 20.7065 189.663 20.8559C190.027 21.0052 190.34 21.2385 190.601 21.5559C190.872 21.8639 191.012 22.2745 191.021 22.7879C191.021 23.2359 190.895 23.6372 190.643 23.9919C190.4 24.3465 190.046 24.6265 189.579 24.8319C189.122 25.0279 188.585 25.1259 187.969 25.1259Z" fill="#3A322C"/>
<path d="M195.924 24.9999V15.0039H198.178L201.636 22.1159H201.762C201.743 21.8825 201.72 21.6072 201.692 21.2899C201.664 20.9632 201.641 20.6319 201.622 20.2959C201.603 19.9505 201.594 19.6379 201.594 19.3579V15.0039H203.414V24.9999H201.174L197.688 17.8459H197.59C197.618 18.0979 197.641 18.4012 197.66 18.7559C197.688 19.1012 197.711 19.4465 197.73 19.7919C197.749 20.1372 197.758 20.4405 197.758 20.7019V24.9999H195.924ZM204.366 24.9999V23.7119H208.734V24.9999H204.366ZM206.536 23.1239C206.088 23.1239 205.691 23.0259 205.346 22.8299C205.001 22.6339 204.725 22.3539 204.52 21.9899C204.324 21.6165 204.226 21.1639 204.226 20.6319C204.226 19.8385 204.436 19.2272 204.856 18.7979C205.276 18.3685 205.845 18.1539 206.564 18.1539C207.003 18.1539 207.395 18.2519 207.74 18.4479C208.095 18.6345 208.37 18.9145 208.566 19.2879C208.771 19.6519 208.874 20.0999 208.874 20.6319C208.874 21.4252 208.664 22.0412 208.244 22.4799C207.824 22.9092 207.255 23.1239 206.536 23.1239ZM206.55 22.0039C206.877 22.0039 207.11 21.8919 207.25 21.6679C207.399 21.4345 207.474 21.0892 207.474 20.6319C207.474 20.1745 207.399 19.8339 207.25 19.6099C207.11 19.3859 206.877 19.2739 206.55 19.2739C206.223 19.2739 205.985 19.3859 205.836 19.6099C205.687 19.8339 205.612 20.1745 205.612 20.6319C205.612 21.0892 205.687 21.4345 205.836 21.6679C205.985 21.8919 206.223 22.0039 206.55 22.0039Z" fill="#3A322C"/>
<path d="M216.998 16.4879H212.462V18.8819C212.658 18.6392 212.938 18.4432 213.302 18.2939C213.666 18.1352 214.054 18.0559 214.464 18.0559C215.211 18.0559 215.822 18.2192 216.298 18.5459C216.774 18.8725 217.12 19.2925 217.334 19.8059C217.549 20.3099 217.656 20.8512 217.656 21.4299C217.656 22.5032 217.348 23.3665 216.732 24.0199C216.126 24.6732 215.258 24.9999 214.128 24.9999C213.064 24.9999 212.215 24.7339 211.58 24.2019C210.946 23.6699 210.586 22.9745 210.502 22.1159H212.406C212.49 22.4892 212.677 22.7879 212.966 23.0119C213.265 23.2359 213.643 23.3479 214.1 23.3479C214.651 23.3479 215.066 23.1752 215.346 22.8299C215.626 22.4845 215.766 22.0272 215.766 21.4579C215.766 20.8792 215.622 20.4405 215.332 20.1419C215.052 19.8339 214.637 19.6799 214.086 19.6799C213.694 19.6799 213.368 19.7779 213.106 19.9739C212.845 20.1699 212.658 20.4312 212.546 20.7579H210.67V14.7659H216.998V16.4879Z" fill="#3A322C"/>
<path fill-rule="evenodd" clip-rule="evenodd" d="M4 23H0V36V40H4H17V36L4 36V23Z" fill="#3A322C"/>
</svg>
