<svg width="257" height="70" viewBox="0 0 257 70" fill="none" xmlns="http://www.w3.org/2000/svg">
<path d="M91.9637 30.3541V31.4191H87.02V30.3541H91.9637ZM87.2781 21.5424V31.4191H85.9675V21.5424H87.2781Z" fill="#3A322C"/>
<path d="M94.9462 30.2862L96.9563 24.0794H98.2398L95.5981 31.4191H94.7561L94.9462 30.2862ZM93.2689 24.0794L95.3401 30.3202L95.4827 31.4191H94.6407L91.9787 24.0794H93.2689Z" fill="#3A322C"/>
<path d="M101.161 24.0794V31.4191H99.8981V24.0794H101.161ZM99.803 22.1326C99.803 21.9291 99.8641 21.7572 99.9864 21.617C100.113 21.4769 100.299 21.4068 100.543 21.4068C100.783 21.4068 100.966 21.4769 101.093 21.617C101.225 21.7572 101.29 21.9291 101.29 22.1326C101.29 22.327 101.225 22.4944 101.093 22.6346C100.966 22.7702 100.783 22.8381 100.543 22.8381C100.299 22.8381 100.113 22.7702 99.9864 22.6346C99.8641 22.4944 99.803 22.327 99.803 22.1326Z" fill="#3A322C"/>
<path d="M105.76 30.2862L107.77 24.0794H109.053L106.412 31.4191H105.57L105.76 30.2862ZM104.083 24.0794L106.154 30.3202L106.296 31.4191H105.454L102.792 24.0794H104.083Z" fill="#3A322C"/>
<path d="M122.203 21.5424V31.4191H120.886L115.908 23.8013V31.4191H114.597V21.5424H115.908L120.906 29.1805V21.5424H122.203Z" fill="#3A322C"/>
<path d="M129.016 30.1641V26.3858C129.016 26.0964 128.957 25.8454 128.839 25.6328C128.726 25.4158 128.554 25.2484 128.323 25.1308C128.092 25.0133 127.807 24.9545 127.467 24.9545C127.15 24.9545 126.872 25.0087 126.632 25.1173C126.397 25.2258 126.211 25.3683 126.075 25.5446C125.944 25.721 125.878 25.9109 125.878 26.1144H124.622C124.622 25.8522 124.69 25.5921 124.826 25.3344C124.961 25.0766 125.156 24.8437 125.41 24.6357C125.668 24.4231 125.976 24.2558 126.333 24.1337C126.695 24.0071 127.098 23.9438 127.542 23.9438C128.076 23.9438 128.547 24.0342 128.954 24.2151C129.366 24.396 129.688 24.6696 129.919 25.0359C130.154 25.3977 130.272 25.8522 130.272 26.3993V29.8182C130.272 30.0624 130.292 30.3224 130.333 30.5983C130.378 30.8741 130.444 31.1115 130.53 31.3105V31.4191H129.219C129.156 31.2744 129.106 31.0822 129.07 30.8425C129.034 30.5983 129.016 30.3722 129.016 30.1641ZM129.233 26.9692L129.246 27.851H127.977C127.619 27.851 127.3 27.8804 127.019 27.9392C126.738 27.9934 126.503 28.0771 126.313 28.1902C126.123 28.3032 125.978 28.4457 125.878 28.6175C125.779 28.7848 125.729 28.9816 125.729 29.2077C125.729 29.4383 125.781 29.6486 125.885 29.8385C125.989 30.0285 126.145 30.18 126.354 30.293C126.566 30.4016 126.827 30.4558 127.135 30.4558C127.519 30.4558 127.859 30.3744 128.153 30.2116C128.447 30.0488 128.681 29.8498 128.853 29.6147C129.029 29.3795 129.124 29.1511 129.138 28.9296L129.674 29.5333C129.643 29.7232 129.557 29.9335 129.416 30.1641C129.276 30.3948 129.088 30.6164 128.853 30.8289C128.622 31.0369 128.346 31.211 128.024 31.3512C127.707 31.4869 127.35 31.5547 126.951 31.5547C126.453 31.5547 126.016 31.4575 125.641 31.263C125.269 31.0686 124.98 30.8086 124.771 30.483C124.568 30.1528 124.466 29.7843 124.466 29.3773C124.466 28.9838 124.543 28.6379 124.697 28.3394C124.851 28.0364 125.072 27.7854 125.362 27.5864C125.652 27.3829 126 27.2292 126.408 27.1252C126.815 27.0212 127.27 26.9692 127.773 26.9692H129.233Z" fill="#3A322C"/>
<path d="M135.672 24.0794V25.0427H131.699V24.0794H135.672ZM133.044 22.2954H134.3V29.6011C134.3 29.8498 134.339 30.0375 134.416 30.1641C134.493 30.2908 134.592 30.3744 134.714 30.4151C134.837 30.4558 134.968 30.4762 135.108 30.4762C135.212 30.4762 135.321 30.4671 135.434 30.449C135.552 30.4264 135.64 30.4083 135.699 30.3948L135.706 31.4191C135.606 31.4507 135.475 31.4801 135.312 31.5072C135.154 31.5389 134.961 31.5547 134.735 31.5547C134.427 31.5547 134.144 31.4937 133.886 31.3716C133.628 31.2495 133.422 31.046 133.268 30.7611C133.119 30.4716 133.044 30.0827 133.044 29.5943V22.2954Z" fill="#3A322C"/>
<path d="M138.858 24.0794V31.4191H137.595V24.0794H138.858ZM137.5 22.1326C137.5 21.9291 137.561 21.7572 137.683 21.617C137.81 21.4769 137.996 21.4068 138.24 21.4068C138.48 21.4068 138.663 21.4769 138.79 21.617C138.922 21.7572 138.987 21.9291 138.987 22.1326C138.987 22.327 138.922 22.4944 138.79 22.6346C138.663 22.7702 138.48 22.8381 138.24 22.8381C137.996 22.8381 137.81 22.7702 137.683 22.6346C137.561 22.4944 137.5 22.327 137.5 22.1326Z" fill="#3A322C"/>
<path d="M140.89 27.8306V27.6746C140.89 27.1455 140.967 26.6549 141.121 26.2026C141.275 25.7459 141.497 25.3502 141.786 25.0155C142.076 24.6764 142.427 24.4141 142.839 24.2287C143.251 24.0387 143.713 23.9438 144.224 23.9438C144.74 23.9438 145.204 24.0387 145.616 24.2287C146.033 24.4141 146.386 24.6764 146.676 25.0155C146.97 25.3502 147.194 25.7459 147.348 26.2026C147.502 26.6549 147.579 27.1455 147.579 27.6746V27.8306C147.579 28.3597 147.502 28.8504 147.348 29.3026C147.194 29.7549 146.97 30.1506 146.676 30.4897C146.386 30.8244 146.035 31.0867 145.623 31.2766C145.216 31.462 144.754 31.5547 144.238 31.5547C143.722 31.5547 143.258 31.462 142.846 31.2766C142.434 31.0867 142.081 30.8244 141.786 30.4897C141.497 30.1506 141.275 29.7549 141.121 29.3026C140.967 28.8504 140.89 28.3597 140.89 27.8306ZM142.146 27.6746V27.8306C142.146 28.1969 142.189 28.5429 142.275 28.8685C142.361 29.1896 142.49 29.4745 142.662 29.7232C142.839 29.9719 143.058 30.1687 143.321 30.3134C143.584 30.4536 143.889 30.5237 144.238 30.5237C144.582 30.5237 144.883 30.4536 145.141 30.3134C145.404 30.1687 145.621 29.9719 145.793 29.7232C145.965 29.4745 146.094 29.1896 146.18 28.8685C146.27 28.5429 146.316 28.1969 146.316 27.8306V27.6746C146.316 27.3128 146.27 26.9714 146.18 26.6503C146.094 26.3247 145.963 26.0376 145.786 25.7888C145.614 25.5356 145.397 25.3366 145.134 25.1919C144.876 25.0472 144.573 24.9748 144.224 24.9748C143.88 24.9748 143.577 25.0472 143.314 25.1919C143.056 25.3366 142.839 25.5356 142.662 25.7888C142.49 26.0376 142.361 26.3247 142.275 26.6503C142.189 26.9714 142.146 27.3128 142.146 27.6746Z" fill="#3A322C"/>
<path d="M150.758 25.6464V31.4191H149.502V24.0794H150.69L150.758 25.6464ZM150.459 27.4711L149.937 27.4508C149.941 26.9488 150.016 26.4853 150.161 26.0602C150.306 25.6306 150.509 25.2575 150.772 24.9409C151.034 24.6244 151.347 24.3802 151.709 24.2083C152.076 24.0319 152.481 23.9438 152.925 23.9438C153.287 23.9438 153.613 23.9935 153.902 24.093C154.192 24.188 154.439 24.3417 154.643 24.5543C154.851 24.7668 155.009 25.0427 155.118 25.3818C155.227 25.7165 155.281 26.1257 155.281 26.6096V31.4191H154.018V26.5961C154.018 26.2117 153.961 25.9042 153.848 25.6735C153.735 25.4384 153.57 25.2688 153.352 25.1648C153.135 25.0562 152.868 25.002 152.551 25.002C152.239 25.002 151.953 25.0675 151.695 25.1987C151.442 25.3298 151.222 25.5107 151.037 25.7414C150.856 25.972 150.713 26.2365 150.609 26.535C150.509 26.829 150.459 27.141 150.459 27.4711Z" fill="#3A322C"/>
<path d="M161.869 30.1641V26.3858C161.869 26.0964 161.811 25.8454 161.693 25.6328C161.58 25.4158 161.408 25.2484 161.177 25.1308C160.946 25.0133 160.661 24.9545 160.321 24.9545C160.004 24.9545 159.726 25.0087 159.486 25.1173C159.25 25.2258 159.065 25.3683 158.929 25.5446C158.798 25.721 158.732 25.9109 158.732 26.1144H157.476C157.476 25.8522 157.544 25.5921 157.679 25.3344C157.815 25.0766 158.01 24.8437 158.263 24.6357C158.521 24.4231 158.829 24.2558 159.187 24.1337C159.549 24.0071 159.952 23.9438 160.396 23.9438C160.93 23.9438 161.401 24.0342 161.808 24.2151C162.22 24.396 162.542 24.6696 162.773 25.0359C163.008 25.3977 163.126 25.8522 163.126 26.3993V29.8182C163.126 30.0624 163.146 30.3224 163.187 30.5983C163.232 30.8741 163.298 31.1115 163.384 31.3105V31.4191H162.073C162.01 31.2744 161.96 31.0822 161.924 30.8425C161.887 30.5983 161.869 30.3722 161.869 30.1641ZM162.087 26.9692L162.1 27.851H160.83C160.473 27.851 160.154 27.8804 159.873 27.9392C159.592 27.9934 159.357 28.0771 159.167 28.1902C158.976 28.3032 158.832 28.4457 158.732 28.6175C158.632 28.7848 158.583 28.9816 158.583 29.2077C158.583 29.4383 158.635 29.6486 158.739 29.8385C158.843 30.0285 158.999 30.18 159.207 30.293C159.42 30.4016 159.68 30.4558 159.988 30.4558C160.373 30.4558 160.713 30.3744 161.007 30.2116C161.301 30.0488 161.534 29.8498 161.706 29.6147C161.883 29.3795 161.978 29.1511 161.992 28.9296L162.528 29.5333C162.496 29.7232 162.41 29.9335 162.27 30.1641C162.13 30.3948 161.942 30.6164 161.706 30.8289C161.475 31.0369 161.199 31.211 160.878 31.3512C160.561 31.4869 160.203 31.5547 159.805 31.5547C159.307 31.5547 158.87 31.4575 158.494 31.263C158.123 31.0686 157.833 30.8086 157.625 30.483C157.421 30.1528 157.32 29.7843 157.32 29.3773C157.32 28.9838 157.396 28.6379 157.55 28.3394C157.704 28.0364 157.926 27.7854 158.216 27.5864C158.506 27.3829 158.854 27.2292 159.262 27.1252C159.669 27.0212 160.124 26.9692 160.627 26.9692H162.087Z" fill="#3A322C"/>
<path d="M166.814 20.9998V31.4191H165.551V20.9998H166.814Z" fill="#3A322C"/>
<path d="M176.813 27.5457H174.172V26.4807H176.813C177.325 26.4807 177.739 26.3993 178.056 26.2365C178.373 26.0737 178.604 25.8476 178.749 25.5582C178.898 25.2688 178.973 24.9387 178.973 24.5678C178.973 24.2287 178.898 23.9098 178.749 23.6114C178.604 23.3129 178.373 23.0732 178.056 22.8923C177.739 22.7069 177.325 22.6142 176.813 22.6142H174.477V31.4191H173.166V21.5424H176.813C177.56 21.5424 178.192 21.6713 178.708 21.9291C179.224 22.1869 179.615 22.5441 179.883 23.0009C180.15 23.4531 180.283 23.9709 180.283 24.5543C180.283 25.1874 180.15 25.7278 179.883 26.1755C179.615 26.6232 179.224 26.9646 178.708 27.1998C178.192 27.4304 177.56 27.5457 176.813 27.5457Z" fill="#3A322C"/>
<path d="M183.354 20.9998V31.4191H182.098V20.9998H183.354ZM183.055 27.4711L182.532 27.4508C182.537 26.9488 182.612 26.4853 182.756 26.0602C182.901 25.6306 183.105 25.2575 183.368 24.9409C183.63 24.6244 183.943 24.3802 184.305 24.2083C184.671 24.0319 185.077 23.9438 185.52 23.9438C185.882 23.9438 186.208 23.9935 186.498 24.093C186.788 24.188 187.035 24.3417 187.238 24.5543C187.447 24.7668 187.605 25.0427 187.714 25.3818C187.822 25.7165 187.877 26.1257 187.877 26.6096V31.4191H186.614V26.5961C186.614 26.2117 186.557 25.9042 186.444 25.6735C186.331 25.4384 186.165 25.2688 185.948 25.1648C185.731 25.0562 185.464 25.002 185.147 25.002C184.834 25.002 184.549 25.0675 184.291 25.1987C184.038 25.3298 183.818 25.5107 183.632 25.7414C183.451 25.972 183.309 26.2365 183.205 26.535C183.105 26.829 183.055 27.141 183.055 27.4711Z" fill="#3A322C"/>
<path d="M191.47 24.0794V31.4191H190.207V24.0794H191.47ZM190.112 22.1326C190.112 21.9291 190.173 21.7572 190.296 21.617C190.422 21.4769 190.608 21.4068 190.852 21.4068C191.092 21.4068 191.276 21.4769 191.402 21.617C191.534 21.7572 191.599 21.9291 191.599 22.1326C191.599 22.327 191.534 22.4944 191.402 22.6346C191.276 22.7702 191.092 22.8381 190.852 22.8381C190.608 22.8381 190.422 22.7702 190.296 22.6346C190.173 22.4944 190.112 22.327 190.112 22.1326Z" fill="#3A322C"/>
<path d="M195.2 20.9998V31.4191H193.937V20.9998H195.2Z" fill="#3A322C"/>
<path d="M198.821 20.9998V31.4191H197.564V20.9998H198.821ZM198.522 27.4711L197.999 27.4508C198.004 26.9488 198.078 26.4853 198.223 26.0602C198.368 25.6306 198.572 25.2575 198.834 24.9409C199.097 24.6244 199.409 24.3802 199.771 24.2083C200.138 24.0319 200.543 23.9438 200.987 23.9438C201.349 23.9438 201.675 23.9935 201.965 24.093C202.255 24.188 202.501 24.3417 202.705 24.5543C202.913 24.7668 203.072 25.0427 203.18 25.3818C203.289 25.7165 203.343 26.1257 203.343 26.6096V31.4191H202.08V26.5961C202.08 26.2117 202.024 25.9042 201.91 25.6735C201.797 25.4384 201.632 25.2688 201.415 25.1648C201.197 25.0562 200.93 25.002 200.613 25.002C200.301 25.002 200.016 25.0675 199.758 25.1987C199.504 25.3298 199.285 25.5107 199.099 25.7414C198.918 25.972 198.775 26.2365 198.671 26.535C198.572 26.829 198.522 27.141 198.522 27.4711Z" fill="#3A322C"/>
<path d="M209.905 30.1641V26.3858C209.905 26.0964 209.846 25.8454 209.728 25.6328C209.615 25.4158 209.443 25.2484 209.212 25.1308C208.981 25.0133 208.696 24.9545 208.356 24.9545C208.039 24.9545 207.761 25.0087 207.521 25.1173C207.286 25.2258 207.1 25.3683 206.964 25.5446C206.833 25.721 206.767 25.9109 206.767 26.1144H205.511C205.511 25.8522 205.579 25.5921 205.715 25.3344C205.851 25.0766 206.045 24.8437 206.299 24.6357C206.557 24.4231 206.865 24.2558 207.222 24.1337C207.584 24.0071 207.987 23.9438 208.431 23.9438C208.965 23.9438 209.436 24.0342 209.843 24.2151C210.255 24.396 210.577 24.6696 210.808 25.0359C211.043 25.3977 211.161 25.8522 211.161 26.3993V29.8182C211.161 30.0624 211.181 30.3224 211.222 30.5983C211.267 30.8741 211.333 31.1115 211.419 31.3105V31.4191H210.108C210.045 31.2744 209.995 31.0822 209.959 30.8425C209.923 30.5983 209.905 30.3722 209.905 30.1641ZM210.122 26.9692L210.135 27.851H208.866C208.508 27.851 208.189 27.8804 207.908 27.9392C207.627 27.9934 207.392 28.0771 207.202 28.1902C207.012 28.3032 206.867 28.4457 206.767 28.6175C206.668 28.7848 206.618 28.9816 206.618 29.2077C206.618 29.4383 206.67 29.6486 206.774 29.8385C206.878 30.0285 207.034 30.18 207.243 30.293C207.455 30.4016 207.716 30.4558 208.024 30.4558C208.408 30.4558 208.748 30.3744 209.042 30.2116C209.336 30.0488 209.57 29.8498 209.742 29.6147C209.918 29.3795 210.013 29.1511 210.027 28.9296L210.563 29.5333C210.532 29.7232 210.446 29.9335 210.305 30.1641C210.165 30.3948 209.977 30.6164 209.742 30.8289C209.511 31.0369 209.235 31.211 208.913 31.3512C208.596 31.4869 208.239 31.5547 207.84 31.5547C207.342 31.5547 206.905 31.4575 206.53 31.263C206.158 31.0686 205.869 30.8086 205.66 30.483C205.457 30.1528 205.355 29.7843 205.355 29.3773C205.355 28.9838 205.432 28.6379 205.586 28.3394C205.74 28.0364 205.961 27.7854 206.251 27.5864C206.541 27.3829 206.889 27.2292 207.297 27.1252C207.704 27.0212 208.159 26.9692 208.662 26.9692H210.122Z" fill="#3A322C"/>
<path d="M214.741 25.2326V31.4191H213.485V24.0794H214.707L214.741 25.2326ZM217.036 24.0387L217.029 25.2055C216.925 25.1829 216.826 25.1693 216.731 25.1648C216.64 25.1557 216.536 25.1512 216.418 25.1512C216.129 25.1512 215.873 25.1964 215.651 25.2869C215.429 25.3773 215.241 25.5039 215.087 25.6667C214.933 25.8295 214.811 26.024 214.721 26.2501C214.635 26.4717 214.578 26.7159 214.551 26.9827L214.198 27.1862C214.198 26.743 214.241 26.327 214.327 25.9381C214.417 25.5492 214.555 25.2055 214.741 24.907C214.927 24.604 215.162 24.3688 215.447 24.2015C215.737 24.0297 216.081 23.9438 216.479 23.9438C216.57 23.9438 216.674 23.9551 216.792 23.9777C216.91 23.9958 216.991 24.0161 217.036 24.0387Z" fill="#3A322C"/>
<path d="M219.795 25.5379V31.4191H218.532V24.0794H219.727L219.795 25.5379ZM219.537 27.4711L218.953 27.4508C218.957 26.9488 219.023 26.4853 219.15 26.0602C219.276 25.6306 219.464 25.2575 219.713 24.9409C219.962 24.6244 220.272 24.3802 220.644 24.2083C221.015 24.0319 221.445 23.9438 221.934 23.9438C222.278 23.9438 222.595 23.9935 222.884 24.093C223.174 24.188 223.425 24.3395 223.638 24.5475C223.851 24.7555 224.016 25.0223 224.134 25.3479C224.252 25.6735 224.311 26.067 224.311 26.5282V31.4191H223.054V26.5893C223.054 26.2049 222.989 25.8974 222.857 25.6667C222.731 25.4361 222.549 25.2688 222.314 25.1648C222.079 25.0562 221.803 25.002 221.486 25.002C221.114 25.002 220.804 25.0675 220.555 25.1987C220.306 25.3298 220.107 25.5107 219.958 25.7414C219.808 25.972 219.7 26.2365 219.632 26.535C219.568 26.829 219.537 27.141 219.537 27.4711ZM224.297 26.7792L223.455 27.037C223.459 26.6345 223.525 26.2478 223.652 25.877C223.783 25.5062 223.971 25.1761 224.215 24.8866C224.464 24.5972 224.77 24.3688 225.132 24.2015C225.494 24.0297 225.909 23.9438 226.375 23.9438C226.769 23.9438 227.117 23.9958 227.421 24.0998C227.729 24.2038 227.987 24.3643 228.195 24.5814C228.408 24.7939 228.568 25.0675 228.677 25.4022C228.786 25.7368 228.84 26.1348 228.84 26.5961V31.4191H227.577V26.5825C227.577 26.171 227.511 25.8522 227.38 25.626C227.253 25.3954 227.072 25.2349 226.837 25.1444C226.606 25.0494 226.33 25.002 226.008 25.002C225.732 25.002 225.488 25.0494 225.275 25.1444C225.062 25.2394 224.883 25.3705 224.738 25.5379C224.594 25.7007 224.483 25.8883 224.406 26.1009C224.333 26.3134 224.297 26.5395 224.297 26.7792Z" fill="#3A322C"/>
<path d="M230.756 27.8306V27.6746C230.756 27.1455 230.833 26.6549 230.987 26.2026C231.141 25.7459 231.363 25.3502 231.653 25.0155C231.942 24.6764 232.293 24.4141 232.705 24.2287C233.117 24.0387 233.579 23.9438 234.091 23.9438C234.607 23.9438 235.071 24.0387 235.483 24.2287C235.899 24.4141 236.252 24.6764 236.542 25.0155C236.836 25.3502 237.06 25.7459 237.214 26.2026C237.368 26.6549 237.445 27.1455 237.445 27.6746V27.8306C237.445 28.3597 237.368 28.8504 237.214 29.3026C237.06 29.7549 236.836 30.1506 236.542 30.4897C236.252 30.8244 235.902 31.0867 235.49 31.2766C235.082 31.462 234.62 31.5547 234.104 31.5547C233.588 31.5547 233.124 31.462 232.712 31.2766C232.3 31.0867 231.947 30.8244 231.653 30.4897C231.363 30.1506 231.141 29.7549 230.987 29.3026C230.833 28.8504 230.756 28.3597 230.756 27.8306ZM232.013 27.6746V27.8306C232.013 28.1969 232.056 28.5429 232.142 28.8685C232.228 29.1896 232.357 29.4745 232.529 29.7232C232.705 29.9719 232.925 30.1687 233.187 30.3134C233.45 30.4536 233.756 30.5237 234.104 30.5237C234.448 30.5237 234.749 30.4536 235.007 30.3134C235.27 30.1687 235.487 29.9719 235.659 29.7232C235.831 29.4745 235.96 29.1896 236.046 28.8685C236.137 28.5429 236.182 28.1969 236.182 27.8306V27.6746C236.182 27.3128 236.137 26.9714 236.046 26.6503C235.96 26.3247 235.829 26.0376 235.653 25.7888C235.48 25.5356 235.263 25.3366 235.001 25.1919C234.743 25.0472 234.439 24.9748 234.091 24.9748C233.747 24.9748 233.443 25.0472 233.181 25.1919C232.923 25.3366 232.705 25.5356 232.529 25.7888C232.357 26.0376 232.228 26.3247 232.142 26.6503C232.056 26.9714 232.013 27.3128 232.013 27.6746Z" fill="#3A322C"/>
<path d="M240.625 25.6464V31.4191H239.368V24.0794H240.557L240.625 25.6464ZM240.326 27.4711L239.803 27.4508C239.808 26.9488 239.882 26.4853 240.027 26.0602C240.172 25.6306 240.376 25.2575 240.638 24.9409C240.901 24.6244 241.213 24.3802 241.575 24.2083C241.942 24.0319 242.347 23.9438 242.791 23.9438C243.153 23.9438 243.479 23.9935 243.769 24.093C244.059 24.188 244.305 24.3417 244.509 24.5543C244.717 24.7668 244.876 25.0427 244.984 25.3818C245.093 25.7165 245.147 26.1257 245.147 26.6096V31.4191H243.884V26.5961C243.884 26.2117 243.828 25.9042 243.715 25.6735C243.601 25.4384 243.436 25.2688 243.219 25.1648C243.001 25.0562 242.734 25.002 242.417 25.002C242.105 25.002 241.82 25.0675 241.562 25.1987C241.308 25.3298 241.089 25.5107 240.903 25.7414C240.722 25.972 240.579 26.2365 240.475 26.535C240.376 26.829 240.326 27.141 240.326 27.4711Z" fill="#3A322C"/>
<path d="M248.768 24.0794V31.4191H247.505V24.0794H248.768ZM247.41 22.1326C247.41 21.9291 247.471 21.7572 247.593 21.617C247.72 21.4769 247.906 21.4068 248.15 21.4068C248.39 21.4068 248.574 21.4769 248.7 21.617C248.832 21.7572 248.897 21.9291 248.897 22.1326C248.897 22.327 248.832 22.4944 248.7 22.6346C248.574 22.7702 248.39 22.8381 248.15 22.8381C247.906 22.8381 247.72 22.7702 247.593 22.6346C247.471 22.4944 247.41 22.327 247.41 22.1326Z" fill="#3A322C"/>
<path d="M254.073 30.5237C254.372 30.5237 254.648 30.4626 254.902 30.3405C255.155 30.2184 255.363 30.0511 255.526 29.8385C255.689 29.6215 255.782 29.375 255.805 29.0991H257C256.977 29.5333 256.83 29.938 256.559 30.3134C256.292 30.6842 255.941 30.9849 255.506 31.2156C255.071 31.4417 254.594 31.5547 254.073 31.5547C253.521 31.5547 253.039 31.4575 252.627 31.263C252.219 31.0686 251.88 30.8018 251.608 30.4626C251.341 30.1234 251.14 29.7345 251.004 29.2959C250.872 28.8527 250.807 28.3846 250.807 27.8917V27.6068C250.807 27.1139 250.872 26.6481 251.004 26.2094C251.14 25.7662 251.341 25.3751 251.608 25.0359C251.88 24.6967 252.219 24.4299 252.627 24.2354C253.039 24.041 253.521 23.9438 254.073 23.9438C254.648 23.9438 255.151 24.0613 255.581 24.2965C256.011 24.5271 256.348 24.8437 256.593 25.2462C256.842 25.6441 256.977 26.0964 257 26.6028H255.805C255.782 26.2999 255.696 26.0263 255.547 25.7821C255.402 25.5379 255.203 25.3434 254.949 25.1987C254.7 25.0494 254.408 24.9748 254.073 24.9748C253.688 24.9748 253.365 25.0517 253.102 25.2055C252.844 25.3547 252.638 25.5582 252.484 25.816C252.335 26.0692 252.226 26.3519 252.158 26.6639C252.095 26.9714 252.063 27.2857 252.063 27.6068V27.8917C252.063 28.2128 252.095 28.5293 252.158 28.8414C252.222 29.1534 252.328 29.436 252.477 29.6893C252.631 29.9425 252.837 30.146 253.095 30.2998C253.358 30.449 253.684 30.5237 254.073 30.5237Z" fill="#3A322C"/>
<path d="M93.5799 42.9027V43.5268C93.5799 44.2685 93.4871 44.9332 93.3015 45.5211C93.1159 46.109 92.8488 46.6087 92.5002 47.0203C92.1516 47.4318 91.7328 47.7461 91.2439 47.9632C90.7595 48.1802 90.2162 48.2888 89.6141 48.2888C89.0301 48.2888 88.4936 48.1802 88.0047 47.9632C87.5203 47.7461 87.0993 47.4318 86.7416 47.0203C86.3885 46.6087 86.1146 46.109 85.9199 45.5211C85.7253 44.9332 85.6279 44.2685 85.6279 43.5268V42.9027C85.6279 42.1611 85.723 41.4986 85.9131 40.9152C86.1078 40.3273 86.3817 39.8276 86.7348 39.4161C87.0879 39 87.5067 38.6835 87.9911 38.4664C88.4801 38.2493 89.0165 38.1408 89.6005 38.1408C90.2027 38.1408 90.7459 38.2493 91.2303 38.4664C91.7193 38.6835 92.138 39 92.4866 39.4161C92.8397 39.8276 93.1091 40.3273 93.2947 40.9152C93.4849 41.4986 93.5799 42.1611 93.5799 42.9027ZM92.2829 43.5268V42.8892C92.2829 42.3013 92.2218 41.7812 92.0995 41.329C91.9818 40.8768 91.8075 40.4969 91.5767 40.1894C91.3458 39.8819 91.0628 39.649 90.7278 39.4907C90.3973 39.3324 90.0216 39.2533 89.6005 39.2533C89.1931 39.2533 88.8241 39.3324 88.4936 39.4907C88.1677 39.649 87.887 39.8819 87.6516 40.1894C87.4207 40.4969 87.2419 40.8768 87.1151 41.329C86.9883 41.7812 86.925 42.3013 86.925 42.8892V43.5268C86.925 44.1192 86.9883 44.6438 87.1151 45.1006C87.2419 45.5528 87.423 45.9349 87.6584 46.247C87.8983 46.5545 88.1813 46.7874 88.5072 46.9457C88.8377 47.1039 89.2067 47.1831 89.6141 47.1831C90.0397 47.1831 90.4177 47.1039 90.7482 46.9457C91.0787 46.7874 91.3571 46.5545 91.5834 46.247C91.8143 45.9349 91.9886 45.5528 92.1063 45.1006C92.224 44.6438 92.2829 44.1192 92.2829 43.5268Z" fill="#3A322C"/>
<path d="M96.9563 41.9666V48.1531H95.7V40.8135H96.9224L96.9563 41.9666ZM99.2516 40.7728L99.2448 41.9395C99.1407 41.9169 99.0411 41.9033 98.946 41.8988C98.8555 41.8898 98.7513 41.8852 98.6336 41.8852C98.3439 41.8852 98.0881 41.9305 97.8663 42.0209C97.6444 42.1114 97.4566 42.238 97.3026 42.4008C97.1487 42.5636 97.0265 42.758 96.9359 42.9841C96.8499 43.2057 96.7933 43.4499 96.7662 43.7168L96.413 43.9203C96.413 43.4771 96.4561 43.061 96.5421 42.6721C96.6326 42.2832 96.7707 41.9395 96.9563 41.641C97.1419 41.338 97.3773 41.1029 97.6625 40.9356C97.9523 40.7637 98.2964 40.6778 98.6947 40.6778C98.7853 40.6778 98.8894 40.6891 99.0071 40.7117C99.1248 40.7298 99.2063 40.7501 99.2516 40.7728Z" fill="#3A322C"/>
<path d="M103.565 47.2577C103.864 47.2577 104.14 47.1966 104.394 47.0745C104.647 46.9524 104.855 46.7851 105.018 46.5726C105.181 46.3555 105.274 46.109 105.297 45.8332H106.492C106.469 46.2673 106.322 46.6721 106.051 47.0474C105.783 47.4182 105.433 47.719 104.998 47.9496C104.563 48.1757 104.086 48.2888 103.565 48.2888C103.013 48.2888 102.531 48.1915 102.119 47.9971C101.711 47.8026 101.372 47.5358 101.1 47.1966C100.833 46.8575 100.631 46.4686 100.496 46.0299C100.364 45.5867 100.299 45.1187 100.299 44.6257V44.3408C100.299 43.8479 100.364 43.3821 100.496 42.9434C100.631 42.5003 100.833 42.1091 101.1 41.7699C101.372 41.4307 101.711 41.1639 102.119 40.9695C102.531 40.775 103.013 40.6778 103.565 40.6778C104.14 40.6778 104.643 40.7954 105.073 41.0305C105.503 41.2612 105.84 41.5777 106.084 41.9802C106.333 42.3782 106.469 42.8304 106.492 43.3369H105.297C105.274 43.0339 105.188 42.7603 105.039 42.5161C104.894 42.2719 104.695 42.0774 104.441 41.9327C104.192 41.7835 103.9 41.7089 103.565 41.7089C103.18 41.7089 102.857 41.7857 102.594 41.9395C102.336 42.0887 102.13 42.2922 101.976 42.55C101.827 42.8033 101.718 43.0859 101.65 43.3979C101.587 43.7055 101.555 44.0197 101.555 44.3408V44.6257C101.555 44.9468 101.587 45.2634 101.65 45.5754C101.713 45.8874 101.82 46.1701 101.969 46.4233C102.123 46.6766 102.329 46.8801 102.587 47.0338C102.85 47.1831 103.176 47.2577 103.565 47.2577Z" fill="#3A322C"/>
<path d="M109.508 37.7338V48.1531H108.252V37.7338H109.508ZM109.21 44.2052L108.687 44.1848C108.691 43.6828 108.766 43.2193 108.911 42.7942C109.056 42.3646 109.259 41.9915 109.522 41.675C109.785 41.3584 110.097 41.1142 110.459 40.9423C110.826 40.766 111.231 40.6778 111.675 40.6778C112.037 40.6778 112.363 40.7275 112.653 40.827C112.942 40.922 113.189 41.0758 113.393 41.2883C113.601 41.5008 113.759 41.7767 113.868 42.1159C113.977 42.4505 114.031 42.8598 114.031 43.3437V48.1531H112.768V43.3301C112.768 42.9457 112.711 42.6382 112.598 42.4076C112.485 42.1724 112.32 42.0028 112.102 41.8988C111.885 41.7903 111.618 41.736 111.301 41.736C110.989 41.736 110.704 41.8016 110.446 41.9327C110.192 42.0639 109.972 42.2448 109.787 42.4754C109.606 42.706 109.463 42.9706 109.359 43.2691C109.259 43.563 109.21 43.875 109.21 44.2052Z" fill="#3A322C"/>
<path d="M119.309 48.2888C118.797 48.2888 118.333 48.2028 117.917 48.031C117.505 47.8546 117.149 47.6082 116.851 47.2916C116.556 46.9751 116.33 46.5997 116.171 46.1656C116.013 45.7314 115.934 45.2566 115.934 44.7411V44.4561C115.934 43.8592 116.022 43.3278 116.199 42.862C116.375 42.3917 116.615 41.9938 116.918 41.6682C117.222 41.3426 117.566 41.0961 117.951 40.9288C118.335 40.7615 118.734 40.6778 119.146 40.6778C119.671 40.6778 120.124 40.7682 120.504 40.9491C120.889 41.13 121.203 41.3833 121.448 41.7089C121.692 42.03 121.873 42.4098 121.991 42.8485C122.109 43.2826 122.168 43.7575 122.168 44.273V44.836H116.681V43.8117H120.911V43.7168C120.893 43.3912 120.825 43.0746 120.708 42.7671C120.595 42.4596 120.413 42.2063 120.164 42.0073C119.915 41.8084 119.576 41.7089 119.146 41.7089C118.861 41.7089 118.598 41.7699 118.358 41.892C118.118 42.0096 117.912 42.186 117.74 42.4211C117.568 42.6563 117.435 42.9434 117.34 43.2826C117.244 43.6218 117.197 44.013 117.197 44.4561V44.7411C117.197 45.0893 117.244 45.4171 117.34 45.7246C117.439 46.0276 117.582 46.2945 117.767 46.5251C117.957 46.7557 118.186 46.9366 118.453 47.0678C118.725 47.1989 119.033 47.2645 119.377 47.2645C119.82 47.2645 120.196 47.174 120.504 46.9931C120.812 46.8123 121.081 46.5703 121.312 46.2673L122.073 46.871C121.914 47.1107 121.713 47.3391 121.468 47.5562C121.224 47.7732 120.923 47.9496 120.565 48.0853C120.212 48.2209 119.793 48.2888 119.309 48.2888Z" fill="#3A322C"/>
<path d="M128.26 46.2063C128.26 46.0254 128.22 45.8581 128.138 45.7043C128.061 45.546 127.901 45.4036 127.656 45.2769C127.416 45.1458 127.054 45.0327 126.57 44.9378C126.162 44.8518 125.793 44.7501 125.463 44.6325C125.137 44.5149 124.858 44.3725 124.627 44.2052C124.401 44.0378 124.227 43.8411 124.104 43.615C123.982 43.3889 123.921 43.1243 123.921 42.8213C123.921 42.5319 123.985 42.2583 124.111 42.0006C124.243 41.7428 124.426 41.5144 124.661 41.3154C124.901 41.1165 125.189 40.9604 125.524 40.8474C125.859 40.7343 126.232 40.6778 126.644 40.6778C127.233 40.6778 127.735 40.7818 128.152 40.9898C128.568 41.1979 128.887 41.476 129.109 41.8242C129.331 42.1679 129.442 42.55 129.442 42.9706H128.186C128.186 42.7671 128.125 42.5704 128.002 42.3804C127.885 42.186 127.71 42.0254 127.479 41.8988C127.253 41.7722 126.975 41.7089 126.644 41.7089C126.296 41.7089 126.013 41.7631 125.795 41.8717C125.583 41.9757 125.426 42.1091 125.327 42.2719C125.232 42.4347 125.184 42.6065 125.184 42.7874C125.184 42.9231 125.207 43.0452 125.252 43.1537C125.302 43.2577 125.388 43.355 125.51 43.4454C125.632 43.5313 125.804 43.6127 126.026 43.6896C126.248 43.7665 126.531 43.8434 126.875 43.9203C127.477 44.0559 127.973 44.2187 128.362 44.4087C128.752 44.5986 129.041 44.8315 129.232 45.1074C129.422 45.3832 129.517 45.7179 129.517 46.1113C129.517 46.4324 129.449 46.7263 129.313 46.9931C129.182 47.26 128.989 47.4906 128.736 47.685C128.487 47.875 128.188 48.0242 127.839 48.1328C127.495 48.2368 127.108 48.2888 126.678 48.2888C126.031 48.2888 125.483 48.1735 125.035 47.9428C124.587 47.7122 124.247 47.4137 124.016 47.0474C123.785 46.6811 123.67 46.2945 123.67 45.8874H124.933C124.951 46.2311 125.051 46.5047 125.232 46.7082C125.413 46.9072 125.635 47.0497 125.897 47.1356C126.16 47.217 126.42 47.2577 126.678 47.2577C127.022 47.2577 127.31 47.2125 127.541 47.122C127.776 47.0316 127.955 46.9072 128.077 46.7489C128.199 46.5907 128.26 46.4098 128.26 46.2063Z" fill="#3A322C"/>
<path d="M134.591 40.8135V41.7767H130.618V40.8135H134.591ZM131.963 39.0294H133.219V46.3351C133.219 46.5839 133.258 46.7715 133.335 46.8982C133.411 47.0248 133.511 47.1085 133.633 47.1492C133.756 47.1899 133.887 47.2102 134.027 47.2102C134.131 47.2102 134.24 47.2012 134.353 47.1831C134.471 47.1605 134.559 47.1424 134.618 47.1288L134.625 48.1531C134.525 48.1848 134.394 48.2142 134.231 48.2413C134.072 48.2729 133.88 48.2888 133.654 48.2888C133.346 48.2888 133.063 48.2277 132.805 48.1056C132.547 47.9835 132.341 47.78 132.187 47.4951C132.037 47.2057 131.963 46.8168 131.963 46.3284V39.0294Z" fill="#3A322C"/>
<path d="M137.668 41.9666V48.1531H136.412V40.8135H137.634L137.668 41.9666ZM139.964 40.7728L139.957 41.9395C139.853 41.9169 139.753 41.9033 139.658 41.8988C139.568 41.8898 139.463 41.8852 139.346 41.8852C139.056 41.8852 138.8 41.9305 138.578 42.0209C138.357 42.1114 138.169 42.238 138.015 42.4008C137.861 42.5636 137.739 42.758 137.648 42.9841C137.562 43.2057 137.505 43.4499 137.478 43.7168L137.125 43.9203C137.125 43.4771 137.168 43.061 137.254 42.6721C137.345 42.2832 137.483 41.9395 137.668 41.641C137.854 41.338 138.089 41.1029 138.375 40.9356C138.664 40.7637 139.008 40.6778 139.407 40.6778C139.497 40.6778 139.601 40.6891 139.719 40.7117C139.837 40.7298 139.918 40.7501 139.964 40.7728Z" fill="#3A322C"/>
<path d="M145.533 46.8982V43.1198C145.533 42.8304 145.475 42.5794 145.357 42.3669C145.244 42.1498 145.072 41.9825 144.841 41.8649C144.61 41.7473 144.325 41.6885 143.985 41.6885C143.668 41.6885 143.39 41.7428 143.15 41.8513C142.914 41.9599 142.729 42.1023 142.593 42.2787C142.462 42.455 142.396 42.645 142.396 42.8485H141.14C141.14 42.5862 141.208 42.3262 141.344 42.0684C141.479 41.8106 141.674 41.5777 141.928 41.3697C142.186 41.1572 142.493 40.9898 142.851 40.8677C143.213 40.7411 143.616 40.6778 144.06 40.6778C144.594 40.6778 145.065 40.7682 145.472 40.9491C145.884 41.13 146.206 41.4036 146.437 41.7699C146.672 42.1317 146.79 42.5862 146.79 43.1334V46.5522C146.79 46.7964 146.81 47.0565 146.851 47.3323C146.896 47.6082 146.962 47.8456 147.048 48.0446V48.1531H145.737C145.674 48.0084 145.624 47.8162 145.588 47.5765C145.552 47.3323 145.533 47.1062 145.533 46.8982ZM145.751 43.7032L145.764 44.585H144.494C144.137 44.585 143.818 44.6144 143.537 44.6732C143.256 44.7275 143.021 44.8111 142.831 44.9242C142.641 45.0373 142.496 45.1797 142.396 45.3516C142.297 45.5189 142.247 45.7156 142.247 45.9417C142.247 46.1723 142.299 46.3826 142.403 46.5726C142.507 46.7625 142.663 46.914 142.871 47.0271C143.084 47.1356 143.345 47.1899 143.652 47.1899C144.037 47.1899 144.377 47.1085 144.671 46.9457C144.965 46.7829 145.198 46.5839 145.37 46.3487C145.547 46.1136 145.642 45.8852 145.656 45.6636L146.192 46.2673C146.16 46.4573 146.074 46.6675 145.934 46.8982C145.794 47.1288 145.606 47.3504 145.37 47.5629C145.14 47.771 144.863 47.9451 144.542 48.0853C144.225 48.2209 143.867 48.2888 143.469 48.2888C142.971 48.2888 142.534 48.1915 142.158 47.9971C141.787 47.8026 141.497 47.5426 141.289 47.217C141.085 46.8869 140.984 46.5183 140.984 46.1113C140.984 45.7179 141.061 45.3719 141.215 45.0734C141.368 44.7704 141.59 44.5195 141.88 44.3205C142.17 44.117 142.518 43.9632 142.926 43.8592C143.333 43.7552 143.788 43.7032 144.291 43.7032H145.751Z" fill="#3A322C"/>
<path d="M152.578 44.5647V44.4087C152.578 43.8796 152.655 43.3889 152.809 42.9367C152.963 42.4799 153.185 42.0842 153.475 41.7496C153.764 41.4104 154.115 41.1481 154.527 40.9627C154.939 40.7728 155.401 40.6778 155.912 40.6778C156.429 40.6778 156.893 40.7728 157.305 40.9627C157.721 41.1481 158.074 41.4104 158.364 41.7496C158.658 42.0842 158.882 42.4799 159.036 42.9367C159.19 43.3889 159.267 43.8796 159.267 44.4087V44.5647C159.267 45.0938 159.19 45.5845 159.036 46.0367C158.882 46.4889 158.658 46.8846 158.364 47.2238C158.074 47.5584 157.723 47.8207 157.311 48.0107C156.904 48.1961 156.442 48.2888 155.926 48.2888C155.41 48.2888 154.946 48.1961 154.534 48.0107C154.122 47.8207 153.769 47.5584 153.475 47.2238C153.185 46.8846 152.963 46.4889 152.809 46.0367C152.655 45.5845 152.578 45.0938 152.578 44.5647ZM153.835 44.4087V44.5647C153.835 44.931 153.878 45.2769 153.964 45.6025C154.05 45.9236 154.179 46.2085 154.351 46.4573C154.527 46.706 154.747 46.9027 155.009 47.0474C155.272 47.1876 155.577 47.2577 155.926 47.2577C156.27 47.2577 156.571 47.1876 156.829 47.0474C157.092 46.9027 157.309 46.706 157.481 46.4573C157.653 46.2085 157.782 45.9236 157.868 45.6025C157.959 45.2769 158.004 44.931 158.004 44.5647V44.4087C158.004 44.0469 157.959 43.7055 157.868 43.3844C157.782 43.0588 157.651 42.7716 157.474 42.5229C157.302 42.2696 157.085 42.0707 156.822 41.9259C156.564 41.7812 156.261 41.7089 155.912 41.7089C155.568 41.7089 155.265 41.7812 155.003 41.9259C154.744 42.0707 154.527 42.2696 154.351 42.5229C154.179 42.7716 154.05 43.0588 153.964 43.3844C153.878 43.7055 153.835 44.0469 153.835 44.4087Z" fill="#3A322C"/>
<path d="M163.065 48.1531H161.808V40.0402C161.808 39.511 161.903 39.0656 162.093 38.7038C162.288 38.3375 162.567 38.0617 162.929 37.8762C163.291 37.6863 163.721 37.5913 164.219 37.5913C164.364 37.5913 164.509 37.6004 164.654 37.6185C164.803 37.6366 164.948 37.6637 165.088 37.6999L165.02 38.7242C164.925 38.7016 164.817 38.6857 164.694 38.6767C164.577 38.6676 164.459 38.6631 164.341 38.6631C164.074 38.6631 163.843 38.7174 163.649 38.8259C163.458 38.9299 163.314 39.0837 163.214 39.2872C163.114 39.4907 163.065 39.7417 163.065 40.0402V48.1531ZM164.626 40.8135V41.7767H160.647V40.8135H164.626Z" fill="#3A322C"/>
<path d="M176.017 38.2765H177.321V44.9581C177.321 45.6998 177.156 46.3171 176.825 46.81C176.495 47.3029 176.056 47.6737 175.508 47.9225C174.965 48.1667 174.374 48.2888 173.736 48.2888C173.066 48.2888 172.459 48.1667 171.916 47.9225C171.377 47.6737 170.949 47.3029 170.632 46.81C170.32 46.3171 170.164 45.6998 170.164 44.9581V38.2765H171.461V44.9581C171.461 45.4737 171.556 45.8988 171.746 46.2334C171.936 46.568 172.201 46.8168 172.54 46.9796C172.884 47.1424 173.283 47.2238 173.736 47.2238C174.193 47.2238 174.591 47.1424 174.931 46.9796C175.275 46.8168 175.542 46.568 175.732 46.2334C175.922 45.8988 176.017 45.4737 176.017 44.9581V38.2765Z" fill="#3A322C"/>
<path d="M180.799 37.7338V48.1531H179.536V37.7338H180.799ZM185.288 40.8135L182.083 44.2391L180.29 46.0977L180.188 44.7614L181.472 43.2284L183.753 40.8135H185.288ZM184.14 48.1531L181.519 44.6529L182.171 43.5336L185.621 48.1531H184.14Z" fill="#3A322C"/>
<path d="M188.189 41.9666V48.1531H186.933V40.8135H188.155L188.189 41.9666ZM190.484 40.7728L190.478 41.9395C190.373 41.9169 190.274 41.9033 190.179 41.8988C190.088 41.8898 189.984 41.8852 189.866 41.8852C189.577 41.8852 189.321 41.9305 189.099 42.0209C188.877 42.1114 188.689 42.238 188.535 42.4008C188.381 42.5636 188.259 42.758 188.169 42.9841C188.083 43.2057 188.026 43.4499 187.999 43.7168L187.646 43.9203C187.646 43.4771 187.689 43.061 187.775 42.6721C187.865 42.2832 188.003 41.9395 188.189 41.641C188.375 41.338 188.61 41.1029 188.895 40.9356C189.185 40.7637 189.529 40.6778 189.927 40.6778C190.018 40.6778 190.122 40.6891 190.24 40.7117C190.358 40.7298 190.439 40.7501 190.484 40.7728Z" fill="#3A322C"/>
<path d="M196.054 46.8982V43.1198C196.054 42.8304 195.995 42.5794 195.878 42.3669C195.764 42.1498 195.592 41.9825 195.361 41.8649C195.131 41.7473 194.845 41.6885 194.506 41.6885C194.189 41.6885 193.911 41.7428 193.671 41.8513C193.435 41.9599 193.25 42.1023 193.114 42.2787C192.982 42.455 192.917 42.645 192.917 42.8485H191.66C191.66 42.5862 191.728 42.3262 191.864 42.0684C192 41.8106 192.195 41.5777 192.448 41.3697C192.706 41.1572 193.014 40.9898 193.372 40.8677C193.734 40.7411 194.137 40.6778 194.581 40.6778C195.115 40.6778 195.586 40.7682 195.993 40.9491C196.405 41.13 196.726 41.4036 196.957 41.7699C197.193 42.1317 197.31 42.5862 197.31 43.1334V46.5522C197.31 46.7964 197.331 47.0565 197.372 47.3323C197.417 47.6082 197.482 47.8456 197.568 48.0446V48.1531H196.258C196.194 48.0084 196.145 47.8162 196.108 47.5765C196.072 47.3323 196.054 47.1062 196.054 46.8982ZM196.271 43.7032L196.285 44.585H195.015C194.657 44.585 194.338 44.6144 194.058 44.6732C193.777 44.7275 193.542 44.8111 193.351 44.9242C193.161 45.0373 193.016 45.1797 192.917 45.3516C192.817 45.5189 192.767 45.7156 192.767 45.9417C192.767 46.1723 192.819 46.3826 192.924 46.5726C193.028 46.7625 193.184 46.914 193.392 47.0271C193.605 47.1356 193.865 47.1899 194.173 47.1899C194.558 47.1899 194.897 47.1085 195.192 46.9457C195.486 46.7829 195.719 46.5839 195.891 46.3487C196.068 46.1136 196.163 45.8852 196.176 45.6636L196.713 46.2673C196.681 46.4573 196.595 46.6675 196.455 46.8982C196.314 47.1288 196.127 47.3504 195.891 47.5629C195.66 47.771 195.384 47.9451 195.063 48.0853C194.746 48.2209 194.388 48.2888 193.99 48.2888C193.492 48.2888 193.055 48.1915 192.679 47.9971C192.308 47.8026 192.018 47.5426 191.81 47.217C191.606 46.8869 191.504 46.5183 191.504 46.1113C191.504 45.7179 191.581 45.3719 191.735 45.0734C191.889 44.7704 192.111 44.5195 192.401 44.3205C192.69 44.117 193.039 43.9632 193.446 43.8592C193.854 43.7552 194.309 43.7032 194.811 43.7032H196.271Z" fill="#3A322C"/>
<path d="M200.999 40.8135V48.1531H199.736V40.8135H200.999ZM199.641 38.8666C199.641 38.6631 199.702 38.4913 199.824 38.3511C199.951 38.2109 200.137 38.1408 200.381 38.1408C200.621 38.1408 200.805 38.2109 200.931 38.3511C201.063 38.4913 201.128 38.6631 201.128 38.8666C201.128 39.0611 201.063 39.2284 200.931 39.3686C200.805 39.5043 200.621 39.5721 200.381 39.5721C200.137 39.5721 199.951 39.5043 199.824 39.3686C199.702 39.2284 199.641 39.0611 199.641 38.8666Z" fill="#3A322C"/>
<path d="M204.62 42.3804V48.1531H203.364V40.8135H204.552L204.62 42.3804ZM204.321 44.2052L203.798 44.1848C203.803 43.6828 203.878 43.2193 204.022 42.7942C204.167 42.3646 204.371 41.9915 204.634 41.675C204.896 41.3584 205.209 41.1142 205.571 40.9423C205.937 40.766 206.343 40.6778 206.786 40.6778C207.148 40.6778 207.474 40.7275 207.764 40.827C208.054 40.922 208.301 41.0758 208.504 41.2883C208.713 41.5008 208.871 41.7767 208.98 42.1159C209.088 42.4505 209.143 42.8598 209.143 43.3437V48.1531H207.88V43.3301C207.88 42.9457 207.823 42.6382 207.71 42.4076C207.597 42.1724 207.431 42.0028 207.214 41.8988C206.997 41.7903 206.73 41.736 206.413 41.736C206.1 41.736 205.815 41.8016 205.557 41.9327C205.304 42.0639 205.084 42.2448 204.898 42.4754C204.717 42.706 204.575 42.9706 204.471 43.2691C204.371 43.563 204.321 43.875 204.321 44.2052Z" fill="#3A322C"/>
<path d="M214.448 48.2888C213.936 48.2888 213.472 48.2028 213.056 48.031C212.644 47.8546 212.288 47.6082 211.989 47.2916C211.695 46.9751 211.469 46.5997 211.31 46.1656C211.152 45.7314 211.073 45.2566 211.073 44.7411V44.4561C211.073 43.8592 211.161 43.3278 211.337 42.862C211.514 42.3917 211.754 41.9938 212.057 41.6682C212.361 41.3426 212.705 41.0961 213.089 40.9288C213.474 40.7615 213.873 40.6778 214.285 40.6778C214.81 40.6778 215.263 40.7682 215.643 40.9491C216.028 41.13 216.342 41.3833 216.587 41.7089C216.831 42.03 217.012 42.4098 217.13 42.8485C217.248 43.2826 217.307 43.7575 217.307 44.273V44.836H211.82V43.8117H216.05V43.7168C216.032 43.3912 215.964 43.0746 215.847 42.7671C215.733 42.4596 215.552 42.2063 215.303 42.0073C215.054 41.8084 214.715 41.7089 214.285 41.7089C213.999 41.7089 213.737 41.7699 213.497 41.892C213.257 42.0096 213.051 42.186 212.879 42.4211C212.707 42.6563 212.573 42.9434 212.478 43.2826C212.383 43.6218 212.336 44.013 212.336 44.4561V44.7411C212.336 45.0893 212.383 45.4171 212.478 45.7246C212.578 46.0276 212.721 46.2945 212.906 46.5251C213.096 46.7557 213.325 46.9366 213.592 47.0678C213.864 47.1989 214.171 47.2645 214.516 47.2645C214.959 47.2645 215.335 47.174 215.643 46.9931C215.951 46.8123 216.22 46.5703 216.451 46.2673L217.211 46.871C217.053 47.1107 216.852 47.3391 216.607 47.5562C216.363 47.7732 216.062 47.9496 215.704 48.0853C215.351 48.2209 214.932 48.2888 214.448 48.2888Z" fill="#3A322C"/>
<path d="M74.4322 0H78.0307L52.0837 63L53.3147 70H49.7162L48.4852 63L74.4322 0Z" fill="#515151"/>
<mask id="mask0_721_304" style="mask-type:alpha" maskUnits="userSpaceOnUse" x="40" y="0" width="28" height="70">
<path d="M63.6366 0H67.2351L43.9395 56.1892L46.2123 70H42.6138L40.341 56.1892L63.6366 0Z" fill="white"/>
</mask>
<g mask="url(#mask0_721_304)">
<path d="M63.6366 0H67.2351L43.9395 56.1892L46.2123 70H42.6138L40.341 56.1892L63.6366 0Z" fill="white"/>
<path d="M42.5193 63.2838L44.4132 58.8379L46.2125 70.0001H43.5609L42.5193 63.2838Z" fill="#515151"/>
<path d="M40.341 56.1892L40.7198 58.4594L64.9624 0H63.6366L40.341 56.1892Z" fill="#515151"/>
</g>
<mask id="mask1_721_304" style="mask-type:alpha" maskUnits="userSpaceOnUse" x="32" y="0" width="25" height="70">
<path d="M52.6519 0H56.2504L35.9852 49.0946L39.2049 70H35.6064L32.3867 49.0946L52.6519 0Z" fill="white"/>
</mask>
<g mask="url(#mask1_721_304)">
<path opacity="0.5" d="M52.6519 0H56.2504L35.9852 49.0946L39.2049 70H35.6064L32.3867 49.0946L52.6519 0Z" fill="white"/>
<path d="M34.4697 56.0947L36.3789 51.6465L39.2046 70.0001H36.553L34.4697 56.0947Z" fill="#515151"/>
<path d="M32.3867 49.0946L32.7243 51.2743L53.9777 0H52.6519L32.3867 49.0946Z" fill="#515151"/>
</g>
<mask id="mask2_721_304" style="mask-type:alpha" maskUnits="userSpaceOnUse" x="24" y="0" width="22" height="70">
<path d="M41.6669 0H45.2654L27.8411 42.2838L32.1972 70H28.5987L24.2426 42.2838L41.6669 0Z" fill="white"/>
</mask>
<g mask="url(#mask2_721_304)">
<path d="M41.6669 0H45.2654L27.8411 42.2838L32.1972 70H28.5987L24.2426 42.2838L41.6669 0Z" fill="white"/>
<path d="M26.3256 49.2843L28.241 44.8389L32.1968 70.0005H29.5453L26.3256 49.2843Z" fill="#515151"/>
<path d="M24.2426 42.2697L24.5802 44.4494L42.9927 0H41.6669L24.2426 42.2697Z" fill="#515151"/>
</g>
<mask id="mask3_721_304" style="mask-type:alpha" maskUnits="userSpaceOnUse" x="16" y="0" width="19" height="70">
<path d="M30.7766 0H34.3751L19.697 35.473L25.1894 70H21.5909L16.0985 35.473L30.7766 0Z" fill="white"/>
</mask>
<g mask="url(#mask3_721_304)">
<path d="M30.7766 0H34.3751L19.697 35.473L25.1894 70H21.5909L16.0985 35.473L30.7766 0Z" fill="white"/>
<path d="M18.16 42.2833L20.0754 37.8379L25.1891 70.0008H22.5375L18.16 42.2833Z" fill="#515151"/>
<path d="M16.107 35.4697L16.4446 37.6494L32.0038 0H30.7727L16.107 35.4697Z" fill="#515151"/>
</g>
<mask id="mask4_721_304" style="mask-type:alpha" maskUnits="userSpaceOnUse" x="8" y="0" width="16" height="70">
<path d="M19.7917 0H23.3902L11.6477 28.473L18.1819 70H14.5834L8.04923 28.473L19.7917 0Z" fill="white"/>
</mask>
<g mask="url(#mask4_721_304)">
<path d="M19.7917 0H23.3902L11.6477 28.473L18.1819 70H14.5834L8.04923 28.473L19.7917 0Z" fill="white"/>
<path d="M10.1635 35.6615L12.0789 31.2161L18.2032 70.0013H15.5516L10.1635 35.6615Z" fill="#515151"/>
<path d="M8.04923 28.4754L8.39029 30.6496L21.022 0H19.791L8.04923 28.4754Z" fill="#515151"/>
</g>
<mask id="mask5_721_304" style="mask-type:alpha" maskUnits="userSpaceOnUse" x="0" y="0" width="13" height="70">
<path d="M8.71216 0H12.3107L3.5985 21.5676L11.269 70H7.67049L0 21.5676L8.71216 0Z" fill="white"/>
</mask>
<g mask="url(#mask5_721_304)">
<path d="M8.71216 0H12.3107L3.5985 21.5676L11.269 70H7.67049L0 21.5676L8.71216 0Z" fill="white"/>
<path d="M2.0708 28.4684L3.9862 24.0232L11.2707 69.9997H8.6192L2.0708 28.4684Z" fill="#515151"/>
<path d="M0 21.5676L0.344018 23.7395L9.94364 0H8.71257L0 21.5676Z" fill="#515151"/>
</g>
</svg>
