<svg width="1515" height="170" viewBox="0 0 1515 170" fill="none" xmlns="http://www.w3.org/2000/svg">
<path fill-rule="evenodd" clip-rule="evenodd" d="M1437.19 49.7301V100.757V151.784L1530.81 160.433C1533.4 160.649 1535.57 160.433 1537.95 159.568L1586.38 143.352C1593.73 140.973 1598.49 134.271 1598.49 126.703V100.757V74.8111C1598.49 67.0274 1593.73 60.5408 1586.38 58.1625L1537.95 41.9463C1535.57 41.0814 1533.19 40.8652 1530.81 41.0814L1437.19 49.7301Z" fill="white" stroke="#575756" stroke-width="1.0001" stroke-miterlimit="22.9256"/>
<path fill-rule="evenodd" clip-rule="evenodd" d="M317.405 151.135H319.567C329.946 140.108 353.946 132.324 381.622 132.324C405.622 132.324 426.594 138.162 438.703 146.811V100.757V54.7027C426.594 63.3514 405.622 69.1892 381.622 69.1892C353.946 69.1892 329.946 61.4054 319.567 50.3784H317.405V100.757V151.135Z" fill="white" stroke="#575756" stroke-width="1.0001" stroke-miterlimit="22.9256"/>
<path fill-rule="evenodd" clip-rule="evenodd" d="M444.324 146.811H522.595V100.757V54.7029H444.324V100.757V146.811Z" fill="white" stroke="#575756" stroke-width="1.0001" stroke-miterlimit="22.9256"/>
<path fill-rule="evenodd" clip-rule="evenodd" d="M544.648 136.865H1067.68V100.757V64.6489H544.648V100.757V136.865Z" fill="white" stroke="#575756" stroke-width="1.0001" stroke-miterlimit="22.9256"/>
<path fill-rule="evenodd" clip-rule="evenodd" d="M1123.89 160.649C1147.68 160.649 1159.35 144 1208.86 144V100.757V57.5139C1159.35 57.5139 1147.89 40.8652 1123.89 40.8652C1101.84 40.8652 1083.89 53.1896 1083.89 68.3247V100.973V133.622C1084.11 148.541 1101.84 160.649 1123.89 160.649Z" fill="white" stroke="#575756" stroke-width="1.0001" stroke-miterlimit="22.9256"/>
<path fill-rule="evenodd" clip-rule="evenodd" d="M1208.86 144L1412.32 148.757V100.757V52.7571L1208.86 57.5139V100.757V144Z" fill="white" stroke="#575756" stroke-width="1.0001" stroke-miterlimit="22.9256"/>
<path fill-rule="evenodd" clip-rule="evenodd" d="M1427.68 161.297C1432.86 161.297 1437.19 156.973 1437.19 151.784V100.757V49.7298C1437.19 44.5406 1432.86 40.2163 1427.68 40.2163C1422.49 40.2163 1418.16 44.5406 1418.16 49.7298V100.757V151.784C1418.16 156.973 1422.49 161.297 1427.68 161.297Z" fill="white" stroke="#575756" stroke-width="1.0001" stroke-miterlimit="22.9256"/>
<path fill-rule="evenodd" clip-rule="evenodd" d="M1448.86 157.406C1450.38 157.406 1451.68 156.108 1451.68 154.595V100.757V46.9192C1451.68 45.4057 1450.38 44.1084 1448.86 44.1084C1447.35 44.1084 1446.05 45.4057 1446.05 46.9192V100.757V154.595C1445.84 156.108 1447.13 157.406 1448.86 157.406Z" fill="white" stroke="#575756" stroke-width="1.0001" stroke-miterlimit="22.9256"/>
<path fill-rule="evenodd" clip-rule="evenodd" d="M1415.35 153.081C1416.86 153.081 1418.16 151.784 1418.16 150.27V100.973V51.6758C1418.16 50.1623 1416.86 48.865 1415.35 48.865C1413.84 48.865 1412.54 50.1623 1412.54 51.6758V100.973V150.27C1412.32 151.784 1413.62 153.081 1415.35 153.081Z" fill="white" stroke="#575756" stroke-width="1.0001" stroke-miterlimit="22.9256"/>
<path fill-rule="evenodd" clip-rule="evenodd" d="M1144.86 40.4329C1143.35 40.4329 1142.05 41.7302 1142.05 43.2437V100.757V158.271C1142.05 159.784 1143.35 161.082 1144.86 161.082C1146.38 161.082 1147.68 159.784 1147.68 158.271V100.757V43.2437C1147.89 41.7302 1146.38 40.4329 1144.86 40.4329Z" fill="white" stroke="#575756" stroke-width="1.0001" stroke-miterlimit="22.9256"/>
<path fill-rule="evenodd" clip-rule="evenodd" d="M1211.24 52.5405C1209.73 52.5405 1208.43 53.8378 1208.43 55.3513V100.541V145.73C1208.43 147.243 1209.73 148.541 1211.24 148.541C1212.76 148.541 1214.05 147.243 1214.05 145.73V100.541V55.3513C1214.05 53.8378 1212.76 52.5405 1211.24 52.5405Z" fill="white" stroke="#575756" stroke-width="1.0001" stroke-miterlimit="22.9256"/>
<path fill-rule="evenodd" clip-rule="evenodd" d="M1217.08 54.4868C1215.57 54.4868 1214.27 55.7841 1214.27 57.2976V100.541V143.784C1214.27 145.298 1215.57 146.595 1217.08 146.595C1218.59 146.595 1219.89 145.298 1219.89 143.784V100.541V57.2976C1219.89 55.7841 1218.59 54.4868 1217.08 54.4868Z" fill="white" stroke="#575756" stroke-width="1.0001" stroke-miterlimit="22.9256"/>
<path fill-rule="evenodd" clip-rule="evenodd" d="M1079.35 100.757V57.7301C1079.35 52.9734 1082.38 48.8652 1086.7 47.3517C1087.35 47.1355 1088.22 47.1355 1088.65 47.568C1089.3 48.0004 1089.51 48.6491 1089.51 49.2977V100.757V152.217C1089.51 152.865 1089.08 153.514 1088.65 153.946C1088 154.379 1087.35 154.379 1086.7 154.163C1082.38 152.649 1079.35 148.541 1079.35 143.784V100.757Z" fill="white" stroke="#575756" stroke-width="1.0001" stroke-miterlimit="22.9256"/>
<path fill-rule="evenodd" clip-rule="evenodd" d="M1076.32 56.0002C1074.81 56.0002 1073.51 57.2975 1073.51 58.8111V100.541V142.271C1073.51 143.784 1074.81 145.081 1076.32 145.081C1077.84 145.081 1079.14 143.784 1079.14 142.271V100.541V58.8111C1079.35 57.2975 1078.05 56.0002 1076.32 56.0002Z" fill="white" stroke="#575756" stroke-width="1.0001" stroke-miterlimit="22.9256"/>
<path fill-rule="evenodd" clip-rule="evenodd" d="M1070.7 62.4868C1069.19 62.4868 1067.89 63.7841 1067.89 65.2976V100.541V135.784C1067.89 137.298 1069.19 138.595 1070.7 138.595C1072.22 138.595 1073.51 137.298 1073.51 135.784V100.541V65.2976C1073.51 64.0003 1072.22 62.4868 1070.7 62.4868Z" fill="white" stroke="#575756" stroke-width="1.0001" stroke-miterlimit="22.9256"/>
<path fill-rule="evenodd" clip-rule="evenodd" d="M535.783 56.0002C537.297 56.0002 538.594 57.2975 538.594 58.8111V100.541V142.271C538.594 143.784 537.297 145.081 535.783 145.081C534.27 145.081 532.973 143.784 532.973 142.271V100.541V58.8111C532.973 57.2975 534.27 56.0002 535.783 56.0002Z" fill="white" stroke="#575756" stroke-width="1.0001" stroke-miterlimit="22.9256"/>
<path fill-rule="evenodd" clip-rule="evenodd" d="M541.621 62.4868C543.135 62.4868 544.432 63.7841 544.432 65.2976V100.541V135.784C544.432 137.298 543.135 138.595 541.621 138.595C540.108 138.595 538.811 137.298 538.811 135.784V100.541V65.2976C538.811 64.0003 540.108 62.4868 541.621 62.4868Z" fill="white" stroke="#575756" stroke-width="1.0001" stroke-miterlimit="22.9256"/>
<path fill-rule="evenodd" clip-rule="evenodd" d="M515.243 51.2437C516.756 51.2437 518.053 52.541 518.053 54.0545V100.541V147.027C518.053 148.541 516.756 149.838 515.243 149.838C513.729 149.838 512.432 148.541 512.432 147.027V100.541V54.0545C512.216 52.541 513.513 51.2437 515.243 51.2437Z" fill="white" stroke="#575756" stroke-width="1.0001" stroke-miterlimit="22.9256"/>
<path fill-rule="evenodd" clip-rule="evenodd" d="M532.973 100.757V57.7301C532.973 52.9734 529.946 48.8652 525.621 47.3517C524.973 47.1355 524.108 47.1355 523.675 47.568C523.027 48.0004 522.811 48.6491 522.811 49.2977V100.757V152.217C522.811 152.865 523.243 153.514 523.675 153.946C524.324 154.379 524.973 154.379 525.621 154.163C529.946 152.649 532.973 148.541 532.973 143.784V100.757Z" fill="white" stroke="#575756" stroke-width="1.0001" stroke-miterlimit="22.9256"/>
<path fill-rule="evenodd" clip-rule="evenodd" d="M455.783 51.2437C457.297 51.2437 458.594 52.541 458.594 54.0545V100.541V147.027C458.594 148.541 457.297 149.838 455.783 149.838C454.27 149.838 452.973 148.541 452.973 147.027V100.541V54.0545C452.973 52.541 454.27 51.2437 455.783 51.2437Z" fill="white" stroke="#575756" stroke-width="1.0001" stroke-miterlimit="22.9256"/>
<path fill-rule="evenodd" clip-rule="evenodd" d="M435.459 100.757V57.7301C435.459 52.9734 438.486 48.8652 442.81 47.3517C443.459 47.1355 444.324 47.1355 444.756 47.568C445.405 48.0004 445.621 48.6491 445.621 49.2977V100.757V152.217C445.621 152.865 445.189 153.514 444.756 153.946C444.108 154.379 443.459 154.379 442.81 154.163C438.486 152.649 435.459 148.541 435.459 143.784V100.757Z" fill="white" stroke="#575756" stroke-width="1.0001" stroke-miterlimit="22.9256"/>
<path fill-rule="evenodd" clip-rule="evenodd" d="M303.567 33.0813C311.135 33.0813 317.405 39.3516 317.405 46.9191V100.757V154.595C317.405 162.162 311.135 168.433 303.567 168.433C296 168.433 289.729 162.162 289.729 154.595V100.757V46.9191C289.729 39.3516 296 33.0813 303.567 33.0813ZM412.757 140.325C414.27 140.325 415.567 139.027 415.567 137.514V100.757V64.0002C415.567 62.4867 414.27 61.1894 412.757 61.1894C411.243 61.1894 409.946 62.4867 409.946 64.0002V100.757V137.514C409.946 139.027 411.243 140.325 412.757 140.325ZM325.621 150.054C327.135 150.054 328.432 148.757 328.432 147.243V100.757V54.2705C328.432 52.757 327.135 51.4597 325.621 51.4597C324.108 51.4597 322.811 52.757 322.811 54.2705V100.757V147.243C322.811 148.757 324.108 150.054 325.621 150.054Z" fill="white" stroke="#575756" stroke-width="1.0001" stroke-miterlimit="22.9256"/>
<path fill-rule="evenodd" clip-rule="evenodd" d="M480.216 64.2166C490.594 64.2166 499.027 72.649 499.027 83.0274C499.027 93.4057 490.594 101.838 480.216 101.838C469.838 101.838 461.405 93.4057 461.405 83.0274C461.405 72.649 469.838 64.2166 480.216 64.2166Z" fill="white" stroke="#575756" stroke-width="1.0001" stroke-miterlimit="22.9256"/>
<path fill-rule="evenodd" clip-rule="evenodd" d="M482.377 67.6758C487.783 67.6758 492.107 71.1352 492.107 75.4595C492.107 79.7839 487.783 83.2433 482.377 83.2433C476.972 83.2433 472.647 79.7839 472.647 75.4595C472.647 71.1352 476.972 67.6758 482.377 67.6758Z" fill="white" stroke="#575756" stroke-width="1.0001" stroke-miterlimit="22.9256"/>
<path fill-rule="evenodd" clip-rule="evenodd" d="M475.675 87.7839C479.351 87.7839 482.162 90.1623 482.162 92.9731C482.162 95.7839 479.135 98.1623 475.675 98.1623C472.216 98.1623 469.189 95.7839 469.189 92.9731C468.972 89.9461 471.999 87.7839 475.675 87.7839Z" fill="white" stroke="#575756" stroke-width="1.0001" stroke-miterlimit="22.9256"/>
<path fill-rule="evenodd" clip-rule="evenodd" d="M576.864 80.6487C587.242 80.6487 595.675 89.0811 595.675 99.4595C595.675 109.838 587.242 118.27 576.864 118.27C566.485 118.27 558.053 109.838 558.053 99.4595C557.837 89.0811 566.269 80.6487 576.864 80.6487Z" fill="white" stroke="#575756" stroke-width="1.0001" stroke-miterlimit="22.9256"/>
<path fill-rule="evenodd" clip-rule="evenodd" d="M578.81 83.8921C584.215 83.8921 588.54 87.3515 588.54 91.6759C588.54 96.0002 584.215 99.4597 578.81 99.4597C573.404 99.4597 569.08 96.0002 569.08 91.6759C569.296 87.3515 573.621 83.8921 578.81 83.8921Z" fill="white" stroke="#575756" stroke-width="1.0001" stroke-miterlimit="22.9256"/>
<path fill-rule="evenodd" clip-rule="evenodd" d="M572.324 104C575.999 104 578.81 106.379 578.81 109.189C578.81 112 575.783 114.379 572.324 114.379C568.648 114.379 565.837 112 565.837 109.189C565.621 106.379 568.648 104 572.324 104Z" fill="white" stroke="#575756" stroke-width="1.0001" stroke-miterlimit="22.9256"/>
<path fill-rule="evenodd" clip-rule="evenodd" d="M651.675 87.1353C658.594 87.1353 663.999 92.7569 663.999 99.4596C663.999 106.378 658.378 111.784 651.675 111.784C644.756 111.784 639.351 106.162 639.351 99.4596C639.135 92.7569 644.756 87.1353 651.675 87.1353Z" fill="white" stroke="#575756" stroke-width="1.0001" stroke-miterlimit="22.9256"/>
<path fill-rule="evenodd" clip-rule="evenodd" d="M743.999 90.1626C749.189 90.1626 753.297 94.2707 753.297 99.4599C753.297 104.649 749.189 108.757 743.999 108.757C738.81 108.757 734.702 104.649 734.702 99.4599C734.702 94.4869 738.81 90.1626 743.999 90.1626Z" fill="white" stroke="#575756" stroke-width="1.0001" stroke-miterlimit="22.9256"/>
<path fill-rule="evenodd" clip-rule="evenodd" d="M837.19 87.1353C844.109 87.1353 849.514 92.7569 849.514 99.4596C849.514 106.378 843.892 111.784 837.19 111.784C830.487 111.784 824.865 106.162 824.865 99.4596C824.865 92.7569 830.487 87.1353 837.19 87.1353Z" fill="white" stroke="#575756" stroke-width="1.0001" stroke-miterlimit="22.9256"/>
<path fill-rule="evenodd" clip-rule="evenodd" d="M926.702 87.1353C933.621 87.1353 939.026 92.7569 939.026 99.4596C939.026 106.378 933.405 111.784 926.702 111.784C919.783 111.784 914.378 106.162 914.378 99.4596C914.378 92.7569 919.999 87.1353 926.702 87.1353Z" fill="white" stroke="#575756" stroke-width="1.0001" stroke-miterlimit="22.9256"/>
<path fill-rule="evenodd" clip-rule="evenodd" d="M1011.46 90.1626C1016.65 90.1626 1020.76 94.2707 1020.76 99.4599C1020.76 104.649 1016.65 108.757 1011.46 108.757C1006.27 108.757 1002.16 104.649 1002.16 99.4599C1002.16 94.4869 1006.27 90.1626 1011.46 90.1626Z" fill="white" stroke="#575756" stroke-width="1.0001" stroke-miterlimit="22.9256"/>
<path fill-rule="evenodd" clip-rule="evenodd" d="M1353.51 79.3518H1412.54V122.811H1353.51C1343.78 122.811 1335.78 114.811 1335.78 105.082V97.0815C1335.78 87.1356 1343.78 79.3518 1353.51 79.3518Z" fill="white" stroke="#575756" stroke-width="1.0001" stroke-miterlimit="22.9256"/>
<path fill-rule="evenodd" clip-rule="evenodd" d="M1398.05 82.3787H1412.32V119.568H1398.05V82.3787Z" fill="white" stroke="#575756" stroke-width="1.0001" stroke-miterlimit="22.9256"/>
<path d="M371.242 0.216309V44.5406" stroke="#009FE3" stroke-width="0.5669" stroke-miterlimit="22.9256"/>
<path fill-rule="evenodd" clip-rule="evenodd" d="M376.864 43.676L371.243 54.0544L365.621 43.676H376.864Z" fill="#009FE3"/>
<path d="M8 96C8 98.2091 9.79086 100 12 100C14.2091 100 16 98.2091 16 96V94H8V96Z" fill="#E5294B"/>
<path d="M24 105C24 107.209 25.7909 109 28 109C30.2091 109 32 107.209 32 105V94H24V105Z" fill="#E5294B"/>
<path d="M40 115C40 117.209 41.7909 119 44 119C46.2091 119 48 117.209 48 115V94H40V115Z" fill="#E5294B"/>
<path d="M56 147C56 149.209 57.7909 151 60 151C62.2091 151 64 149.209 64 147V94H56V147Z" fill="#E5294B"/>
<path d="M72 128C72 130.209 73.7909 132 76 132C78.2091 132 80 130.209 80 128V94H72V128Z" fill="#E5294B"/>
<path d="M88 104C88 106.209 89.7909 108 92 108C94.2091 108 96 106.209 96 104V94H88V104Z" fill="#E5294B"/>
<path d="M104 100C104 102.209 105.791 104 108 104C110.209 104 112 102.209 112 100V94H104V100Z" fill="#E5294B"/>
<path d="M120 106C120 108.209 121.791 110 124 110C126.209 110 128 108.209 128 106V94H120V106Z" fill="#E5294B"/>
<path d="M136 112C136 114.209 137.791 116 140 116C142.209 116 144 114.209 144 112V94H136V112Z" fill="#E5294B"/>
<path d="M152 107C152 109.209 153.791 111 156 111C158.209 111 160 109.209 160 107V94H152V107Z" fill="#E5294B"/>
<path d="M168 109C168 111.209 169.791 113 172 113C174.209 113 176 111.209 176 109V94H168V109Z" fill="#E5294B"/>
<path d="M184 126C184 128.209 185.791 130 188 130C190.209 130 192 128.209 192 126V94H184V126Z" fill="#E5294B"/>
<path d="M200 143C200 145.209 201.791 147 204 147C206.209 147 208 145.209 208 143V94H200V143Z" fill="#E5294B"/>
<path d="M216 125C216 127.209 217.791 129 220 129C222.209 129 224 127.209 224 125V94H216V125Z" fill="#E5294B"/>
<path d="M232 113C232 115.209 233.791 117 236 117C238.209 117 240 115.209 240 113V94H232V113Z" fill="#E5294B"/>
<path d="M248 105C248 107.209 249.791 109 252 109C254.209 109 256 107.209 256 105V94H248V105Z" fill="#E5294B"/>
<path d="M264 95C264 97.2091 265.791 99 268 99C270.209 99 272 97.2091 272 95V94H264V95Z" fill="#E5294B"/>
<path d="M0 91C0 88.7909 1.79086 87 4 87C6.20914 87 8 88.7909 8 91V94H0V91Z" fill="#E5294B"/>
<path d="M16 85C16 82.7909 17.7909 81 20 81C22.2091 81 24 82.7909 24 85V94H16V85Z" fill="#E5294B"/>
<path d="M32 77C32 74.7909 33.7909 73 36 73C38.2091 73 40 74.7909 40 77V94H32V77Z" fill="#E5294B"/>
<path d="M48 60C48 57.7909 49.7909 56 52 56C54.2091 56 56 57.7909 56 60V94H48V60Z" fill="#E5294B"/>
<path d="M64 56C64 53.7909 65.7909 52 68 52C70.2091 52 72 53.7909 72 56V94H64V56Z" fill="#E5294B"/>
<path d="M80 66C80 63.7909 81.7909 62 84 62C86.2091 62 88 63.7909 88 66V94H80V66Z" fill="#E5294B"/>
<path d="M96 93C96 90.7909 97.7909 89 100 89C102.209 89 104 90.7909 104 93V94H96V93Z" fill="#E5294B"/>
<path d="M112 88C112 85.7909 113.791 84 116 84C118.209 84 120 85.7909 120 88V94H112V88Z" fill="#E5294B"/>
<path d="M128 80C128 77.7909 129.791 76 132 76C134.209 76 136 77.7909 136 80V94H128V80Z" fill="#E5294B"/>
<path d="M144 88C144 85.7909 145.791 84 148 84C150.209 84 152 85.7909 152 88V94H144V88Z" fill="#E5294B"/>
<path d="M160 83C160 80.7909 161.791 79 164 79C166.209 79 168 80.7909 168 83V94H160V83Z" fill="#E5294B"/>
<path d="M176 76C176 73.7909 177.791 72 180 72C182.209 72 184 73.7909 184 76V94H176V76Z" fill="#E5294B"/>
<path d="M192 72C192 69.7909 193.791 68 196 68C198.209 68 200 69.7909 200 72V94H192V72Z" fill="#E5294B"/>
<path d="M208 62C208 59.7909 209.791 58 212 58C214.209 58 216 59.7909 216 62V94H208V62Z" fill="#E5294B"/>
<path d="M224 69C224 66.7909 225.791 65 228 65C230.209 65 232 66.7909 232 69V94H224V69Z" fill="#E5294B"/>
<path d="M240 86C240 83.7909 241.791 82 244 82C246.209 82 248 83.7909 248 86V94H240V86Z" fill="#E5294B"/>
<path d="M256 91C256 88.7909 257.791 87 260 87C262.209 87 264 88.7909 264 91V94H256V91Z" fill="#E5294B"/>
</svg>
