<svg width="1421" height="648" viewBox="0 0 1421 648" fill="none" xmlns="http://www.w3.org/2000/svg">
<path d="M1387.01 324C1387.01 318.987 1382.95 314.923 1377.94 314.923C1372.93 314.923 1368.87 318.987 1368.87 324C1368.87 329.013 1372.93 333.076 1377.94 333.076C1382.95 333.076 1387.01 329.013 1387.01 324Z" stroke="#575756"/>
<path d="M572.076 324C572.076 310.172 560.875 298.963 547.059 298.963C533.243 298.963 522.042 310.172 522.042 324C522.042 337.828 533.243 349.037 547.059 349.037C560.875 349.037 572.076 337.828 572.076 324Z" stroke="#575756"/>
<rect x="1420.5" y="647.5" width="916" height="647" rx="25.5" transform="rotate(-180 1420.5 647.5)" stroke="#575756"/>
<mask id="mask0_797_3754" style="mask-type:alpha" maskUnits="userSpaceOnUse" x="585" y="41" width="760" height="566">
<rect x="1343.45" y="605.502" width="757.116" height="563.005" transform="rotate(-180 1343.45 605.502)" fill="#C4C4C4" stroke="#575756" stroke-width="2"/>
</mask>
<g mask="url(#mask0_797_3754)">
<rect x="585.65" y="41.4414" width="758.723" height="565.116" fill="#BCBCBC"/>
<path opacity="0.8" d="M1004.23 326.165L947.279 359.035C945.612 359.996 943.529 358.794 943.529 356.869L943.529 291.13C943.529 289.206 945.612 288.003 947.279 288.965L1004.23 321.835C1005.89 322.797 1005.89 325.203 1004.23 326.165Z" fill="white" stroke="#575756"/>
</g>
<path d="M452 283.5H500C501.381 283.5 502.5 284.619 502.5 286V361C502.5 362.381 501.381 363.5 500 363.5H452C447.858 363.5 444.5 360.142 444.5 356V291C444.5 286.858 447.858 283.5 452 283.5Z" stroke="#575756"/>
<rect x="-0.5" y="0.5" width="1" height="28" transform="matrix(-1 0 0 1 504 309)" stroke="#575756"/>
<path d="M435 313.5H444.5V333.5H435C434.172 333.5 433.5 332.828 433.5 332V315C433.5 314.172 434.172 313.5 435 313.5Z" stroke="#575756"/>
<path d="M469 313.5H478C478.828 313.5 479.5 314.172 479.5 315V332C479.5 332.828 478.828 333.5 478 333.5H469C468.172 333.5 467.5 332.828 467.5 332V315C467.5 314.172 468.172 313.5 469 313.5Z" stroke="#575756"/>
<path d="M304.5 319.5H433.5V327.5H304.5V319.5Z" stroke="#575756"/>
<path d="M297.5 462.5L297.5 334.5L289.5 334.5L289.5 462.5L297.5 462.5Z" stroke="#575756"/>
<rect x="282.5" y="477.5" width="282" height="7.99998" transform="rotate(-180 282.5 477.5)" stroke="#575756"/>
<rect x="473" y="319" width="1" height="8" rx="0.5" fill="#575756"/>
<mask id="path-15-inside-1_797_3754" fill="white">
<path d="M305 319C302.899 319 300.818 319.414 298.877 320.218C296.936 321.022 295.172 322.201 293.686 323.686C292.201 325.172 291.022 326.936 290.218 328.877C289.414 330.818 289 332.899 289 335L297.941 335C297.941 334.073 298.124 333.155 298.478 332.299C298.833 331.442 299.353 330.664 300.009 330.009C300.664 329.353 301.442 328.833 302.299 328.478C303.155 328.124 304.073 327.941 305 327.941L305 319Z"/>
</mask>
<path d="M305 319C302.899 319 300.818 319.414 298.877 320.218C296.936 321.022 295.172 322.201 293.686 323.686C292.201 325.172 291.022 326.936 290.218 328.877C289.414 330.818 289 332.899 289 335L297.941 335C297.941 334.073 298.124 333.155 298.478 332.299C298.833 331.442 299.353 330.664 300.009 330.009C300.664 329.353 301.442 328.833 302.299 328.478C303.155 328.124 304.073 327.941 305 327.941L305 319Z" stroke="#575756" stroke-width="2" mask="url(#path-15-inside-1_797_3754)"/>
<mask id="path-16-inside-2_797_3754" fill="white">
<path d="M282 478C284.101 478 286.182 477.586 288.123 476.782C290.064 475.978 291.828 474.799 293.314 473.314C294.799 471.828 295.978 470.064 296.782 468.123C297.586 466.182 298 464.101 298 462L289.059 462C289.059 462.927 288.876 463.845 288.522 464.701C288.167 465.558 287.647 466.336 286.991 466.991C286.336 467.647 285.558 468.167 284.701 468.522C283.845 468.876 282.927 469.059 282 469.059L282 478Z"/>
</mask>
<path d="M282 478C284.101 478 286.182 477.586 288.123 476.782C290.064 475.978 291.828 474.799 293.314 473.314C294.799 471.828 295.978 470.064 296.782 468.123C297.586 466.182 298 464.101 298 462L289.059 462C289.059 462.927 288.876 463.845 288.522 464.701C288.167 465.558 287.647 466.336 286.991 466.991C286.336 467.647 285.558 468.167 284.701 468.522C283.845 468.876 282.927 469.059 282 469.059L282 478Z" stroke="#575756" stroke-width="2" mask="url(#path-16-inside-2_797_3754)"/>
<rect x="304.75" y="320.25" width="6.5" height="0.5" transform="rotate(90 304.75 320.25)" stroke="white" stroke-width="0.5"/>
<rect x="282.25" y="476.75" width="6.5" height="0.5" transform="rotate(-90 282.25 476.75)" stroke="white" stroke-width="0.5"/>
<rect x="290.25" y="334.25" width="6.5" height="0.5" stroke="white" stroke-width="0.5"/>
<rect x="296.75" y="462.75" width="6.5" height="0.5" transform="rotate(-180 296.75 462.75)" stroke="white" stroke-width="0.5"/>
</svg>
